<svg xmlns="http://www.w3.org/2000/svg" viewBox="0 0 98.88 182"><defs><style>.cls-1,.cls-3{fill:none;stroke:#4faae3;stroke-miterlimit:10;}.cls-1{stroke-width:2px;}.cls-2{fill:#4faae3;}.cls-3{stroke-width:1.75px;}.cls-4{fill:#fff;}</style></defs><title>feature3_3</title><g id="feature3_3"><rect class="cls-1" x="1" y="1" width="96.88" height="180" rx="6" ry="6"/><rect class="cls-2" x="6.45" y="29.69" width="85.98" height="122.62"/><circle class="cls-3" cx="49.44" cy="165.9" r="6.97"/><circle class="cls-2" cx="33.04" cy="16.68" r="2.77"/><line class="cls-3" x1="41.17" y1="16.68" x2="63.24" y2="16.68"/><path class="cls-4" d="M49.44,89.64C50.32,84.55,52.58,79.37,56,76s8.56-5.68,13.65-6.56c-5.09-.89-10.27-3.14-13.65-6.56s-5.68-8.56-6.57-13.65c-.89,5.09-3.14,10.27-6.56,13.65s-8.56,5.68-13.66,6.56c5.1.89,10.27,3.14,13.66,6.56s5.68,8.56,6.56,13.65"/><path class="cls-4" d="M16,103.42a1,1,0,0,1,1-1.07c.53,0,.82.29,1.1.92l1.76,4h0l1.72-4c.27-.63.56-.92,1.09-.92a1,1,0,0,1,1,1.07v6.46a.81.81,0,1,1-1.62,0v-4H22l-1.27,3c-.25.58-.46.75-.87.75s-.62-.17-.87-.75l-1.28-3h-.06v4a.81.81,0,1,1-1.62,0Z"/><path class="cls-4" d="M32.9,107.63V103.3a.89.89,0,1,1,1.78,0v4.39a1.37,1.37,0,0,0,1.38,1.54,1.35,1.35,0,0,0,1.37-1.54V103.3a.89.89,0,1,1,1.78,0v4.33a2.93,2.93,0,0,1-3.15,3.17A2.9,2.9,0,0,1,32.9,107.63Z"/><path class="cls-4" d="M48.46,110.1a.89.89,0,0,1-.42-.75.78.78,0,0,1,.8-.79,1,1,0,0,1,.52.15,3.4,3.4,0,0,0,1.77.53c.87,0,1.34-.4,1.34-1s-.29-.79-1.27-.92l-.44-.06c-1.68-.23-2.6-1-2.6-2.47s1.14-2.52,2.92-2.52a4.76,4.76,0,0,1,2.3.55.81.81,0,0,1,.42.71.76.76,0,0,1-.78.78,1.19,1.19,0,0,1-.52-.13,3.35,3.35,0,0,0-1.42-.34c-.73,0-1.11.36-1.11.88s.33.78,1.28.91l.44.06c1.71.24,2.59,1,2.59,2.5s-1.09,2.59-3.24,2.59A4.92,4.92,0,0,1,48.46,110.1Z"/><path class="cls-4" d="M63.14,103.22a.73.73,0,0,1,.78-.79h4a.77.77,0,1,1,0,1.54H65a.06.06,0,0,0-.07.07v1.64a.06.06,0,0,0,.07.07h2.34a.76.76,0,1,1,0,1.53H65a.06.06,0,0,0-.07.07v1.71a.06.06,0,0,0,.07.07h2.92a.77.77,0,1,1,0,1.54h-4a.73.73,0,0,1-.78-.79Z"/><path class="cls-4" d="M77.6,103.22a.73.73,0,0,1,.78-.79h4a.77.77,0,1,1,0,1.54H79.45a.06.06,0,0,0-.07.07v1.64a.06.06,0,0,0,.07.07h2.34a.76.76,0,1,1,0,1.53H79.45a.06.06,0,0,0-.07.07v1.71a.06.06,0,0,0,.07.07h2.92a.77.77,0,1,1,0,1.54h-4a.73.73,0,0,1-.78-.79Z"/><path class="cls-4" d="M16,125.21v-6.58a.73.73,0,0,1,.78-.79h2.54a2.66,2.66,0,1,1,0,5.29H17.86a.06.06,0,0,0-.07.07v2a.89.89,0,1,1-1.78,0Zm4.41-4.71a1.08,1.08,0,0,0-1.2-1.12H17.86a.06.06,0,0,0-.07.07v2.07a.06.06,0,0,0,.07.07h1.36A1.07,1.07,0,0,0,20.42,120.5Z"/><path class="cls-4" d="M23.91,125l2.23-6.17c.23-.65.59-1,1.22-1s1,.39,1.24,1L30.79,125a1,1,0,0,1,.06.34.84.84,0,0,1-.86.84.86.86,0,0,1-.84-.63l-.34-1H25.87l-.33,1a.86.86,0,0,1-.84.63.84.84,0,0,1-.86-.84A1,1,0,0,1,23.91,125Zm4.41-2-.94-2.88h0l-1,2.88Z"/><path class="cls-4" d="M33.7,125.52a.89.89,0,0,1-.42-.75.78.78,0,0,1,.8-.79,1,1,0,0,1,.52.15,3.4,3.4,0,0,0,1.77.53c.87,0,1.34-.4,1.34-1s-.29-.79-1.27-.92l-.44-.06c-1.68-.23-2.6-1-2.6-2.47s1.14-2.52,2.92-2.52a4.76,4.76,0,0,1,2.3.55A.81.81,0,0,1,39,119a.76.76,0,0,1-.78.78,1.19,1.19,0,0,1-.52-.13,3.35,3.35,0,0,0-1.42-.34c-.73,0-1.11.36-1.11.88s.33.78,1.28.91l.44.06c1.71.24,2.59,1,2.59,2.5s-1.09,2.59-3.24,2.59A4.92,4.92,0,0,1,33.7,125.52Z"/><path class="cls-4" d="M42.35,125.52a.89.89,0,0,1-.42-.75.78.78,0,0,1,.8-.79,1,1,0,0,1,.52.15,3.4,3.4,0,0,0,1.77.53c.87,0,1.34-.4,1.34-1s-.29-.79-1.27-.92l-.44-.06c-1.68-.23-2.6-1-2.6-2.47s1.14-2.52,2.92-2.52a4.76,4.76,0,0,1,2.3.55.81.81,0,0,1,.42.71.76.76,0,0,1-.78.78,1.19,1.19,0,0,1-.52-.13,3.35,3.35,0,0,0-1.42-.34c-.73,0-1.11.36-1.11.88s.33.78,1.28.91l.44.06c1.71.24,2.59,1,2.59,2.5s-1.09,2.59-3.24,2.59A4.92,4.92,0,0,1,42.35,125.52Z"/><path class="cls-4" d="M50.78,125.21v-6.58a.73.73,0,0,1,.78-.79H54.1a2.66,2.66,0,1,1,0,5.29H52.63a.06.06,0,0,0-.07.07v2a.89.89,0,1,1-1.78,0Zm4.41-4.71a1.08,1.08,0,0,0-1.2-1.12H52.63a.06.06,0,0,0-.07.07v2.07a.06.06,0,0,0,.07.07H54A1.07,1.07,0,0,0,55.19,120.5Z"/><path class="cls-4" d="M59.63,124.22a11.13,11.13,0,0,1,0-4.51,3.26,3.26,0,0,1,6,0,11.13,11.13,0,0,1,0,4.51,3.26,3.26,0,0,1-6,0Zm4.3-.47a11.92,11.92,0,0,0,0-3.56,1.39,1.39,0,0,0-2.59,0,12,12,0,0,0,0,3.56,1.39,1.39,0,0,0,2.59,0Z"/><path class="cls-4" d="M73.1,125.6l-1.38-2.65H70.51a.06.06,0,0,0-.07.07v2.19a.87.87,0,0,1-.88.94.88.88,0,0,1-.9-.94v-6.58a.73.73,0,0,1,.78-.79H72a2.55,2.55,0,0,1,2.81,2.56,2.4,2.4,0,0,1-1.36,2.23l1.2,2.18a1,1,0,0,1,.12.5.81.81,0,0,1-.85.85A.94.94,0,0,1,73.1,125.6Zm0-5.19a1,1,0,0,0-1.12-1H70.51a.06.06,0,0,0-.07.07v1.9a.06.06,0,0,0,.07.07H72A1,1,0,0,0,73.08,120.42Z"/><path class="cls-4" d="M79.38,125.21v-5.71a.06.06,0,0,0-.07-.07H77.91a.8.8,0,1,1,0-1.59h4.71a.8.8,0,1,1,0,1.59H81.23a.06.06,0,0,0-.07.07v5.71a.89.89,0,1,1-1.78,0Z"/></g></svg>