<svg xmlns="http://www.w3.org/2000/svg" viewBox="0 0 300 211.16"><defs><style>.cls-1{fill:#e6e6e6;}.cls-2{fill:#4faae3;}.cls-3{fill:#fff;}</style></defs><title>feature1_3</title><g id="feature1_3"><path class="cls-1" d="M224.82,70.69c10.33.16,19.21,6.39,18.22,15.48,0,0-1.42,24.09-5.93,51.05-3.71,31-10.68,58.1-24.75,57.28h0c-4.89-.08-8-4.08-7.55-10.11,0,0,.66-7.76-6-8.28l-4-.06c-5-.08-9.93,5.92-10.58,10.49l-.74,5.22c-3,14.52-12.94,17-24.38,16.83-8.57-.13-13.48-6.09-12.86-14.82l1-16c1-8-6-14.84-14.78-15.13s-40.55-.63-40.55-.63c-10.43-.16-19.36-10-13-23.76,6.61-12.21,29.58-12.28,79-12.63,11.91-1.3,19.17-6.8,26.94-13.86,9.89-9.53,15-15.85,16.66-23.84C204.28,74.25,211.76,70.49,224.82,70.69Z"/><path class="cls-1" d="M122.18,202.13c-13.13,2.06-19.28,1.79-31.81-.49-5.91-1.55-10.26-6-9-11.69l.17-.78c1.21-5.67,7.09-10.25,13.72-11.15,14-1.87,20.29-2.15,31.3.48,6.14,1.37,10.32,5.83,9.32,11.51l-.14.78C134.69,196.51,129,200.5,122.18,202.13Z"/><path class="cls-1" d="M0,206.28a38.31,38.31,0,0,1,4.18-15.74A9.11,9.11,0,0,1,11.8,186h.44c3.19,0,5.3,2.09,5.2,4.74a35.22,35.22,0,0,1-4,15.74,8.92,8.92,0,0,1-7.72,4.67H5.23A5,5,0,0,1,0,206.28Z"/><path class="cls-1" d="M51.47,136.33c-11.89.15-17.86,4-21.59,9-4.5,6.1-5.85,14-1.88,18.5,1.87,2.12,9.05,4.52,7.82,9.54a98.49,98.49,0,0,1-3.88,11c-2.81,9.51,3.82,16,9.55,15.93,11.14-.12,15.3-5.48,19.06-11.26,7.86-14.84,8.43-24.33,9.24-39.93C69.73,140.85,60.92,136.21,51.47,136.33Z"/><path class="cls-1" d="M213.48,66.1c-2.93-1.9-8.66-5.05-7.75-11.51.73-5.21,6.82-10.32,9.39-12C222,38.16,207,8.13,226.77,1.24c15-5.22,21.73,7.56,31.58,9.49,12.07,2.37,39,3.87,41.51,18.29,2.31,13.11-24.34,18.57-42.36,23.27-8.16,2.13-12.14,11.68-20.15,10.11-6.48-1.26-13.46-9.57-17.16-6.2s1.16,3.94,1.44,6C222,64.75,217.29,68.57,213.48,66.1Z"/><path class="cls-2" d="M201.76,116.6c-10.63,1.3-18.36,11.59-16.91,22.2a22.53,22.53,0,0,0,1.85,6c1.55,3.62,8.69,10.62,17.52,20.19,9-9.76,16.06-16.67,17.52-20.19a20.39,20.39,0,0,0,2-8.78A19.55,19.55,0,0,0,201.76,116.6Zm2.45,27.33a9.36,9.36,0,1,1,9.36-9.36A9.36,9.36,0,0,1,204.21,143.93Z"/><circle class="cls-3" cx="204.21" cy="135.04" r="9.18"/><path class="cls-2" d="M220.86,82.39a8.19,8.19,0,0,0-7,9.14,9.28,9.28,0,0,0,.76,2.46c.64,1.49,3.58,4.37,7.22,8.32,3.72-4,6.62-6.87,7.22-8.32a8.4,8.4,0,0,0,.83-3.62A8.05,8.05,0,0,0,220.86,82.39Zm1,11.26a3.85,3.85,0,1,1,3.85-3.85A3.85,3.85,0,0,1,221.88,93.65Z"/><circle class="cls-3" cx="221.87" cy="89.99" r="3.78"/><path class="cls-2" d="M249,17.64a8.19,8.19,0,0,0-7,9.14,9.28,9.28,0,0,0,.76,2.46c.64,1.49,3.58,4.37,7.22,8.32,3.72-4,6.62-6.87,7.22-8.32a8.4,8.4,0,0,0,.83-3.62A8.05,8.05,0,0,0,249,17.64Zm1,11.26A3.85,3.85,0,1,1,253.87,25,3.85,3.85,0,0,1,250,28.9Z"/><circle class="cls-3" cx="250.02" cy="25.24" r="3.78"/><path class="cls-2" d="M106.3,122.72a8.19,8.19,0,0,0-7,9.14,9.28,9.28,0,0,0,.76,2.46c.64,1.49,3.58,4.37,7.22,8.32,3.72-4,6.62-6.87,7.22-8.32a8.4,8.4,0,0,0,.83-3.62A8.05,8.05,0,0,0,106.3,122.72Zm1,11.26a3.85,3.85,0,1,1,3.85-3.85A3.85,3.85,0,0,1,107.31,134Z"/><circle class="cls-3" cx="107.31" cy="130.32" r="3.78"/><path class="cls-2" d="M107.5,172.17a7,7,0,0,0-6,7.84,8,8,0,0,0,.65,2.11c.55,1.28,3.07,3.75,6.19,7.13,3.19-3.45,5.67-5.89,6.19-7.13a7.2,7.2,0,0,0,.71-3.1A6.9,6.9,0,0,0,107.5,172.17Zm.87,9.65a3.3,3.3,0,1,1,3.3-3.3A3.3,3.3,0,0,1,108.37,181.82Z"/><circle class="cls-3" cx="108.37" cy="178.68" r="3.24"/><path class="cls-2" d="M49,145.18a9.18,9.18,0,0,0-7.81,10.25,10.41,10.41,0,0,0,.86,2.76c.71,1.67,4,4.9,8.09,9.32,4.17-4.51,7.42-7.7,8.09-9.32a9.42,9.42,0,0,0,.93-4.06A9,9,0,0,0,49,145.18ZM50.1,157.8a4.32,4.32,0,1,1,4.32-4.32A4.32,4.32,0,0,1,50.1,157.8Z"/><circle class="cls-3" cx="50.1" cy="153.7" r="4.24"/><path class="cls-2" d="M149.64,120.81a11.8,11.8,0,0,0-10,13.18,13.38,13.38,0,0,0,1.1,3.55c.92,2.15,5.16,6.31,10.4,12,5.36-5.8,9.54-9.9,10.4-12a12.11,12.11,0,0,0,1.2-5.22A11.61,11.61,0,0,0,149.64,120.81ZM151.1,137a5.56,5.56,0,1,1,5.56-5.56A5.56,5.56,0,0,1,151.1,137Z"/><circle class="cls-3" cx="151.1" cy="131.76" r="5.45"/><path class="cls-2" d="M165.8,159.84a9.61,9.61,0,0,0-8.18,10.73,10.9,10.9,0,0,0,.9,2.89c.75,1.75,4.2,5.14,8.47,9.77,4.36-4.72,7.77-8.06,8.47-9.77a9.86,9.86,0,0,0,1-4.25A9.46,9.46,0,0,0,165.8,159.84ZM167,173.06a4.53,4.53,0,1,1,4.53-4.53A4.53,4.53,0,0,1,167,173.06Z"/><circle class="cls-3" cx="166.99" cy="168.76" r="4.44"/><path class="cls-2" d="M26.2,77.42a2.5,2.5,0,0,1,2.65-2.6,3.08,3.08,0,0,1,2.71,1.87,5.14,5.14,0,0,0,5,2.7A5,5,0,0,0,41.85,74a5.35,5.35,0,0,0-5.62-5.62h-.52a2.6,2.6,0,1,1,0-5.2h.52c2.86,0,4.84-2,4.84-5.15a4.43,4.43,0,0,0-4.78-4.78c-2.5,0-3.8,1-4.52,2.65a2.91,2.91,0,0,1-2.6,1.82,2.53,2.53,0,0,1-2.65-2.6,3.43,3.43,0,0,1,.31-1.4c1.3-3.12,4.58-5.67,9.67-5.67,6.55,0,10.45,4.06,10.45,9.62a8.65,8.65,0,0,1-4,7.49v.1c2.24,1,4.68,4,4.68,8.68C47.68,80.28,43,84.6,36.6,84.6c-5.25,0-8.79-2.39-10.14-5.77A4.45,4.45,0,0,1,26.2,77.42Z"/><path class="cls-2" d="M51.36,66.34c0-8.22.26-9.88.73-11.34,1.4-4.42,4.78-6.92,10-6.92s8.63,2.5,10.09,6.92c.47,1.46.73,3.12.73,11.34s-.26,9.88-.73,11.34c-1.46,4.42-4.84,6.92-10.09,6.92s-8.63-2.5-10-6.92C51.62,76.22,51.36,74.56,51.36,66.34ZM62.13,79.4a4.21,4.21,0,0,0,4.37-2.81c.36-1.09.47-2.29.47-10.24s-.1-9.15-.47-10.24a4.21,4.21,0,0,0-4.37-2.81,4.14,4.14,0,0,0-4.32,2.81c-.36,1.09-.47,2.29-.47,10.24s.1,9.15.47,10.24A4.14,4.14,0,0,0,62.13,79.4Z"/><path class="cls-2" d="M77.25,66.34c0-8.22.26-9.88.73-11.34,1.4-4.42,4.78-6.92,10-6.92S96.64,50.59,98.1,55c.47,1.46.73,3.12.73,11.34s-.26,9.88-.73,11.34C96.64,82.1,93.26,84.6,88,84.6s-8.63-2.5-10-6.92C77.51,76.22,77.25,74.56,77.25,66.34ZM88,79.4a4.21,4.21,0,0,0,4.37-2.81c.36-1.09.47-2.29.47-10.24s-.1-9.15-.47-10.24A4.21,4.21,0,0,0,88,53.29a4.14,4.14,0,0,0-4.32,2.81c-.36,1.09-.47,2.29-.47,10.24s.1,9.15.47,10.24A4.14,4.14,0,0,0,88,79.4Z"/><path class="cls-2" d="M107.25,67.26c-1.78,0-2.4,0-2.52,0s-.24,0-.24-.22V65.44c0-.2,0-.22.24-.22s.74,0,2.52,0h12c1.8,0,2.42,0,2.54,0s.2,0,.2.22v1.64c0,.2,0,.22-.2.22s-.74,0-2.54,0h-6.94c0,1.18-.08,2.24-.18,3.22h5.2c1.7,0,2.28,0,2.4,0s.22,0,.22.22c0,.58,0,1.44,0,2a35.77,35.77,0,0,1-.68,6.4c-.42,2-1.38,2.76-3.36,2.76A17.37,17.37,0,0,1,114,81.7c-.62-.06-.62-.08-.76-.74a6.11,6.11,0,0,0-.52-1.58,16.93,16.93,0,0,0,2.9.26c.74,0,1.28-.28,1.5-1.34a31.81,31.81,0,0,0,.58-5.82h-5.84a17.07,17.07,0,0,1-1,3.4,12.62,12.62,0,0,1-4.64,5.8c-.22.16-.34.24-.44.24s-.22-.14-.44-.42a4.59,4.59,0,0,0-1.3-1.06A10.67,10.67,0,0,0,108.87,75a21.61,21.61,0,0,0,1.26-7.76Z"/><path class="cls-2" d="M140.26,81.38c-.16.34-.22.48-.36.48s-.22-.08-.46-.24a15.94,15.94,0,0,1-7.06-9.56,14.92,14.92,0,0,1-7.24,9.58,1.28,1.28,0,0,1-.46.2c-.14,0-.22-.14-.4-.48A5.47,5.47,0,0,0,123.12,80c5.26-2.44,7.82-7.44,7.78-13,0-.88,0-1.72-.14-2.6.78,0,1.74.14,2.46.24.26,0,.38.16.38.32a.86.86,0,0,1-.2.5,3.26,3.26,0,0,0-.16,1.32c0,.24,0,.48,0,.72.86,5.86,3.38,9.74,8.16,12.34A5.44,5.44,0,0,0,140.26,81.38Z"/><path class="cls-2" d="M148,75.86a47.46,47.46,0,0,0,5-2.34A6.47,6.47,0,0,0,153,75c.1.66.1.66-.46,1a59.56,59.56,0,0,1-7.26,3.22,1.45,1.45,0,0,0-.58.34.41.41,0,0,1-.28.16c-.12,0-.22-.1-.28-.28a18.18,18.18,0,0,1-.6-2.16,16.41,16.41,0,0,0,1.9-.5l.4-.12-.08-8.6a20.82,20.82,0,0,0-.16-3c.72,0,1.54.06,2.2.14.2,0,.34.12.34.24a1.05,1.05,0,0,1-.14.42,6.63,6.63,0,0,0-.12,2.2Zm7.56-.74a15.85,15.85,0,0,0,2-7.42,13.16,13.16,0,0,0,0-2.84c.86.06,1.7.16,2.3.26.2,0,.3.12.3.28a1.14,1.14,0,0,1-.16.48,10.07,10.07,0,0,0-.24,1.82,19.39,19.39,0,0,1-1.9,7.72,16.77,16.77,0,0,0,4.18,4.36,9.87,9.87,0,0,0-1.12,1.64c-.14.28-.22.42-.32.42s-.2-.1-.42-.3a24.26,24.26,0,0,1-3.56-4.16A14.55,14.55,0,0,1,150.44,82a1.59,1.59,0,0,1-.48.16c-.16,0-.22-.12-.42-.46a4.9,4.9,0,0,0-1.08-1.32C152.08,78.94,154.1,77.5,155.52,75.12Zm-4-8.6a.5.5,0,0,1,.22-.1c.06,0,.1,0,.18.12a17.87,17.87,0,0,1,3,3.68c.12.18.08.26-.12.38l-1.28.92a.44.44,0,0,1-.24.12c-.1,0-.16-.08-.24-.22a19.37,19.37,0,0,0-2.84-3.72c-.16-.16-.12-.24.1-.38Z"/><path class="cls-2" d="M167.25,81.12c-1.8,0-2.42,0-2.54,0s-.22,0-.22-.22V79.12c0-.2,0-.22.22-.22s.74,0,2.54,0h4.22V67.66a20.91,20.91,0,0,0-.16-3.34c.76,0,1.66.06,2.34.14.2,0,.36.14.36.26a1.36,1.36,0,0,1-.14.46,7,7,0,0,0-.14,1.92v3.16h3.92c1.74,0,2.34,0,2.46,0s.22,0,.22.22v1.82c0,.2,0,.22-.22.22s-.72,0-2.46,0h-3.92v6.5h5.46c1.8,0,2.42,0,2.54,0s.22,0,.22.22v1.82c0,.2,0,.22-.22.22s-.74,0-2.54,0Z"/></g></svg>