<svg xmlns="http://www.w3.org/2000/svg" viewBox="0 0 974.11 493.5"><defs><style>.cls-1{fill:#202020;}.cls-2{opacity:0.25;}.cls-3{fill:#4faae3;}.cls-4{fill:#e2d436;}.cls-5{fill:#fff;}.cls-6{fill:#f5f5f5;}.cls-6,.cls-8{stroke:#666;}.cls-6,.cls-7,.cls-8{stroke-miterlimit:10;}.cls-7,.cls-8{fill:none;}.cls-7{stroke:#fff;stroke-width:3px;}.cls-9{fill:#666;}</style></defs><title>menu_pc</title><g id="menu_pc"><path class="cls-1" d="M194.81,188.9c0,.41,0,1.24,0,1.75,0,.18,0,.36,0,.43,0,.36-.25.43-1.66.43-.54,0-.65-.07-.65-.38v-.36c.07-1.4.11-2.18.11-3.46a23.1,23.1,0,0,0-.2-3.83,14.12,14.12,0,0,1,2.18.16c.25.05.4.18.4.4a.69.69,0,0,1-.05.25,4,4,0,0,0-.18,1.57Zm7-2.34a21.6,21.6,0,0,1-.5,5.51,8.59,8.59,0,0,1-4.21,5.29,3,3,0,0,1-.92.4.43.43,0,0,1-.34-.2,5,5,0,0,0-1.37-1.22,8.27,8.27,0,0,0,2.92-1.82,6.74,6.74,0,0,0,1.84-3.28,26.55,26.55,0,0,0,.4-5,14.69,14.69,0,0,0-.18-2.84,12.72,12.72,0,0,1,2.29.2c.23.05.34.14.34.32a1,1,0,0,1-.07.32,4.33,4.33,0,0,0-.18,1.6Z"/><path class="cls-1" d="M214.07,184.29c1.5,0,2.63,0,4.84-.07a6.08,6.08,0,0,0,1.31-.13.87.87,0,0,1,.31-.05c.34,0,.67.27,1.19,1a2.38,2.38,0,0,1,.63,1.22.5.5,0,0,1-.29.45,2,2,0,0,0-.7.72,18.62,18.62,0,0,1-2.59,2.81c-.47.43-.63.54-.81.54a.36.36,0,0,1-.31-.14,4.54,4.54,0,0,0-1.48-1.15,10.64,10.64,0,0,0,3.42-3.31c-9.27.07-9.27.07-10.33.25a.87.87,0,0,1-.23,0c-.27,0-.43-.16-.52-.52a8.88,8.88,0,0,1-.23-1.84A39.79,39.79,0,0,0,214.07,184.29Zm1.46,3.44c.36.09.5.2.5.38s0,.07-.11.31a6.39,6.39,0,0,0-.27,1.24,11.85,11.85,0,0,1-1.85,5.38,8.81,8.81,0,0,1-3,2.57.82.82,0,0,1-.34.11.45.45,0,0,1-.4-.22,5.07,5.07,0,0,0-1.41-1.12,9,9,0,0,0,2.23-1.39q2.59-2.24,2.59-6.59a8.5,8.5,0,0,0,0-1A9.91,9.91,0,0,1,215.53,187.73Z"/><path class="cls-1" d="M230.74,184.69a.31.31,0,0,1,.22.31.81.81,0,0,1,0,.25,4.73,4.73,0,0,0-.13,1.4c0,4.39-.83,7.2-2.72,9.6-.41.5-.58.67-.76.67a.77.77,0,0,1-.31-.11,5,5,0,0,0-1.75-.65,9.2,9.2,0,0,0,2.27-3.15,13.72,13.72,0,0,0,1.06-6,14.06,14.06,0,0,0-.18-2.63A8.65,8.65,0,0,1,230.74,184.69Zm1.93,1.75a15.83,15.83,0,0,0-.16-2.34c1.94.07,2.65.22,2.65.58a.92.92,0,0,1-.09.36,2.25,2.25,0,0,0-.13.67c-.05.49-.05.49-.09,8.41a16.65,16.65,0,0,0,5.29-4.45,9,9,0,0,0,.27,2.16.77.77,0,0,1,.05.31c0,.29-.18.52-1,1.3a16,16,0,0,1-3.91,2.74,3.42,3.42,0,0,0-.85.56.7.7,0,0,1-.41.18A3.49,3.49,0,0,1,233,196c-.36-.36-.52-.63-.52-.86a.87.87,0,0,1,.07-.31,4.54,4.54,0,0,0,.16-1.66Z"/><path class="cls-1" d="M253.22,185a7.73,7.73,0,0,0,.4-1.57c1.57.56,2.52,1.1,2.52,1.44,0,.09,0,.14-.16.29a5,5,0,0,0-.9,1.39,33.35,33.35,0,0,1-2.23,4.05,23,23,0,0,1,2.23,2.12.68.68,0,0,1,.23.45c0,.18-.22.5-.72,1s-.59.59-.76.59-.18-.05-.32-.22c-1.08-1.22-1.19-1.35-2-2.14a22.27,22.27,0,0,1-5,4.68,2.3,2.3,0,0,1-1.06.52c-.18,0-.2,0-.65-.43a7.9,7.9,0,0,0-1.3-.9,17.23,17.23,0,0,0,6.34-5.35,23.76,23.76,0,0,0-2.81-2c-.36-.22-.4-.25-.4-.38s.22-.5.79-1.17c.2-.23.34-.32.49-.32a16.35,16.35,0,0,1,3.15,2.09A23.49,23.49,0,0,0,253.22,185Z"/><path class="cls-1" d="M262.13,190.23h-.4a.4.4,0,0,0-.16,0h-.16a.32.32,0,0,1-.34-.29,9.43,9.43,0,0,1-.14-1.85c1.08.11,3.57.18,7,.18,3.06,0,6.59-.05,7.15-.11h.16c.25,0,.25,0,.25,1.21,0,.79,0,.88-.29.88H275c-.83,0-1.17,0-5.4-.09a11,11,0,0,1-.38,2.77,7.33,7.33,0,0,1-3.42,4.57,2.93,2.93,0,0,1-1.06.5c-.09,0-.16,0-.31-.18A4.46,4.46,0,0,0,263,196.7c3.19-1.49,4.36-3.21,4.47-6.54C264.51,190.18,263.52,190.18,262.13,190.23Zm1.86-6.18,1,0c.92.05,1.19.05,2.38.05a48.87,48.87,0,0,0,5-.14h.09c.25,0,.31.13.31.68v.38c0,.11,0,.29,0,.5,0,.49,0,.54-.38.54l-2.77-.05c-.27,0-.72,0-1.37,0-2.3,0-3.93,0-4.5.11a.44.44,0,0,1-.14,0,.27.27,0,0,1-.31-.23,13.17,13.17,0,0,1-.14-1.94A6.73,6.73,0,0,0,264,184.06Zm10.26,1.4a7.86,7.86,0,0,0-1.33-1.82c-.11-.11-.11-.11-.11-.16s.11-.22.41-.45.4-.27.5-.27.32.14.77.63a4.75,4.75,0,0,1,1,1.35c0,.11-.05.18-.27.36-.4.34-.65.5-.79.5S274.32,185.57,274.25,185.46Zm2.54-1.35a1.1,1.1,0,0,1-.49.25c-.05,0-.11,0-.18-.16a8.46,8.46,0,0,0-1.35-1.76.26.26,0,0,1-.09-.14,2,2,0,0,1,.92-.65c.14,0,.2,0,.4.22a6.15,6.15,0,0,1,1.33,1.73C277.33,183.7,277.18,183.82,276.79,184.11Z"/><path class="cls-1" d="M285.28,192.11a18,18,0,0,1-3.62,1.89c-.18,0-.18,0-.52-.38a6.82,6.82,0,0,0-1.12-1,19.81,19.81,0,0,0,6.86-4,8.51,8.51,0,0,0,1.75-2c1,.63,1.67,1.31,1.67,1.58,0,.11-.05.16-.22.23a3.9,3.9,0,0,0-1,.72c-.38.34-1.1.94-1.91,1.55v2.88c0,1.57,0,3.17.09,3.92v.2c0,.29-.18.32-1.31.32-.72,0-.79,0-.79-.22v-.13a3.34,3.34,0,0,1,0-.36c0-.45.05-2,.05-3.75Z"/><path class="cls-1" d="M301.22,184.29c1.49,0,2.63,0,4.84-.07a6.09,6.09,0,0,0,1.31-.13.87.87,0,0,1,.31-.05c.34,0,.67.27,1.19,1a2.39,2.39,0,0,1,.63,1.22.5.5,0,0,1-.29.45,2,2,0,0,0-.7.72,18.54,18.54,0,0,1-2.59,2.81c-.47.43-.63.54-.81.54a.36.36,0,0,1-.31-.14,4.53,4.53,0,0,0-1.48-1.15,10.64,10.64,0,0,0,3.42-3.31c-9.27.07-9.27.07-10.34.25a.86.86,0,0,1-.23,0c-.27,0-.43-.16-.52-.52a9.08,9.08,0,0,1-.23-1.84A39.82,39.82,0,0,0,301.22,184.29Zm1.46,3.44c.36.09.5.2.5.38s0,.07-.11.31a6.41,6.41,0,0,0-.27,1.24,11.84,11.84,0,0,1-1.85,5.38,8.8,8.8,0,0,1-3,2.57.81.81,0,0,1-.34.11.46.46,0,0,1-.4-.22,5,5,0,0,0-1.4-1.12A9,9,0,0,0,298,195q2.59-2.24,2.59-6.59a8.06,8.06,0,0,0,0-1A9.91,9.91,0,0,1,302.67,187.73Z"/><g class="cls-2"><path class="cls-3" d="M414.2,442.54c-10.4-.34-32.84-1.63-53-50.72-2.86-7.34-4.76-14-6.66-18.29a25.19,25.19,0,0,1-6.66.27s-5.1-.82-4.15-4.42c.61-1.7,2.58-4.42,9.18-2.58a11,11,0,0,1,4.69,3.88c9.11-2.92,18.7-11.83,21.15-22.64,2.79-12.17-2.38-22.71-17.34-24-.54,0-1-.07-1.56-.07a2.45,2.45,0,0,0-2.38,1.16c-.41,1.29-4.69,14.48-16.59,48.89-11.29,32.43-29.1,32.3-40,30.19-8-1.63-18-8.36-18.43-20.06-.41-9.59,5.23-17.47,12.92-21.89a34.73,34.73,0,0,1,3.74-13.05c7.89-15.5,28.69-28.62,54-28.56,29,.14,34.74,15.09,31.82,27.67-3.94,13.39-15.84,21.28-26.11,24.27,3.13,5.3,5.1,12.78,7.28,17.54,5,11.9,22.91,50.25,48.41,50.79,6.12.14,6.26-.88,6.87-2.45a1.37,1.37,0,0,1,2.18-.54,1.51,1.51,0,0,1-.27,2.24C422.84,440.57,420.39,442.4,414.2,442.54ZM350.43,323.69c-22.51.48-34.4,8.43-42.83,18.29-4.15,4.83-6.6,11.63-7.21,18a25.11,25.11,0,0,1,14.28-.88c6.46,1.63,11.63,8.7,6.8,16.45-5.71,7.62-14.82,7.75-20.4,3-3.54-3.06-5.64-8-5.78-13.8a20.94,20.94,0,0,0-7,8.91c-2.18,5.64-3.26,22.78,13,27.74,20.13,6.12,30.05-13.8,35.56-30.67,5.51-17.07,13.46-40.8,14.55-44.4C351.58,325.25,351.58,324,350.43,323.69ZM304.87,375c7.68,5.85,13.26.82,14.75-1.63,1.29-2.11,2.65-8.43-6.12-11.7a20,20,0,0,0-13.26.2C300.11,367.54,301.61,372.51,304.87,375Zm48.68-3.4a7.15,7.15,0,0,0-2.38-2.79c-.88-.41-3.47-1-4.42,0-1.43,2.11,1.77,2.58,2.24,2.72A17,17,0,0,0,353.55,371.62Z"/><path class="cls-3" d="M404.17,376.18c-4.28,7.14-14.89,11.36-22.78,14.69.14,3,1.36,5.44,4.15,6.12,5.3,1.22,10.67-3.2,13.8-8.43,0,0,.48-1,1.16-.82s-.27,2-.27,2c-2,4.76-12,14.35-19.58,10.88-12.31-5.71-.88-27.2,10.47-33a14.69,14.69,0,0,1,6.8-1.56C403.42,366.52,407.3,370.67,404.17,376.18Zm-9.52-7.62c-6.8,3.33-11.56,12.65-12.78,17.68a18.67,18.67,0,0,0-.41,2.72,71.47,71.47,0,0,0,10.27-5c6.53-4.08,8.36-8.5,8.36-8.5C402.13,370.6,400.23,366.32,394.65,368.56Z"/><path class="cls-3" d="M432.38,394.94c0,1.7.48,2.92,1.56,2.92,2.79,0,3.74-2.52,5-4.62,0,0,.34-.54.82-.54a.73.73,0,0,1,.68.75.87.87,0,0,1-.07.41c-1.22,3.47-4.83,7.62-9.11,7.62-3.67,0-4.69-2.18-4.69-4.9A24.68,24.68,0,0,1,428,389.5h-.14c-1.7,4.08-8.23,11.56-14.28,11.56-5.51,0-8-5-8-9.18,0-10.61,11.83-25.91,20.6-25.91,1.9,0,6.66.88,6.66,8.63,2.24-6.19,4.56-7.62,7.75-7.89,0,0,1.09.07,1.09.41a.27.27,0,0,1-.14.27c-2,1.63-3.87,7.48-7.62,19.24A31.33,31.33,0,0,0,432.38,394.94ZM431.23,375c0-4.15-1.43-6.32-4.22-6.32-6.32,0-13.19,11.49-14.62,17.34a20.69,20.69,0,0,0-.68,4.9c0,3.47,1.29,6.05,5,6.05,7.62,0,13.87-13.74,14.48-20.26C431.16,376.11,431.23,375.57,431.23,375Z"/><path class="cls-3" d="M443.78,396.17a12.46,12.46,0,0,1,.75-4.15C456,358,462.68,340.21,476.42,327.9c6.19-5.51,13.33-7.62,18.36-7.62,4.15,0,6.39,1.43,6.39,2.92a2.42,2.42,0,0,1-2.31,2.24,1.56,1.56,0,0,1-1-.27,12.78,12.78,0,0,0-6.73-2c-14.35,0-27.61,26.18-32.64,41.61-3.4,9-8.57,26.93-8.91,28.08a7.58,7.58,0,0,0-.34,2.11c0,1.29.48,2.72,2.45,2.86,3.33,0,4.21-5.44,5.78-5.44a.74.74,0,0,1,.75.68.86.86,0,0,1-.07.41c-1.16,3.2-4.76,7.75-9.38,7.75a7.57,7.57,0,0,1-1.22-.14C445.07,400.59,443.78,398.89,443.78,396.17Z"/></g><g class="cls-2"><path class="cls-4" d="M790.17,116.17c-5.3,26.38-27.95,37.8-42.09,37-9.79-.54-15.5-3.81-21.08-7.21-7,6.94-13.73,6.8-16.59,6.8-3.74,0-14.75-2.45-12.51-9.45,1.36-4.22,6.05-6.73,13.6-6.94,5.17,0,10.06,2.24,15,5a61.76,61.76,0,0,0,3.88-7.62c-36.17,2.65-47.39-37.8-13.87-57.18C729.25,68.92,745,67.63,753.93,69,781.47,73.27,795,92.17,790.17,116.17Zm-65.82,28.22a51.31,51.31,0,0,0-8.43-4.22c-6.19-2.65-11.56-1.16-13.33,1.22s-.82,6.19,7.55,8.09C716.67,151.05,721.09,148.47,724.35,144.39Zm7.21-13.26c.14-.27.27-.61.41-.88,4.42-9.18,15.91-49.84,17.81-56.71a1.75,1.75,0,0,0-1.7-2.31c-.88-.07-1.77-.07-2.65-.07-38.69.82-48.48,30.46-40.46,46.78C711.5,128.82,722.24,132.08,731.56,131.13Zm25.91-58.61a2.78,2.78,0,0,0-2.58,1.7c-1.77,7.68-10.4,38.28-18,55.89,8.91-2.72,12.1-9,12.85-11.76.41-1.43,2-1.9,3.74-1.43s1.56,2,1.22,3.13c-2.38,4.83-12.78,10.74-19,12.78-.61,1.43-1.29,2.72-1.9,3.88a41.7,41.7,0,0,1-4.22,6.39c7.48,4.35,15.37,8.91,25,7.62,13-1.9,26.45-16.32,29.51-34.13C787.58,89.38,773.92,76.53,757.46,72.52Z"/><path class="cls-4" d="M792,117.94c-.82,0-.75-.48-.75-.61,0-1.29,4.42-4.28,7.48-4.28,4.28,0,5.64,2.65,5.64,5a19.72,19.72,0,0,1-1.7,6.6c-4.9,11.69-6.12,17.27-6.12,17.54a2.22,2.22,0,0,0,2.45,2.38c2.72,0,3.88-2.52,5.23-4.62a1.16,1.16,0,0,1,.82-.48.68.68,0,0,1,.68.68.86.86,0,0,1-.07.41c-1.5,3.81-5.57,7.75-9.93,7.75-3.74,0-4.83-2.24-4.83-4.49,0-3.06,5.92-16.73,7.14-20.87a15.89,15.89,0,0,0,1.16-4.9c0-1.09-.41-2.24-1.56-2.24a9.48,9.48,0,0,0-4.22,1.56A2.68,2.68,0,0,1,792,117.94ZM801,103.73a3.74,3.74,0,0,1,7.48,0,3.74,3.74,0,1,1-7.48,0Z"/><path class="cls-4" d="M819.4,149.15c0,1.22-1.5,3.33-6.32,4.15-6.25,1.09-18.7,2.38-18.7,12.65s10.54,11.29,10.47,11.29a14.14,14.14,0,0,0,2.11.14A13.69,13.69,0,0,0,820,168.94a141.81,141.81,0,0,0,6.12-16.73s3.74-12.1,4.69-15.77h-.14c-1.84,4.56-8,11.56-14,11.56s-8.5-5.37-8.5-9.59c0-10.54,11.63-25.36,20.26-25.36,1.56,0,6.87.75,6.87,8v.54c2.11-6.12,4.42-7.55,7.55-7.82,0,0,1.09,0,1.09.41,0,.07,0,.14-.14.27a14,14,0,0,0-2.86,4.9c-4.56,14.41-4.49,14.75-13.6,43.45,0,0-5.1,16.73-20.12,16.73a22.55,22.55,0,0,1-5-.61c-9.59-2.18-13.19-7.48-13.19-12.65,0-5.71,4.35-11.29,9.86-12.37,9.86-1.9,15.09-.07,20.19-5.58A1.17,1.17,0,0,1,819.4,149.15Zm14.07-26.52c0-2.92-.61-6.94-4.42-6.94-6,.2-12,10.54-13.73,16.45a18.85,18.85,0,0,0-.75,5.17c0,3.47,1.09,6.6,5.17,6.6,7.55,0,13.33-13.73,13.73-20.26Z"/><path class="cls-4" d="M845.28,117.94c-.82,0-.75-.48-.75-.61,0-1.29,4.42-4.28,7.48-4.28,4.28,0,5.64,2.65,5.64,5a19.7,19.7,0,0,1-1.7,6.6c-4.9,11.69-6.12,17.27-6.12,17.54a2.22,2.22,0,0,0,2.45,2.38c2.72,0,3.88-2.52,5.24-4.62a1.16,1.16,0,0,1,.82-.48.68.68,0,0,1,.68.68.87.87,0,0,1-.07.41c-1.5,3.81-5.58,7.75-9.93,7.75-3.74,0-4.83-2.24-4.83-4.49,0-3.06,5.92-16.73,7.14-20.87a15.9,15.9,0,0,0,1.16-4.9c0-1.09-.41-2.24-1.56-2.24a9.48,9.48,0,0,0-4.22,1.56A2.69,2.69,0,0,1,845.28,117.94Zm8.91-14.21a3.74,3.74,0,1,1,7.48,0,3.74,3.74,0,1,1-7.48,0Z"/><path class="cls-4" d="M869.89,133.44c-2,6.26-2.79,11.08-.48,11.22,2.72.2,3.94-2.58,5.24-4.62,0,0,.54-.75,1.16-.48s.34.68.2,1.09c-1.36,3.47-5.1,7.62-9.38,7.62-6.73,0-4.42-7.48-2.86-12,.68-2,2.86-8.57,5-15.3,2-5.85-.75-6.12-1-6.12-.75,0-1-.54-1-1.16a1.28,1.28,0,0,1,1.43-1.22h3.2a.57.57,0,0,0,.54-.41c1.63-4.9,2.92-8.64,2.92-8.64,2.38-6.12,4.9-7.55,8-7.82,0,0,1.7.07,1,.68-2.18,1.63-4.15,7.48-4.15,7.48s-2.58,8-2.65,8.3.07.41.27.41h8.91c.68,0,.75.68.54,1.29a1.48,1.48,0,0,1-1.56,1.09h-8.7a.52.52,0,0,0-.54.41Z"/><path class="cls-4" d="M906,141.94c0,1.7.48,2.92,1.56,2.92,2.79,0,3.74-2.52,5-4.62,0,0,.34-.54.82-.54a.73.73,0,0,1,.68.75.87.87,0,0,1-.07.41c-1.22,3.47-4.83,7.62-9.11,7.62-3.67,0-4.69-2.18-4.69-4.9a24.68,24.68,0,0,1,1.43-7.07h-.14c-1.7,4.08-8.23,11.56-14.28,11.56-5.51,0-8-5-8-9.18,0-10.61,11.83-25.91,20.6-25.91,1.9,0,6.66.88,6.66,8.64,2.24-6.19,4.56-7.62,7.75-7.89,0,0,1.09.07,1.09.41a.27.27,0,0,1-.14.27c-2,1.63-3.87,7.48-7.62,19.24A31.33,31.33,0,0,0,906,141.94ZM904.84,122c0-4.15-1.43-6.32-4.22-6.32-6.32,0-13.19,11.49-14.62,17.34a20.68,20.68,0,0,0-.68,4.9c0,3.47,1.29,6.05,5,6.05,7.62,0,13.87-13.73,14.48-20.26C904.77,123.11,904.84,122.57,904.84,122Z"/><path class="cls-4" d="M916.72,143.17a12.51,12.51,0,0,1,.75-4.15C928.89,105,935.62,87.21,949.35,74.9c6.19-5.51,13.33-7.62,18.36-7.62,4.15,0,6.39,1.43,6.39,2.92a2.42,2.42,0,0,1-2.31,2.24,1.56,1.56,0,0,1-1-.27,12.79,12.79,0,0,0-6.73-2c-14.35,0-27.6,26.18-32.64,41.61-3.4,9-8.57,26.93-8.91,28.08a7.57,7.57,0,0,0-.34,2.11c0,1.29.48,2.72,2.45,2.86,3.33,0,4.22-5.44,5.78-5.44a.74.74,0,0,1,.75.68.87.87,0,0,1-.07.41c-1.16,3.2-4.76,7.75-9.38,7.75a7.49,7.49,0,0,1-1.22-.14C918,147.59,916.72,145.89,916.72,143.17Z"/></g><circle class="cls-3" cx="457" cy="208.5" r="32"/><circle class="cls-3" cx="425" cy="164" r="55"/><circle class="cls-3" cx="338" cy="83" r="55"/><circle class="cls-3" cx="226" cy="55" r="55"/><circle class="cls-3" cx="118" cy="95" r="55"/><circle class="cls-3" cx="55" cy="192" r="55"/><circle class="cls-3" cx="83" cy="304.5" r="55"/><path class="cls-5" d="M41.73,301.15a15.57,15.57,0,0,0-.19-3.22l.91,0a10.58,10.58,0,0,1,1.17.18.21.21,0,0,1,.16.21,1.31,1.31,0,0,1-.1.42,10.58,10.58,0,0,0-.13,2.37l3.57,0a18.8,18.8,0,0,0-.18-3.31,15.29,15.29,0,0,1,1.81.18c.34,0,.43.11.43.26a1,1,0,0,1-.11.42,5.51,5.51,0,0,0-.11,1.12v1.33c1.62,0,2.22,0,2.71-.1a.58.58,0,0,1,.16,0,.21.21,0,0,1,.18.08,3.7,3.7,0,0,1,.08,1c0,.75,0,.83-.27.83l-.38,0a24.51,24.51,0,0,0-2.5,0,9.18,9.18,0,0,1-1.22,5,7.4,7.4,0,0,1-2.82,2.61,4.14,4.14,0,0,1-1.17.46c-.14,0-.16,0-.5-.37a4.13,4.13,0,0,0-1.07-.85c2.3-.83,3.5-1.78,4.24-3.33a8.47,8.47,0,0,0,.7-3.51h-1l-1.25,0-1.3,0c0,1.14,0,1.14,0,2.58v.21c0,.22,0,.3-.22.37a5.77,5.77,0,0,1-1.07.1c-.56,0-.64,0-.64-.34v-.24c.06-1.46.08-1.71.1-2.64-.83,0-2.3.11-2.69.18a.21.21,0,0,1-.1,0,.23.23,0,0,1-.24-.21,10.68,10.68,0,0,1-.19-1.84,19,19,0,0,0,2.61.11Z"/><path class="cls-5" d="M66.47,302a.84.84,0,0,1,.11.37c0,.16-.06.27-.27.56a16.65,16.65,0,0,1-3.25,3.19,24.15,24.15,0,0,1-4.88,3c-1.23.58-1.3.61-1.49.78s-.19.16-.29.16-.27-.13-.51-.48a7.12,7.12,0,0,1-.8-1.7,18.37,18.37,0,0,0,5.43-2.42,14.32,14.32,0,0,0,5.22-5.19A8.79,8.79,0,0,0,66.47,302Zm-10.66-2.69c.27-.3.38-.38.53-.38a9.36,9.36,0,0,1,2.5,1.58c.61.5.8.7.8.86a3.17,3.17,0,0,1-.67,1c-.35.4-.53.54-.66.54s-.11,0-.77-.62a13.39,13.39,0,0,0-1.67-1.33l-.67-.43a.19.19,0,0,1-.1-.14A3.19,3.19,0,0,1,55.81,299.28Z"/><path class="cls-5" d="M75,300.94a36.21,36.21,0,0,0-5.39.26.06.06,0,0,1,0,0c-.3,0-.4-.53-.45-2.18a31,31,0,0,0,4.18.16c2.15,0,4.66,0,5.06-.1a2.05,2.05,0,0,0,.67-.16.37.37,0,0,1,.18,0c.27,0,.61.26,1.12.86.3.38.37.48.37.66a.57.57,0,0,1-.16.35c-.16.19-.18.24-.53,1.36a14.85,14.85,0,0,1-5.07,7.2,7.46,7.46,0,0,1-2.11,1.3c-.18,0-.21,0-.58-.38a4.59,4.59,0,0,0-1.2-.91,12.81,12.81,0,0,0,4.87-3.73,10.8,10.8,0,0,0,2.16-4.69ZM83.61,298a1.71,1.71,0,1,1-1.71-1.71A1.69,1.69,0,0,1,83.61,298ZM81,298a.85.85,0,0,0,.85.85.86.86,0,0,0,.85-.85.85.85,0,1,0-1.7,0Z"/><path class="cls-5" d="M88.86,302.83c0,.37,0,1.1,0,1.55,0,.16,0,.32,0,.38,0,.32-.22.38-1.47.38-.48,0-.58-.06-.58-.34v-.32c.06-1.25.1-1.94.1-3.07a20.48,20.48,0,0,0-.18-3.41,12.64,12.64,0,0,1,1.94.14c.22,0,.35.16.35.35a.61.61,0,0,1,0,.22,3.53,3.53,0,0,0-.16,1.39Zm6.23-2.08a19.21,19.21,0,0,1-.45,4.9,7.64,7.64,0,0,1-3.75,4.71,2.63,2.63,0,0,1-.82.35.39.39,0,0,1-.3-.18,4.47,4.47,0,0,0-1.22-1.09,7.36,7.36,0,0,0,2.59-1.62,6,6,0,0,0,1.63-2.91,23.46,23.46,0,0,0,.35-4.48A13.13,13.13,0,0,0,93,297.9a11.26,11.26,0,0,1,2,.18c.21,0,.3.13.3.29a.84.84,0,0,1-.06.29,3.88,3.88,0,0,0-.16,1.42Z"/><path class="cls-5" d="M111,302a.84.84,0,0,1,.11.37c0,.16-.06.27-.27.56a16.66,16.66,0,0,1-3.25,3.19,24.14,24.14,0,0,1-4.88,3c-1.23.58-1.3.61-1.49.78s-.19.16-.29.16-.27-.13-.51-.48a7.13,7.13,0,0,1-.8-1.7,18.37,18.37,0,0,0,5.43-2.42,14.33,14.33,0,0,0,5.22-5.19A8.73,8.73,0,0,0,111,302Zm-10.66-2.69c.27-.3.38-.38.53-.38a9.34,9.34,0,0,1,2.5,1.58c.61.5.8.7.8.86a3.16,3.16,0,0,1-.67,1c-.35.4-.53.54-.66.54s-.11,0-.77-.62a13.39,13.39,0,0,0-1.67-1.33l-.67-.43a.19.19,0,0,1-.1-.14A3.2,3.2,0,0,1,100.35,299.28Z"/><path class="cls-5" d="M118.77,301.55c-1.1,1.47-3,3.23-3.46,3.23-.14,0-.21,0-.53-.3a8.21,8.21,0,0,0-1.18-.8,11.81,11.81,0,0,0,5.25-6.07,9,9,0,0,1,1.73.74c.22.13.3.22.3.37a.35.35,0,0,1-.19.3,4.63,4.63,0,0,0-.74.9l2.38,0a3.36,3.36,0,0,0,1.5-.19.69.69,0,0,1,.18,0c.26,0,.53.24,1,.83.3.38.38.54.38.72s0,.26-.27.48a3.92,3.92,0,0,0-.5.72,20,20,0,0,1-5.94,7,11.08,11.08,0,0,1-2.87,1.68.52.52,0,0,1-.38-.22,5.3,5.3,0,0,0-1.33-.93,18.62,18.62,0,0,0,5.57-3.86,14,14,0,0,0,2.64-3.57c.14-.27.24-.48.5-1Zm7.62-1.73c-.35.3-.56.45-.66.45s-.1,0-.38-.48a7.06,7.06,0,0,0-1-1.3c-.06-.06-.08-.1-.08-.14s.61-.58.78-.58.32.16.8.7a3.71,3.71,0,0,1,.74,1C126.58,299.63,126.53,299.69,126.39,299.82Zm.72-.82a6.81,6.81,0,0,0-1.19-1.54c-.06-.06-.08-.1-.08-.13s.08-.16.35-.35.3-.19.42-.19.59.42,1.14,1.12a1.84,1.84,0,0,1,.37.61c0,.08,0,.16-.24.3a1.65,1.65,0,0,1-.59.34C127.22,299.17,127.17,299.13,127.11,299Z"/><path class="cls-5" d="M53.08,179.11l-1.17,1a5.63,5.63,0,0,1-.75.59,10.53,10.53,0,0,0,3.28,1.07,4.39,4.39,0,0,0-1,1.57A11.1,11.1,0,0,1,48.87,181v1.15c-1.25.3-2.54.56-5.46,1.07l-.61.11-.26-1.76.27,0a12.44,12.44,0,0,0,1.57-.13v-3H42.8a12,12,0,0,1-1.58,5A8.06,8.06,0,0,0,39.84,182a7.84,7.84,0,0,0,1.15-3,38.94,38.94,0,0,0,.48-7.2,20.61,20.61,0,0,0-.08-2.32,17.29,17.29,0,0,0,2,.08h8.36a16.63,16.63,0,0,0,1.78-.06c0,.43,0,.77,0,1.36v1.2c0,.64,0,.91,0,1.34-.46,0-1.06,0-1.68,0h-.91v1h.91a9.92,9.92,0,0,0,1.49-.06v1.52c-.45,0-.94,0-1.52,0h-.88v1.2h1.36A11.32,11.32,0,0,0,54,177v1.57c-.51,0-1-.08-1.7-.08h-.69Zm-7.68-5.49v-.19h-2.3c0,1.68-.06,2.72-.14,3.63h2.45v-1.2h-.58c-.58,0-.93,0-1.31,0v-1.52a9.38,9.38,0,0,0,1.31.06h.58Zm6.5-1.5V171h-8.8v1.07ZM46,178.46v2.79c1-.14,1-.14,2.61-.48A6.5,6.5,0,0,1,47,178.46Zm3.36-4v-1H47v1Zm0,2.61v-1.2H47v1.2Zm-.64,1.41a4,4,0,0,0,1.2,1.44,7.68,7.68,0,0,0,1.5-1.44Z"/><path class="cls-5" d="M60.94,176.59a14.71,14.71,0,0,1-3.15,5.51,4.67,4.67,0,0,0-1.47-1.15A10.64,10.64,0,0,0,59.25,176Zm-2.51-1.5a15.38,15.38,0,0,0-1.84.1v-1.84a11.5,11.5,0,0,0,1.87.1H68.2a14.6,14.6,0,0,0,1.87-.1v1.84a15.35,15.35,0,0,0-1.84-.1H64.36v6.19c0,.88-.11,1.23-.51,1.49a3.25,3.25,0,0,1-1.82.29c-.64,0-1.22,0-1.74-.06a4.5,4.5,0,0,0-.43-1.71,13.09,13.09,0,0,0,1.94.18c.72,0,.79,0,.79-.38v-6Zm10.15-3.52a16.11,16.11,0,0,0-1.87-.1H59.83a17.51,17.51,0,0,0-1.82.1v-1.75a15.06,15.06,0,0,0,1.86.1h6.87a15.72,15.72,0,0,0,1.84-.1ZM67.4,176a12.29,12.29,0,0,0,1.7,3.14,11.45,11.45,0,0,0,1.46,1.63,9.75,9.75,0,0,0-1.41,1.31,17,17,0,0,1-3.31-5.49Z"/><path class="cls-5" d="M9.77,198c-.48.38-.74.54-.87.54s-.14,0-.45-.32a4.91,4.91,0,0,0-1.14-.82A11.43,11.43,0,0,0,11.05,194a9.42,9.42,0,0,0,1.42-2.75c1.7.63,2.1.83,2.1,1.06s0,.14-.21.26a4.68,4.68,0,0,0-.8,1.06h.29l1.06,0a6.37,6.37,0,0,0,2.45-.22.66.66,0,0,1,.27-.06c.22,0,.45.18.94.77s.51.64.51.82,0,.22-.22.4a4.2,4.2,0,0,0-.56.9,20,20,0,0,1-4.43,5.87c-1.42,1.3-3.68,2.82-4.18,2.82a.56.56,0,0,1-.4-.19,4.25,4.25,0,0,0-1.34-.94A19.39,19.39,0,0,0,13.39,200l-.46-.48a11.31,11.31,0,0,0-1.52-1.26c-.1-.08-.13-.13-.13-.19s.21-.32.77-.9c.27-.27.34-.32.43-.32a7.37,7.37,0,0,1,2.16,1.74,14,14,0,0,0,2-3.46c-1.82,0-1.82,0-4.16,0A17.18,17.18,0,0,1,9.77,198Z"/><path class="cls-5" d="M23.87,199.34a17,17,0,0,0-1-1.9c-.32-.46-.37-.54-.37-.64s.18-.29.61-.53.56-.32.66-.3.35.26.74.86a7.93,7.93,0,0,1,1,1.9c0,.11-.11.22-.43.42a4.33,4.33,0,0,1-1,.46C24,199.62,23.95,199.55,23.87,199.34Zm8.71-2.72a.34.34,0,0,1-.1.21,3.73,3.73,0,0,0-.46.82,15.05,15.05,0,0,1-3.18,5,9.52,9.52,0,0,1-2.77,2,.36.36,0,0,1-.27-.13,5.46,5.46,0,0,0-1.25-.93A10.56,10.56,0,0,0,29.42,199a9.25,9.25,0,0,0,1.1-3.36C31.86,196,32.58,196.38,32.58,196.62ZM28.46,198a3.74,3.74,0,0,1-1.18.72c-.1,0-.16,0-.16.06l-.1,0c-.08,0-.16-.08-.21-.24a13.15,13.15,0,0,0-1.17-2.42s0,0,0-.16.13-.21.61-.46.62-.34.72-.34.11,0,.22.14a14.34,14.34,0,0,1,1,1.87,3.16,3.16,0,0,0,.21.53.2.2,0,0,1,.06.11l0,.1Z"/><path class="cls-5" d="M41.88,197.07c0-.37,0-.59,0-1.18,0-.14,0-.58,0-1.31a34.71,34.71,0,0,1-3.54.54.36.36,0,0,1-.35-.27,6.32,6.32,0,0,0-.5-.9s-.13-.16-.38-.46a21.2,21.2,0,0,0,6.19-1,9.25,9.25,0,0,0,2.21-1,4.06,4.06,0,0,1,1.28,1.63c0,.14-.1.21-.3.24a3.93,3.93,0,0,0-.9.21c-.83.27-1,.32-1.79.53,0,.62,0,.72,0,1.57v1.34c2.38,0,4.15-.08,4.66-.13l.16,0c.21,0,.26.16.26.85,0,1,0,1.06-.26,1.06l-.72,0c-.67,0-1.62-.06-4.21-.06a9.28,9.28,0,0,1-1.39,4.07,10,10,0,0,1-1.86,2,.43.43,0,0,1-.24.1c-.14,0-.14,0-.67-.32a6.15,6.15,0,0,0-1.31-.58,6.71,6.71,0,0,0,2.56-2.48,8,8,0,0,0,1-2.8,38.35,38.35,0,0,0-4.95.21l-.29,0c-.14,0-.21,0-.24-.16a8.71,8.71,0,0,1-.22-1.84,36.45,36.45,0,0,0,3.78.11h.45Z"/><path class="cls-5" d="M60.35,198.24a7.9,7.9,0,0,1-1.23,3.62,2.14,2.14,0,0,0,1.84.82l-.13,1.68h-.35A3,3,0,0,1,58,203.28a4.51,4.51,0,0,1-1.2.86,4.6,4.6,0,0,1-1.94.4,3.73,3.73,0,0,1-2.83-1,3.32,3.32,0,0,1-1-2.51,3.53,3.53,0,0,1,1-2.53,6.57,6.57,0,0,1,1.59-1.23,4.51,4.51,0,0,1-.93-2.74,2.58,2.58,0,0,1,2.69-2.62,2.52,2.52,0,0,1,2.69,2.54,3,3,0,0,1-.48,1.74,6,6,0,0,1-1.86,1.54A23.62,23.62,0,0,0,58,200.8a7.39,7.39,0,0,0,.64-2.88Zm-6.95,1.12a2.56,2.56,0,0,0-.56,1.63A2,2,0,0,0,55,203a2.49,2.49,0,0,0,2-.86,24.55,24.55,0,0,1-2.58-3.63A4.23,4.23,0,0,0,53.41,199.36Zm3-4.82c0-.74-.35-1.17-1-1.17s-1,.51-1,1.25a2.23,2.23,0,0,0,.24,1,5.49,5.49,0,0,0,.43.8C56,195.79,56.37,195.33,56.37,194.54Z"/><path class="cls-5" d="M67.14,199.84c0,1,0,3.59.08,4.34v.08c0,.14,0,.26-.11.3a3.65,3.65,0,0,1-1.34.18c-.51,0-.61,0-.61-.37v-.06c0-.42.08-5,.08-6.93a40.21,40.21,0,0,0-.18-5.65,16.27,16.27,0,0,1,2.13.22c.16,0,.24.13.24.26a1.22,1.22,0,0,1-.06.35,2.65,2.65,0,0,0-.11.67s0,1-.08,2.88a17,17,0,0,1,1.79.56,25.07,25.07,0,0,1,3.94,1.73c.13.1.19.18.19.27a5.93,5.93,0,0,1-.54,1.41c-.13.27-.21.35-.3.35a.47.47,0,0,1-.26-.11A18,18,0,0,0,67.14,198Z"/><path class="cls-5" d="M77,197.78l-.13,0c-.35,0-.5-.54-.61-2.19a33.9,33.9,0,0,0,4.87.18c3.2,0,4.07,0,4.37,0a2.06,2.06,0,0,0,.61-.13.75.75,0,0,1,.3-.06.93.93,0,0,1,.69.38,2.8,2.8,0,0,1,.72,1.14c0,.18-.08.3-.27.51s-.21.26-.51.94a10.55,10.55,0,0,1-4.16,5,9.4,9.4,0,0,1-2.58,1.2c-.22,0-.35-.1-.62-.42a2.84,2.84,0,0,0-1.06-.9,11.63,11.63,0,0,0,4.67-2.59,8.17,8.17,0,0,0,2-3.38C79.23,197.52,78.11,197.57,77,197.78Zm5.23-5.68a33.77,33.77,0,0,0,3.51-.13h.19c.21,0,.29.16.3.64,0,.19,0,.37,0,.53v.06c0,.58-.06.74-.27.74l-.34,0c-.3,0-1.5-.06-2-.06-2.4,0-4.11,0-5.06.11h-.13c-.42,0-.48-.24-.58-2A34.62,34.62,0,0,0,82.2,192.09Z"/><path class="cls-5" d="M98.62,199.58c0,2,0,3.5.1,4.59v.11c0,.18,0,.24-.21.26a9.79,9.79,0,0,1-1.41.08c-.5,0-.54,0-.54-.3v-.08c.06-.82.1-2.64.1-4.66v-2.11a25.86,25.86,0,0,1-2.54,1.5,7.15,7.15,0,0,1-1.92.85.41.41,0,0,1-.34-.18,6,6,0,0,0-1.35-1.17,22.06,22.06,0,0,0,4.64-2.21,21.79,21.79,0,0,0,4.64-3.87,4.16,4.16,0,0,0,.53-.75c1,.67,1.73,1.34,1.73,1.65,0,.1-.06.18-.26.26a4.21,4.21,0,0,0-1.15.86c-.71.62-1.39,1.18-2,1.65Z"/><path class="cls-5" d="M92.18,95.62c0,.08,0,.13-.16.27a2,2,0,0,0-.34.61c-.7,1.55-2,3.27-2.43,3.27-.1,0-.13,0-.46-.3a4.35,4.35,0,0,0-1.07-.59,7,7,0,0,0,2.61-4.18C91.61,95.11,92.18,95.4,92.18,95.62Zm1.49-2.35a46.59,46.59,0,0,0-4.95.14h0a.32.32,0,0,1-.3-.26,6.48,6.48,0,0,1-.16-1.68,33,33,0,0,0,4.83.19h.61v-.43A11.66,11.66,0,0,0,93.49,89a10,10,0,0,1,2.16.24.24.24,0,0,1,.18.26.86.86,0,0,1-.11.35,3.17,3.17,0,0,0-.19,1.34v.45h1c1,0,3.09-.08,3.73-.13l.18,0a.18.18,0,0,1,.19.16c0,.08,0,.54,0,.75,0,.85,0,.9-.34.9l-1.17,0c-.56,0-.77,0-3.65,0v3c0,1.6,0,1.6,0,3,0,.19,0,.34,0,.43,0,1.55-.56,2.06-2.23,2.06a4.55,4.55,0,0,1-1.34-.13c-.11,0-.14-.13-.19-.37a5.91,5.91,0,0,0-.5-1.5,6.23,6.23,0,0,0,1.68.22c.58,0,.69-.14.69-.86Zm6.51,6.24a.37.37,0,0,1-.22.11c-.29,0-.86-.66-1.57-1.76a11.37,11.37,0,0,1-1.25-2.5c0-.13.11-.24.37-.37a4.2,4.2,0,0,1,1.06-.43c.13,0,.19.08.29.27A12.36,12.36,0,0,0,100,97a8,8,0,0,0,1.47,1.65A4.11,4.11,0,0,0,100.18,99.51Zm.93-10.34a1.71,1.71,0,1,1-1.71-1.71A1.69,1.69,0,0,1,101.11,89.17Zm-2.56,0a.85.85,0,0,0,.85.85.86.86,0,0,0,.85-.85.85.85,0,1,0-1.7,0Z"/><path class="cls-5" d="M114.84,98.22a7,7,0,0,1,1.65,1.78c0,.14-.21.4-.71.88s-.53.46-.64.46a.39.39,0,0,1-.24-.11l-.91-1a21.06,21.06,0,0,0-3.47-3,24.82,24.82,0,0,1-3.63,3.09,8,8,0,0,1-2,1.1c-.16,0-.18,0-.56-.45a6.31,6.31,0,0,0-1-.86,17.18,17.18,0,0,0,4.72-3.15,19.54,19.54,0,0,0,4-5.11,60.2,60.2,0,0,0-6.29.13l-.26,0a.28.28,0,0,1-.3-.26,11.13,11.13,0,0,1-.11-1.84,43.43,43.43,0,0,0,5.11.21c.94,0,1.94,0,2.46-.1a1.83,1.83,0,0,0,.58-.14.35.35,0,0,1,.19,0c.27,0,.56.22.94.74a2.28,2.28,0,0,1,.48.94c0,.19,0,.26-.46.64a5,5,0,0,0-.86,1.2,23.17,23.17,0,0,1-1.83,2.54A21.93,21.93,0,0,1,114.84,98.22Z"/><path class="cls-5" d="M121.57,95c-.48.38-.74.54-.86.54s-.14,0-.45-.32a4.91,4.91,0,0,0-1.14-.82A11.43,11.43,0,0,0,122.86,91a9.45,9.45,0,0,0,1.42-2.75c1.7.62,2.1.83,2.1,1.06s0,.14-.21.26a4.68,4.68,0,0,0-.8,1.06h.29l1.06,0a6.38,6.38,0,0,0,2.45-.22.65.65,0,0,1,.27-.06c.22,0,.45.18.94.77s.51.64.51.82,0,.22-.22.4a4.25,4.25,0,0,0-.56.9,20,20,0,0,1-4.43,5.87c-1.42,1.3-3.68,2.82-4.18,2.82a.56.56,0,0,1-.4-.19,4.23,4.23,0,0,0-1.34-.94A19.39,19.39,0,0,0,125.19,97l-.46-.48a11.34,11.34,0,0,0-1.52-1.26c-.1-.08-.13-.13-.13-.19s.21-.32.77-.9c.27-.27.34-.32.43-.32a7.36,7.36,0,0,1,2.16,1.74,14,14,0,0,0,2-3.46c-1.83,0-1.83,0-4.16,0A17.18,17.18,0,0,1,121.57,95Z"/><path class="cls-5" d="M139.28,94.28c2.93,0,4.61,0,6.23-.14h.21c.48,0,.48,0,.48,1.3,0,.66,0,.77-.32.77h-.06c-1.06,0-1.65,0-6.27,0-1.7,0-2.54,0-4,.06h-.46a4.19,4.19,0,0,0-.9.06l-.18,0a.29.29,0,0,1-.32-.22,10.19,10.19,0,0,1-.16-2A56.11,56.11,0,0,0,139.28,94.28Z"/><path class="cls-5" d="M212.3,48.37a4.48,4.48,0,0,1,3,.83,3.09,3.09,0,0,1,1,2.32,2.77,2.77,0,0,1-1.71,2.69,2.93,2.93,0,0,1,2,2.9A3.66,3.66,0,0,1,215.31,60a4.71,4.71,0,0,1-2.88.86h-4.74V48.37Zm-2.61,5.07h1.86a4,4,0,0,0,1.92-.35,1.46,1.46,0,0,0,.7-1.38c0-1.2-.7-1.65-2.62-1.65h-1.86Zm0,5.68h2a3.8,3.8,0,0,0,2-.42,1.8,1.8,0,0,0,.75-1.62c0-1.38-.88-2-2.91-2h-1.86Z"/><path class="cls-5" d="M226.87,52.55a4.77,4.77,0,0,0-.59-1.58,2.19,2.19,0,0,0-1.87-1,2.39,2.39,0,0,0-2,.93,5.75,5.75,0,0,0-.93,3.67c0,3.07,1,4.66,3.06,4.66a2.36,2.36,0,0,0,2-.88,2.47,2.47,0,0,0,.56-1.26V56h-2.74V54.4H229v6.43h-1.87v-.46c0-.1,0-.38,0-.85a2.74,2.74,0,0,1-1.23,1.15,3.93,3.93,0,0,1-1.76.37c-3,0-4.85-2.48-4.85-6.42,0-4.1,1.87-6.47,5.11-6.47a4.24,4.24,0,0,1,3.41,1.41A5.2,5.2,0,0,1,228.93,52Z"/><path class="cls-5" d="M243.85,60.84h-1.92V56.24c0-1.42,0-3.23.08-6h-.22c-.26,1.2-.8,3.68-1,4.34l-1.5,6.23H237l-1.57-6.47c-.29-1.15-.5-2.1-.9-4.1h-.24c.08,4.21.1,5.38.1,6v4.59h-1.91V48.37h3.2L237.51,56c.18.74.4,1.94.54,2.93h.22c.1-.5.1-.5.24-1.39.08-.45.27-1.36.34-1.66l1.73-7.51h3.27Z"/><path class="cls-5" d="M321.74,83.8a8.38,8.38,0,0,0-.83,1.34,11.48,11.48,0,0,1-1.41-1.82,10.36,10.36,0,0,1-1.38,2.08,5.2,5.2,0,0,0-.94-.9,21.23,21.23,0,0,1-.48,3.38,10.17,10.17,0,0,1-1.07,2.79,7.89,7.89,0,0,0-1.34-1.39c1-1.62,1.36-4,1.36-9.16,0-.3,0-.62,0-.85a12,12,0,0,0-.06-1.44,17.4,17.4,0,0,0,1.84.08h3.76v-.43a3.78,3.78,0,0,0-.08-.88h1.84a3.55,3.55,0,0,0-.08.9v.42h3.84a15.24,15.24,0,0,0,1.84-.1v1.71a14.34,14.34,0,0,0-1.63-.08h-9.59c0,2.15,0,3.35-.11,4.72a5.84,5.84,0,0,0,1.26-2,7.82,7.82,0,0,0,.51-2.3l1.55.19c-.22.91-.37,1.47-.46,1.78a5.92,5.92,0,0,0,1.68,1.94V81.34a8.48,8.48,0,0,0-.08-1.52h1.76a10.43,10.43,0,0,0-.06,1.52v2.83a6.65,6.65,0,0,0,1.35-2.27,6.43,6.43,0,0,0,.48-2.06l1.6.19-.29,1.07c-.06.27-.13.48-.22.77A5.9,5.9,0,0,0,328.53,84a5.59,5.59,0,0,0-.91,1.38,8.15,8.15,0,0,1-1.9-2,8.55,8.55,0,0,1-1.31,2,7.79,7.79,0,0,0-1-.91V85.8h3a10.85,10.85,0,0,0,1.43-.06v1.57a10.17,10.17,0,0,0-1.43-.06h-3v1.58h3.76a9.74,9.74,0,0,0,1.52-.08v1.68a15.37,15.37,0,0,0-1.83-.1h-8.18a15.75,15.75,0,0,0-1.79.1V88.76a11,11,0,0,0,1.5.06h3.39V87.24h-2.58a7.63,7.63,0,0,0-1.39.06V85.74a9.71,9.71,0,0,0,1.39.06h2.58Z"/><path class="cls-5" d="M330.75,79.18a6.39,6.39,0,0,0,1.23.08h3a8.26,8.26,0,0,0,1.23-.06v1.57a9.75,9.75,0,0,0-1.17,0H332a8.84,8.84,0,0,0-1.23.06Zm10.5,3.73a4.89,4.89,0,0,0-.06.86,5.24,5.24,0,0,0,1.06,3.51,6.81,6.81,0,0,0,2.93,2,6.82,6.82,0,0,0-.88,1.63,7.79,7.79,0,0,1-3.83-3.83A6.17,6.17,0,0,1,336.58,91a5.88,5.88,0,0,0-.74-1.39c0,.48,0,.7.06,1h-1.54V90h-1.54v.8h-1.57a14.7,14.7,0,0,0,.08-1.49V86.91a9.5,9.5,0,0,0-.06-1.18,8.82,8.82,0,0,0,1,0h2.64a5.78,5.78,0,0,0,.91,0c0,.26,0,.54,0,1.1v2.61a5.47,5.47,0,0,0,1.19-.51c1.81-1,2.56-2.5,2.56-5.09a7.33,7.33,0,0,0,0-.93ZM331.36,77a8.15,8.15,0,0,0,1.25.06h2a8.3,8.3,0,0,0,1.25-.06V78.5c-.45,0-.69,0-1.25,0h-2c-.53,0-.88,0-1.25,0Zm0,4.43a7.24,7.24,0,0,0,1,0h2.51a6.28,6.28,0,0,0,.95,0V82.9a7.58,7.58,0,0,0-.95,0h-2.51a7.76,7.76,0,0,0-1,0Zm0,2.16a7.31,7.31,0,0,0,1,0h2.51a6.49,6.49,0,0,0,.95,0v1.44a7.32,7.32,0,0,0-1,0h-2.5a7.53,7.53,0,0,0-1,0Zm1.44,5h1.59V87H332.8Zm8.47-11.92a5.67,5.67,0,0,0-.06.9,6.06,6.06,0,0,0,.38,2.19A4.29,4.29,0,0,0,343,81.56a6.49,6.49,0,0,0,2,1,6.82,6.82,0,0,0-.85,1.52,7.52,7.52,0,0,1-2.61-1.89,5.11,5.11,0,0,1-1.07-1.63,5.66,5.66,0,0,1-1.06,1.78A6.72,6.72,0,0,1,336.84,84a5.07,5.07,0,0,0-.9-1.39,4.92,4.92,0,0,0,3-2.1,5.41,5.41,0,0,0,.67-3,7.51,7.51,0,0,0,0-.85Zm-2.61,7.84a9.42,9.42,0,0,1-1.09,2.71l-1.42-.64a5.82,5.82,0,0,0,1-2.53Zm.13-6.77a9.69,9.69,0,0,1-1,2.66l-1.44-.58a5.92,5.92,0,0,0,.93-2.43Zm5.94,0A12.54,12.54,0,0,1,343,80.5a4.66,4.66,0,0,0-1.31-.8,7.51,7.51,0,0,0,1.54-2.43Zm0,6.71a10.8,10.8,0,0,1-1.57,2.59,4.87,4.87,0,0,0-1.3-.8,7.56,7.56,0,0,0,1.39-2.4Z"/><path class="cls-5" d="M350.11,81.67A16.7,16.7,0,0,1,347.65,83a8.13,8.13,0,0,0-.9-1.58,14.23,14.23,0,0,0,3.86-2.13A10.33,10.33,0,0,0,353,76.69h1.81a9.48,9.48,0,0,0,2.61,2.56,15.66,15.66,0,0,0,4,2.08,7,7,0,0,0-.86,1.73,16.26,16.26,0,0,1-2.61-1.41v1.2a11.28,11.28,0,0,0-1.38-.06h-5.14a11.73,11.73,0,0,0-1.31.06Zm-.85,4a13.39,13.39,0,0,0-1.81.1V83.95c.48,0,1.09.08,1.81.08h9.56c.77,0,1.3,0,1.81-.08v1.78a13.71,13.71,0,0,0-1.81-.1h-5.27a18.52,18.52,0,0,1-1.6,3c2.66-.14,2.66-.14,4.87-.38-.5-.54-.77-.83-1.62-1.7l1.52-.67a33.34,33.34,0,0,1,3.55,4.08l-1.49,1c-.43-.66-.56-.85-.91-1.33-1.28.16-2.19.27-2.77.32-1.6.16-4.51.43-5.17.48a15,15,0,0,0-2,.21l-.24-1.87c.46,0,.66,0,.87,0s.59,0,1.38-.06a16.53,16.53,0,0,0,1.63-3.07Zm7.28-4.43.67,0a12,12,0,0,1-3.22-3,12.86,12.86,0,0,1-3.19,3l.63,0Z"/><path class="cls-5" d="M396.75,153.52h-.35a.35.35,0,0,0-.14,0h-.14a.28.28,0,0,1-.3-.26,8.44,8.44,0,0,1-.13-1.65c1,.1,3.17.16,6.19.16,2.72,0,5.86,0,6.35-.1h.14c.22,0,.22,0,.22,1.07,0,.7,0,.78-.26.78h-.11c-.74,0-1,0-4.8-.08a9.72,9.72,0,0,1-.34,2.47,6.51,6.51,0,0,1-3,4.07,2.6,2.6,0,0,1-.94.45c-.08,0-.14,0-.27-.16a4,4,0,0,0-1.34-1c2.83-1.33,3.87-2.85,4-5.81C398.86,153.47,398,153.47,396.75,153.52ZM398.4,148l.87,0c.82,0,1.06,0,2.11,0a43.31,43.31,0,0,0,4.43-.13h.08c.22,0,.27.11.27.61v.34c0,.1,0,.26,0,.45,0,.43,0,.48-.34.48l-2.46,0c-.24,0-.64,0-1.22,0-2,0-3.49,0-4,.1a.4.4,0,0,1-.13,0,.24.24,0,0,1-.27-.21,11.53,11.53,0,0,1-.13-1.73A6.06,6.06,0,0,0,398.4,148Zm9.12,1.25a7,7,0,0,0-1.18-1.62c-.1-.1-.1-.1-.1-.14s.1-.19.37-.4.35-.24.45-.24.29.13.69.56a4.22,4.22,0,0,1,.88,1.2c0,.1,0,.16-.24.32-.35.3-.58.45-.7.45S407.59,149.37,407.52,149.27Zm2.26-1.2a1,1,0,0,1-.43.22s-.1,0-.16-.14a7.56,7.56,0,0,0-1.2-1.57.23.23,0,0,1-.08-.13,1.81,1.81,0,0,1,.82-.58c.13,0,.18,0,.35.19a5.46,5.46,0,0,1,1.18,1.54C410.26,147.7,410.13,147.82,409.78,148.07Z"/><path class="cls-5" d="M415.71,154.12c-.22.35-.29.42-.42.42s-.11,0-.8-.46a10.61,10.61,0,0,0-2.42-1.1c-.26-.1-.34-.16-.34-.27a2.91,2.91,0,0,1,.38-.78c.06-.13.13-.22.16-.3.18-.32.26-.42.38-.42a10.73,10.73,0,0,1,2.34.86,13,13,0,0,1,1.22.69.3.3,0,0,1,.08.19A3.9,3.9,0,0,1,415.71,154.12ZM424,152.3a.9.9,0,0,1,.08.35c0,.21-.08.34-.38.67a23.08,23.08,0,0,1-4.32,3.78,27,27,0,0,1-4.54,2.45,2.33,2.33,0,0,0-.79.43c-.14.11-.19.14-.27.14-.3,0-.85-.88-1.33-2.14a16,16,0,0,0,5.23-2.15,22.52,22.52,0,0,0,3.52-2.66,15.51,15.51,0,0,0,2.31-2.72A6.08,6.08,0,0,0,424,152.3ZM417.25,151c-.21.26-.29.32-.4.32a.35.35,0,0,1-.24-.13,10,10,0,0,0-3-1.87c-.16-.06-.22-.13-.22-.22a.42.42,0,0,1,.1-.24c.77-1.17.8-1.22,1-1.22a9.05,9.05,0,0,1,2.56,1.25c.77.51.94.66.94.82A4,4,0,0,1,417.25,151Zm5.3-1.06a7.14,7.14,0,0,0-1.18-1.62c-.08-.08-.1-.11-.1-.14s.1-.21.37-.4.35-.24.45-.24.29.13.69.56a4.33,4.33,0,0,1,.88,1.22c0,.18-.72.75-.94.75C422.65,150.06,422.61,150,422.55,149.93Zm2.24-1.2a1.08,1.08,0,0,1-.43.22s-.08,0-.16-.14a7.94,7.94,0,0,0-1.2-1.57.17.17,0,0,1-.08-.11c0-.14.64-.59.83-.59s.35.18.67.53a4.23,4.23,0,0,1,.85,1.18C425.27,148.36,425.14,148.47,424.79,148.73Z"/><path class="cls-5" d="M429.55,153.45c-.48.38-.74.54-.87.54s-.14,0-.45-.32a4.94,4.94,0,0,0-1.14-.82,11.42,11.42,0,0,0,3.73-3.36,9.43,9.43,0,0,0,1.42-2.75c1.7.62,2.1.83,2.1,1.06s0,.14-.21.26a4.68,4.68,0,0,0-.8,1.06h.29l1.06,0a6.38,6.38,0,0,0,2.45-.22.65.65,0,0,1,.27-.06c.22,0,.45.18.94.77s.51.64.51.82,0,.22-.22.4a4.2,4.2,0,0,0-.56.9,20,20,0,0,1-4.43,5.87c-1.42,1.3-3.68,2.82-4.18,2.82a.56.56,0,0,1-.4-.19,4.23,4.23,0,0,0-1.34-.94,19.39,19.39,0,0,0,5.44-3.79l-.46-.48a11.32,11.32,0,0,0-1.52-1.26c-.1-.08-.13-.13-.13-.19s.21-.32.77-.9c.27-.27.34-.32.43-.32a7.37,7.37,0,0,1,2.16,1.74,14,14,0,0,0,2-3.46c-1.82,0-1.82,0-4.16,0A17.22,17.22,0,0,1,429.55,153.45Z"/><path class="cls-5" d="M445.14,148.59a.27.27,0,0,1,.19.27.71.71,0,0,1,0,.22,4.24,4.24,0,0,0-.11,1.25c0,3.91-.74,6.4-2.42,8.53-.37.45-.51.59-.67.59a.68.68,0,0,1-.27-.1,4.46,4.46,0,0,0-1.55-.58,8.19,8.19,0,0,0,2-2.8,12.19,12.19,0,0,0,.94-5.31,12.55,12.55,0,0,0-.16-2.34A7.65,7.65,0,0,1,445.14,148.59Zm1.71,1.55a13.92,13.92,0,0,0-.14-2.08c1.73.06,2.35.19,2.35.51a.81.81,0,0,1-.08.32,2,2,0,0,0-.11.59c0,.43,0,.43-.08,7.48a14.8,14.8,0,0,0,4.71-4,8,8,0,0,0,.24,1.92.67.67,0,0,1,0,.27c0,.26-.16.46-.9,1.15a14.24,14.24,0,0,1-3.47,2.43,3.05,3.05,0,0,0-.75.5.62.62,0,0,1-.37.16,3.09,3.09,0,0,1-1.19-.78c-.32-.32-.46-.56-.46-.77a.81.81,0,0,1,.06-.27,4,4,0,0,0,.14-1.47Z"/><path class="cls-5" d="M391.14,172.65a15.66,15.66,0,0,0-.19-3.22l.91,0a10.56,10.56,0,0,1,1.17.18.21.21,0,0,1,.16.21,1.32,1.32,0,0,1-.1.42,10.62,10.62,0,0,0-.13,2.37l3.57,0a18.9,18.9,0,0,0-.18-3.31,15.25,15.25,0,0,1,1.81.18c.34,0,.43.11.43.26a1,1,0,0,1-.11.42,5.48,5.48,0,0,0-.11,1.12v1.33c1.62,0,2.23,0,2.71-.1l.16,0a.21.21,0,0,1,.18.08,3.74,3.74,0,0,1,.08,1c0,.75,0,.83-.27.83l-.38,0a24.5,24.5,0,0,0-2.5,0,9.16,9.16,0,0,1-1.22,5,7.39,7.39,0,0,1-2.82,2.61,4.13,4.13,0,0,1-1.17.46c-.14,0-.16,0-.5-.37a4.13,4.13,0,0,0-1.07-.85c2.31-.83,3.5-1.78,4.24-3.33a8.45,8.45,0,0,0,.71-3.51h-1l-1.25,0-1.3,0c0,1.14,0,1.14,0,2.58v.21c0,.22,0,.3-.22.37a5.83,5.83,0,0,1-1.07.1c-.56,0-.64,0-.64-.34V177c.06-1.46.08-1.71.1-2.64-.83,0-2.3.11-2.69.18a.2.2,0,0,1-.1,0,.23.23,0,0,1-.24-.21,10.59,10.59,0,0,1-.19-1.84,18.86,18.86,0,0,0,2.61.11Z"/><path class="cls-5" d="M411.46,177.08c0,2,0,3.51.1,4.59v.11c0,.18,0,.24-.21.26a9.82,9.82,0,0,1-1.41.08c-.5,0-.54,0-.54-.3v-.08c.06-.82.1-2.64.1-4.66V175a26.07,26.07,0,0,1-2.54,1.5,7.14,7.14,0,0,1-1.92.85.42.42,0,0,1-.34-.18,6,6,0,0,0-1.34-1.17,22.11,22.11,0,0,0,4.64-2.21,21.8,21.8,0,0,0,4.64-3.87,4.16,4.16,0,0,0,.53-.75c1,.67,1.73,1.34,1.73,1.65,0,.1-.06.18-.26.26a4.2,4.2,0,0,0-1.15.86c-.71.62-1.39,1.18-2,1.65Z"/><path class="cls-5" d="M423.13,177.24a24,24,0,0,1-3,1.52,6.8,6.8,0,0,1-1.28.46.34.34,0,0,1-.29-.14,4.9,4.9,0,0,0-1.3-1.12,23.56,23.56,0,0,0,4.15-1.71,16.85,16.85,0,0,0,4.56-3.31,50,50,0,0,0-6.42.14l-.11,0c-.13,0-.18-.06-.21-.26a9.15,9.15,0,0,1-.11-1.6,35.94,35.94,0,0,0,4,.21v-.67A14.82,14.82,0,0,0,423,169a9.13,9.13,0,0,1,1.91.14c.22,0,.34.14.34.3a.43.43,0,0,1-.06.21,3,3,0,0,0-.16,1.1v.66a5.92,5.92,0,0,0,2.37-.22.23.23,0,0,1,.11,0c.21,0,.43.18.75.54s.54.72.54.9-.08.26-.29.4a11.25,11.25,0,0,0-1.23,1A22.65,22.65,0,0,1,425,176v3.39c0,.5,0,1.63,0,2s0,.42,0,.48V182a.19.19,0,0,1-.1.19,3.7,3.7,0,0,1-1.06.11h-.11c-.7,0-.74,0-.75-.22s0-.16,0-.75,0-1.3,0-2.24Zm3.47-.9c.37-.5.51-.64.64-.64a3.12,3.12,0,0,1,.9.35,12.53,12.53,0,0,1,2.51,1.58c.14.11.18.18.18.24s-.11.35-.56,1c-.26.34-.4.46-.54.46a.36.36,0,0,1-.24-.11,13.57,13.57,0,0,0-3-2c-.19-.06-.24-.11-.24-.21A1.68,1.68,0,0,1,426.61,176.35Z"/><path class="cls-5" d="M438.82,174.78c2.93,0,4.61,0,6.23-.14h.21c.48,0,.48,0,.48,1.3,0,.66,0,.77-.32.77h-.06c-1.06,0-1.65,0-6.28,0-1.7,0-2.54,0-4,.06h-.46a4.19,4.19,0,0,0-.9.06l-.18,0a.29.29,0,0,1-.32-.22,10.19,10.19,0,0,1-.16-2A56.11,56.11,0,0,0,438.82,174.78Z"/><path class="cls-5" d="M452.81,176.12c-.22.35-.29.42-.42.42s-.11,0-.8-.46a10.66,10.66,0,0,0-2.42-1.1c-.26-.1-.34-.16-.34-.27a3,3,0,0,1,.38-.78c.06-.13.13-.22.16-.3.18-.32.26-.42.38-.42a10.72,10.72,0,0,1,2.34.86,13.12,13.12,0,0,1,1.22.69.3.3,0,0,1,.08.19A3.93,3.93,0,0,1,452.81,176.12Zm8.24-1.82a.88.88,0,0,1,.08.35c0,.21-.08.34-.38.67a23.11,23.11,0,0,1-4.32,3.78,27,27,0,0,1-4.55,2.45,2.32,2.32,0,0,0-.78.43c-.14.11-.19.14-.27.14-.3,0-.85-.88-1.33-2.14a16,16,0,0,0,5.23-2.15,22.56,22.56,0,0,0,3.52-2.66,15.39,15.39,0,0,0,2.3-2.72A6.1,6.1,0,0,0,461.06,174.3ZM454.35,173c-.21.26-.29.32-.4.32a.36.36,0,0,1-.24-.13,10,10,0,0,0-3-1.87c-.16-.06-.22-.13-.22-.22a.42.42,0,0,1,.1-.24c.77-1.17.8-1.22,1-1.22a9.05,9.05,0,0,1,2.56,1.25c.77.51.94.66.94.82A4,4,0,0,1,454.35,173Zm5.3-1.06a7.11,7.11,0,0,0-1.18-1.62c-.08-.08-.1-.11-.1-.14s.1-.21.37-.4.35-.24.45-.24.29.13.69.56a4.32,4.32,0,0,1,.88,1.22c0,.18-.72.75-.94.75C459.74,172.06,459.71,172,459.65,171.93Zm2.24-1.2a1.07,1.07,0,0,1-.43.22s-.08,0-.16-.14a7.94,7.94,0,0,0-1.2-1.57.18.18,0,0,1-.08-.11c0-.14.64-.59.83-.59s.35.18.67.53a4.22,4.22,0,0,1,.85,1.18C462.37,170.36,462.24,170.47,461.89,170.73Z"/><circle class="cls-4" cx="549.5" cy="356.5" r="32"/><circle class="cls-4" cx="586" cy="395.5" r="55"/><circle class="cls-4" cx="694" cy="438.5" r="55"/><circle class="cls-4" cx="805" cy="412" r="55"/><circle class="cls-4" cx="890.5" cy="330.5" r="55"/><circle class="cls-4" cx="857" cy="219" r="55"/><path class="cls-5" d="M555.65,386.74a23.82,23.82,0,0,1-3,1.52,6.78,6.78,0,0,1-1.28.46.34.34,0,0,1-.29-.14,4.91,4.91,0,0,0-1.3-1.12,23.5,23.5,0,0,0,4.15-1.71,16.84,16.84,0,0,0,4.56-3.31,49.92,49.92,0,0,0-6.42.14l-.11,0c-.13,0-.18-.06-.21-.26a9.14,9.14,0,0,1-.11-1.6,36,36,0,0,0,4,.21v-.67a14.63,14.63,0,0,0-.11-1.73,9.07,9.07,0,0,1,1.9.14c.22,0,.34.14.34.3a.43.43,0,0,1-.06.21,3,3,0,0,0-.16,1.1V381a5.94,5.94,0,0,0,2.37-.22.23.23,0,0,1,.11,0c.21,0,.43.18.75.54s.54.72.54.9-.08.26-.29.4a11.27,11.27,0,0,0-1.23,1,22.58,22.58,0,0,1-2.27,1.89v3.39c0,.5,0,1.63,0,2s0,.42,0,.48v.13a.19.19,0,0,1-.1.19,3.73,3.73,0,0,1-1.06.11h-.11c-.71,0-.74,0-.75-.22s0-.16,0-.75,0-1.3,0-2.24Zm3.47-.9c.37-.5.51-.64.64-.64a3.1,3.1,0,0,1,.9.35,12.55,12.55,0,0,1,2.51,1.58c.14.11.18.18.18.24s-.11.35-.56,1c-.26.34-.4.46-.54.46a.36.36,0,0,1-.24-.11,13.66,13.66,0,0,0-3-2c-.19-.06-.24-.11-.24-.21A1.69,1.69,0,0,1,559.12,385.85Z"/><path class="cls-5" d="M573.29,386.58c0,2,0,3.51.1,4.59v.11c0,.18,0,.24-.21.26a9.8,9.8,0,0,1-1.41.08c-.5,0-.54,0-.54-.3v-.08c.06-.82.1-2.64.1-4.66v-2.11a26.17,26.17,0,0,1-2.54,1.5,7.14,7.14,0,0,1-1.92.85.42.42,0,0,1-.34-.18,6,6,0,0,0-1.34-1.17,22.08,22.08,0,0,0,4.64-2.21,21.8,21.8,0,0,0,4.64-3.87,4.1,4.1,0,0,0,.53-.75c1,.67,1.73,1.34,1.73,1.65,0,.1-.06.18-.26.26a4.23,4.23,0,0,0-1.15.86c-.7.62-1.39,1.18-2,1.65Z"/><path class="cls-5" d="M580.38,384.82l-.35,0a.37.37,0,0,0-.14,0h-.14a.28.28,0,0,1-.3-.27,8.32,8.32,0,0,1-.13-1.65,21,21,0,0,0,2.46.11l3.79,0c2.67,0,5.79,0,6.29-.1H592c.22,0,.22,0,.22,1.07,0,.7,0,.78-.26.78h-.11c-.74,0-1,0-4.8-.08a9.8,9.8,0,0,1-.34,2.46,6.52,6.52,0,0,1-3,4.07,2.6,2.6,0,0,1-.94.45c-.08,0-.14,0-.27-.16a4.18,4.18,0,0,0-1.35-1c2.83-1.33,3.87-2.85,4-5.81C582.49,384.78,581.61,384.79,580.38,384.82Zm5.59-5.41c1.54,0,3.22,0,3.89-.13h.08c.22,0,.27.11.27.61v.34c0,.1,0,.26,0,.45,0,.43,0,.48-.34.48h-.19c-.43,0-3.36-.06-4.08-.06-1.92,0-3.31,0-3.83.1l-.13,0a.24.24,0,0,1-.27-.21,11.7,11.7,0,0,1-.13-1.73C581.91,379.35,584,379.41,586,379.41Z"/><path class="cls-5" d="M599.28,386.68a16,16,0,0,1-3.22,1.68c-.16,0-.16,0-.46-.34a6,6,0,0,0-1-.88,17.63,17.63,0,0,0,6.1-3.58,7.58,7.58,0,0,0,1.55-1.75c.85.56,1.49,1.17,1.49,1.41s0,.14-.19.21a3.49,3.49,0,0,0-.85.64c-.34.3-1,.83-1.7,1.38V388c0,1.39,0,2.82.08,3.49v.18c0,.26-.16.29-1.17.29-.64,0-.7,0-.7-.19v-.11a3,3,0,0,1,0-.32c0-.4,0-1.81,0-3.33Z"/><path class="cls-5" d="M613.21,381.94a36.52,36.52,0,0,0-5.39.26.06.06,0,0,1,0,0c-.3,0-.4-.53-.45-2.18a31.19,31.19,0,0,0,4.18.16c2.15,0,4.66,0,5.06-.1a2,2,0,0,0,.67-.16.39.39,0,0,1,.18,0c.27,0,.61.26,1.12.86.3.38.37.48.37.66a.57.57,0,0,1-.16.35c-.16.19-.18.24-.53,1.36a14.84,14.84,0,0,1-5.07,7.2,7.47,7.47,0,0,1-2.11,1.3c-.18,0-.21,0-.58-.38a4.62,4.62,0,0,0-1.2-.91,12.81,12.81,0,0,0,4.87-3.73,10.78,10.78,0,0,0,2.16-4.69Zm6.92-1.62c-.35.3-.56.45-.66.45s-.1,0-.38-.48a7.08,7.08,0,0,0-1-1.3c-.06-.06-.08-.1-.08-.14s.61-.58.78-.58.32.16.8.7a3.74,3.74,0,0,1,.74,1C620.32,380.13,620.27,380.2,620.13,380.33Zm.72-.82a6.81,6.81,0,0,0-1.18-1.54c-.06-.06-.08-.1-.08-.13s.08-.16.35-.35.3-.19.42-.19.59.42,1.14,1.12a1.83,1.83,0,0,1,.37.61c0,.08,0,.16-.24.3a1.65,1.65,0,0,1-.59.34C621,379.67,620.91,379.64,620.85,379.51Z"/><path class="cls-5" d="M577.4,401.73c1.33,0,2.34,0,4.31-.06a5.42,5.42,0,0,0,1.17-.11.78.78,0,0,1,.27,0c.3,0,.59.24,1.06.86a2.12,2.12,0,0,1,.56,1.09.44.44,0,0,1-.26.4,1.81,1.81,0,0,0-.62.64,16.54,16.54,0,0,1-2.3,2.5c-.42.38-.56.48-.72.48a.32.32,0,0,1-.27-.13,4,4,0,0,0-1.31-1,9.46,9.46,0,0,0,3-2.95c-8.24.06-8.24.06-9.19.22a.75.75,0,0,1-.21,0c-.24,0-.38-.14-.46-.46a8.06,8.06,0,0,1-.21-1.63A35.5,35.5,0,0,0,577.4,401.73Zm1.3,3.06c.32.08.45.18.45.34s0,.06-.1.27a5.68,5.68,0,0,0-.24,1.1,10.5,10.5,0,0,1-1.65,4.79,7.82,7.82,0,0,1-2.66,2.29.71.71,0,0,1-.3.1.4.4,0,0,1-.35-.19,4.5,4.5,0,0,0-1.25-1,8.05,8.05,0,0,0,2-1.23,7.32,7.32,0,0,0,2.3-5.86,7.57,7.57,0,0,0,0-.88A8.77,8.77,0,0,1,578.7,404.79Z"/><path class="cls-5" d="M591.33,408.92c0,1,0,3.6.08,4.35v.08a.34.34,0,0,1-.11.3,3.65,3.65,0,0,1-1.34.18c-.51,0-.61,0-.61-.37v-.06c0-.42.08-5,.08-6.93a40.21,40.21,0,0,0-.18-5.65,14,14,0,0,1,2.13.22c.16,0,.24.11.24.24a1.23,1.23,0,0,1-.06.37,2.56,2.56,0,0,0-.11.67s0,1-.08,2.88a16.93,16.93,0,0,1,1.79.56,23.53,23.53,0,0,1,3.94,1.73c.13.08.19.16.19.27a6,6,0,0,1-.54,1.41c-.13.27-.21.35-.3.35a.47.47,0,0,1-.26-.11,17.54,17.54,0,0,0-4.85-2.29Zm4-5a7.69,7.69,0,0,0-1.2-1.62c-.08-.1-.1-.1-.1-.14s.08-.19.38-.4.35-.24.43-.24.29.13.69.56a4.05,4.05,0,0,1,.9,1.22c0,.18-.72.75-.94.75C595.41,404.07,595.36,404,595.31,403.94Zm2.24-1.2a1.08,1.08,0,0,1-.43.22s-.08,0-.16-.14a7.72,7.72,0,0,0-1.2-1.57.23.23,0,0,1-.08-.13,1.63,1.63,0,0,1,.83-.58c.08,0,.18,0,.34.19a5.36,5.36,0,0,1,1.19,1.54C598,402.37,597.92,402.49,597.56,402.74Z"/><path class="cls-5" d="M660.77,434.9a.78.78,0,0,1-.11.3,4.18,4.18,0,0,0-.45,1.44,15.55,15.55,0,0,1-2.43,5.68c-.46.64-.8,1-1,1a.52.52,0,0,1-.24-.1,5.84,5.84,0,0,0-1.6-.61,11,11,0,0,0,3.18-5.81,10.6,10.6,0,0,0,.3-2.35v-.27C659.82,434.31,660.77,434.59,660.77,434.9Zm6,8a27.53,27.53,0,0,0-3.35-7.59c-.19-.29-.21-.32-.21-.4s.14-.24.61-.51a2.17,2.17,0,0,1,.88-.42c.18,0,.22.06.83,1a28.2,28.2,0,0,1,2.26,4.61,12.58,12.58,0,0,1,.9,2.72c0,.18-.08.26-.48.43a4.94,4.94,0,0,1-1.17.42C666.91,443.16,666.82,443.06,666.77,442.9Zm-.08-8a7.16,7.16,0,0,0-1.18-1.62c-.08-.1-.1-.11-.1-.16s.1-.19.37-.4.37-.24.45-.24.29.13.69.56a4.54,4.54,0,0,1,.88,1.22c0,.19-.7.77-.94.77C666.78,435,666.75,435,666.69,434.88Zm2.26-1.2a1.08,1.08,0,0,1-.43.22s-.08,0-.16-.14a7.62,7.62,0,0,0-1.2-1.57.29.29,0,0,1-.08-.11c0-.14.64-.59.83-.59s.35.18.67.53a4.23,4.23,0,0,1,.85,1.18C669.42,433.31,669.3,433.43,668.94,433.68Z"/><path class="cls-5" d="M683.78,436.39c0,.74,0,.83-.22.83h-.08c-.56,0-.74,0-4.83,0a10.36,10.36,0,0,1-2.08,5.75,6.65,6.65,0,0,1-1.82,1.7.68.68,0,0,1-.34.13.47.47,0,0,1-.34-.14,4.17,4.17,0,0,0-1.49-.83,7.52,7.52,0,0,0,4.08-6.58c-3,0-4.61.06-5,.13l-.13,0a.23.23,0,0,1-.24-.21,6.4,6.4,0,0,1-.22-1.78,47.37,47.37,0,0,0,5.73.14v-.72a12.54,12.54,0,0,0-.21-2.85,15.19,15.19,0,0,1,2.1.16c.24,0,.34.13.34.29s0,.11-.11.4a5.25,5.25,0,0,0-.11,1.33c0,.38,0,.42,0,1.38,2.19,0,3.92-.1,4.66-.18a.39.39,0,0,1,.13,0c.21,0,.26.14.26.7v.38Z"/><path class="cls-5" d="M692.45,437.28c2.93,0,4.61,0,6.23-.14h.21c.48,0,.48,0,.48,1.3,0,.66,0,.77-.32.77H699c-1.06,0-1.65,0-6.27,0-1.7,0-2.54,0-4,.06h-.46a4.21,4.21,0,0,0-.9.06l-.18,0a.29.29,0,0,1-.32-.22,10.26,10.26,0,0,1-.16-2A56.14,56.14,0,0,0,692.45,437.28Z"/><path class="cls-5" d="M708.21,432.1a3.61,3.61,0,0,0-.08-.88H710a3.51,3.51,0,0,0-.08.9v.75h3.83a10.45,10.45,0,0,0,1.78-.1v1.79a12.2,12.2,0,0,0-1.78-.08h-9.12c0,5.75-.46,8.31-1.94,10.8a7.55,7.55,0,0,0-1.34-1.44c1.2-2,1.55-4,1.55-8.82,0-1.22,0-1.67-.06-2.23a15.29,15.29,0,0,0,1.6.06h3.76Zm-4,10.93.42,0c.34,0,.56,0,1.07,0a30.41,30.41,0,0,0,2.63-8.05l2,.46c-.1.32-.14.48-.24.83a36.86,36.86,0,0,1-2.46,6.61c1.81-.16,1.81-.16,2.93-.29.54-.06,1.25-.18,2.08-.32a30.41,30.41,0,0,0-2-3l1.44-.8a32.36,32.36,0,0,1,3.47,6l-1.54,1a17.71,17.71,0,0,0-.71-1.68c-2,.38-2.35.45-3.91.64l-4.31.48-.54.08Z"/><path class="cls-5" d="M720.67,434.69a8.7,8.7,0,0,1-1.68,1.87,6.35,6.35,0,0,0-1.33-1.14,7.62,7.62,0,0,0,2.32-2.87,6.2,6.2,0,0,0,.5-1.3l1.78.48c-.18.34-.18.34-.4.82a4.79,4.79,0,0,1-.29.58h2.1v-.54a7.07,7.07,0,0,0-.1-1.44h1.87a7.43,7.43,0,0,0-.1,1.46v.53h3.1a11.08,11.08,0,0,0,1.68-.1v1.73a15,15,0,0,0-1.66-.08h-3.12v1.92h4.14a12.51,12.51,0,0,0,1.75-.1v1.76a13.34,13.34,0,0,0-1.75-.1H719.24a14.06,14.06,0,0,0-1.74.1v-1.76a12.91,12.91,0,0,0,1.7.1h4.46v-1.92Zm-1.51,10.6a12.31,12.31,0,0,0,.1-1.71v-2.85a10.94,10.94,0,0,0-.06-1.44c.43,0,.8,0,1.52,0h7.38c.72,0,1.11,0,1.54,0a10.42,10.42,0,0,0-.06,1.44v2.87a11.43,11.43,0,0,0,.1,1.7h-1.81v-.67H721v.67Zm1.78-2.22h6.93v-2.19h-6.93Z"/><path class="cls-5" d="M775.09,406.24c1.33,0,2.34,0,4.31-.06a5.37,5.37,0,0,0,1.17-.11.78.78,0,0,1,.27,0c.3,0,.59.24,1.06.86a2.12,2.12,0,0,1,.56,1.09.45.45,0,0,1-.26.4,1.81,1.81,0,0,0-.62.64,16.45,16.45,0,0,1-2.3,2.5c-.42.38-.56.48-.72.48a.32.32,0,0,1-.27-.13,4,4,0,0,0-1.31-1,9.47,9.47,0,0,0,3-2.95c-8.24.06-8.24.06-9.19.22a.76.76,0,0,1-.21,0c-.24,0-.38-.14-.46-.46a8.06,8.06,0,0,1-.21-1.63A35.31,35.31,0,0,0,775.09,406.24Zm1.3,3.06c.32.08.45.18.45.34s0,.06-.1.27a5.7,5.7,0,0,0-.24,1.1,10.51,10.51,0,0,1-1.65,4.79,7.81,7.81,0,0,1-2.66,2.29.73.73,0,0,1-.3.1.4.4,0,0,1-.35-.19,4.51,4.51,0,0,0-1.25-1,8,8,0,0,0,2-1.23,8.89,8.89,0,0,0,2.27-6.74A8.85,8.85,0,0,1,776.39,409.29Z"/><path class="cls-5" d="M797.23,409.47a.84.84,0,0,1,.11.37c0,.16-.06.27-.27.56a16.65,16.65,0,0,1-3.25,3.19,24.15,24.15,0,0,1-4.88,3c-1.23.58-1.3.61-1.49.78s-.19.16-.29.16-.27-.13-.51-.48a7.12,7.12,0,0,1-.8-1.7,18.38,18.38,0,0,0,5.43-2.42,14.32,14.32,0,0,0,5.22-5.19A8.79,8.79,0,0,0,797.23,409.47Zm-10.66-2.69c.27-.3.38-.38.53-.38a9.36,9.36,0,0,1,2.5,1.58c.61.5.8.7.8.86a3.17,3.17,0,0,1-.67,1c-.35.4-.53.54-.66.54s-.11,0-.77-.62a13.39,13.39,0,0,0-1.67-1.33L786,408a.19.19,0,0,1-.1-.14A3.19,3.19,0,0,1,786.57,406.78Z"/><path class="cls-5" d="M806.23,408.33c.91,0,4.18-.06,4.8-.08s.7,0,1.25-.1h.06c.21,0,.24.16.24,1.38,0,.37,0,.43-.22.46l-.42,0c-.75,0-.9,0-3.46,0A11,11,0,0,1,807,415.6a8.14,8.14,0,0,1-2.5,2.56,1.45,1.45,0,0,1-.56.22c-.18,0-.22,0-.58-.34a3.8,3.8,0,0,0-1.06-.72,7.72,7.72,0,0,0,3.33-3.26,10.69,10.69,0,0,0,.85-4.11l-3.28,0c-1,1.63-2,2.79-2.3,2.79a.64.64,0,0,1-.34-.14,4.72,4.72,0,0,0-1.26-.64,11.56,11.56,0,0,0,3-4.21,8.74,8.74,0,0,0,.71-2.62,8.47,8.47,0,0,1,1.86.61c.16.08.26.19.26.29s0,.16-.18.32a3.41,3.41,0,0,0-.5,1c-.22.53-.27.64-.4,1Z"/><path class="cls-5" d="M821,410.78c2.93,0,4.61,0,6.23-.14h.21c.48,0,.48,0,.48,1.3,0,.66,0,.77-.32.77h-.06c-1.06,0-1.65,0-6.27,0-1.7,0-2.54,0-4,.06h-.46a4.21,4.21,0,0,0-.9.06l-.18,0a.29.29,0,0,1-.32-.22,10.26,10.26,0,0,1-.16-2A56.13,56.13,0,0,0,821,410.78Z"/><path class="cls-5" d="M834.93,413.34c0,1,0,3.59.08,4.34v.08a.34.34,0,0,1-.11.3,3.65,3.65,0,0,1-1.34.18c-.51,0-.61,0-.61-.37v-.06c0-.42.08-5,.08-6.93a40.38,40.38,0,0,0-.18-5.65,16.25,16.25,0,0,1,2.13.22c.16,0,.24.13.24.26a1.24,1.24,0,0,1-.06.35,2.74,2.74,0,0,0-.11.67s0,1-.08,2.88a16.93,16.93,0,0,1,1.79.56,25,25,0,0,1,3.94,1.73c.13.1.19.18.19.27a6,6,0,0,1-.54,1.41c-.13.27-.21.35-.3.35a.47.47,0,0,1-.26-.11,18,18,0,0,0-4.85-2.29Z"/><path class="cls-5" d="M850.15,331.13c0,.08,0,.13-.16.27a2.06,2.06,0,0,0-.34.61c-.7,1.55-2,3.27-2.43,3.27-.1,0-.13,0-.46-.3a4.39,4.39,0,0,0-1.07-.59,7,7,0,0,0,2.61-4.18C849.59,330.61,850.15,330.9,850.15,331.13Zm1.49-2.35a46.62,46.62,0,0,0-4.95.14h0a.32.32,0,0,1-.3-.26,6.49,6.49,0,0,1-.16-1.68,33.05,33.05,0,0,0,4.83.19h.61v-.43a11.59,11.59,0,0,0-.18-2.21,10,10,0,0,1,2.16.24.24.24,0,0,1,.18.26.86.86,0,0,1-.11.35,3.18,3.18,0,0,0-.19,1.34v.45h1c1,0,3.09-.08,3.73-.13l.18,0a.18.18,0,0,1,.19.16c0,.08,0,.54,0,.75,0,.85,0,.9-.34.9l-1.17,0c-.56,0-.77,0-3.65,0v3c0,1.6,0,1.6,0,3,0,.19,0,.34,0,.43,0,1.55-.56,2.07-2.23,2.07a4.56,4.56,0,0,1-1.34-.13c-.11,0-.14-.13-.19-.37a5.9,5.9,0,0,0-.5-1.5,6.22,6.22,0,0,0,1.68.22c.58,0,.69-.14.69-.86Zm6.52,6.24a.37.37,0,0,1-.22.11c-.29,0-.86-.66-1.57-1.76a11.37,11.37,0,0,1-1.25-2.5c0-.13.11-.24.37-.37a4.19,4.19,0,0,1,1.06-.43c.13,0,.19.08.29.27a12.4,12.4,0,0,0,1.18,2.18,8,8,0,0,0,1.47,1.65A4.11,4.11,0,0,0,858.16,335Zm.93-10.34a1.71,1.71,0,1,1-1.71-1.71A1.69,1.69,0,0,1,859.08,324.68Zm-2.56,0a.85.85,0,0,0,.85.85.86.86,0,0,0,.85-.85.85.85,0,1,0-1.7,0Z"/><path class="cls-5" d="M868.94,332.09c0,2,0,3.51.1,4.59v.11c0,.18,0,.24-.21.26a9.82,9.82,0,0,1-1.41.08c-.5,0-.54,0-.54-.3v-.08c.06-.82.1-2.64.1-4.66V330a26.29,26.29,0,0,1-2.54,1.5,7.13,7.13,0,0,1-1.92.85.42.42,0,0,1-.34-.18,6,6,0,0,0-1.34-1.17,22.1,22.1,0,0,0,4.64-2.21,21.81,21.81,0,0,0,4.64-3.87,4.1,4.1,0,0,0,.53-.75c1,.67,1.73,1.34,1.73,1.65,0,.1-.06.18-.26.26a4.21,4.21,0,0,0-1.15.86c-.7.62-1.39,1.18-2,1.65Z"/><path class="cls-5" d="M887.71,328.47a.84.84,0,0,1,.11.37c0,.16-.06.27-.27.56a16.65,16.65,0,0,1-3.25,3.19,24.24,24.24,0,0,1-4.88,3c-1.23.58-1.3.61-1.49.78s-.19.16-.29.16-.27-.13-.51-.48a7.15,7.15,0,0,1-.8-1.7,18.34,18.34,0,0,0,5.43-2.42,14.32,14.32,0,0,0,5.22-5.19A8.75,8.75,0,0,0,887.71,328.47ZM877,325.78c.27-.3.38-.38.53-.38a9.37,9.37,0,0,1,2.5,1.58c.61.5.8.7.8.86a3.19,3.19,0,0,1-.67,1c-.35.4-.53.54-.66.54s-.11,0-.77-.62a13.49,13.49,0,0,0-1.66-1.33l-.67-.43a.2.2,0,0,1-.1-.14A3.21,3.21,0,0,1,877,325.78Z"/><path class="cls-5" d="M894.6,332.34c0,1,0,3.58.08,4.34v.08a.34.34,0,0,1-.11.3,3.67,3.67,0,0,1-1.34.18c-.51,0-.61,0-.61-.37v-.06c0-.42.08-5,.08-6.93a40.2,40.2,0,0,0-.18-5.65,16.48,16.48,0,0,1,2.13.22c.16,0,.24.13.24.26a1.23,1.23,0,0,1-.06.35,2.69,2.69,0,0,0-.11.67s0,1-.08,2.88a16.76,16.76,0,0,1,1.79.56,25.06,25.06,0,0,1,3.94,1.73c.13.1.19.18.19.27a5.91,5.91,0,0,1-.54,1.41c-.13.27-.21.35-.3.35a.47.47,0,0,1-.26-.11,18,18,0,0,0-4.85-2.29Z"/><path class="cls-5" d="M903.59,329.48a6.74,6.74,0,0,0,1.23.08H906a9,9,0,0,0,1.19-.06,14.12,14.12,0,0,0-.06,1.67v3.3a2.15,2.15,0,0,0,.72.78c.75.5,1.63.66,3.55.66a52.32,52.32,0,0,0,6.58-.29,7.53,7.53,0,0,0-.46,1.81c-1.28,0-3.54.08-5.35.08-2.64,0-3.52-.11-4.5-.58a3.7,3.7,0,0,1-1.34-1.1,16.3,16.3,0,0,1-1.79,1.47l-.45.34-.75-1.75a8.91,8.91,0,0,0,2.18-1.49v-3.33h-.83a5.65,5.65,0,0,0-1,.08Zm1.27-5.71a19.23,19.23,0,0,1,2.67,2.77l-1.28,1.25a15.55,15.55,0,0,0-2.61-2.88Zm4,2.38a7.43,7.43,0,0,0-1.25.06v-1.5a12.09,12.09,0,0,0,1.73.08h2.34a6.12,6.12,0,0,0-.11-1.17h1.73a7.71,7.71,0,0,0-.1,1.17h2.54a16.14,16.14,0,0,0,1.74-.08v1.5a11.9,11.9,0,0,0-1.54-.06h-2.75v.74h2.38c.56,0,.83,0,1.28,0a7.87,7.87,0,0,0-.06,1.17v3.19a7.31,7.31,0,0,0,.06,1.12c-.45,0-.77,0-1.28,0h-2.38V333H916a11.66,11.66,0,0,0,1.54-.06v1.49a11.92,11.92,0,0,0-1.54-.06h-2.82a7.82,7.82,0,0,0,.1,1.28h-1.73a7.44,7.44,0,0,0,.11-1.28H909.2c-.54,0-1.15,0-1.52,0v-1.47a10.48,10.48,0,0,0,1.52.06h2.43v-.72h-2.18c-.46,0-.87,0-1.28,0a8.1,8.1,0,0,0,.06-1.14v-3.27a7.61,7.61,0,0,0-.06-1.07c.4,0,.74,0,1.26,0h2.19v-.74Zm.93,2V329h1.89v-.86Zm0,2v.9h1.89v-.9Zm3.41-1.14h2v-.86h-2Zm0,2h2v-.9h-2Z"/><path class="cls-5" d="M930.62,330.44h1.86a10.36,10.36,0,0,0,1.41-.06v1.33a11.32,11.32,0,0,0-1.39-.06h-6a10.87,10.87,0,0,0-1.17,0c0-.35,0-.69,0-1.17v-1.28c0-.54,0-.62,0-1.17a4.11,4.11,0,0,1-.77.9,3.69,3.69,0,0,0-.69-1.06h-.56v2.4c.43-.14.66-.22,1.52-.56v1.5c-.69.27-.83.32-1.52.58v4.43l0,.26c1.83-.48,2.79-1.36,3.12-2.85h-1c-.45,0-.72,0-1.09,0v-1.54a8.88,8.88,0,0,0,1.22.06h5c.59,0,.91,0,1.28,0-.08.27-.1.34-.14.48-.11.4-.21.69-.34,1h1.23a9.56,9.56,0,0,0,1.14,0c-.08.4-.13.69-.16.86a6.38,6.38,0,0,1-.75,2.56c-.35.48-.83.66-1.79.66-.45,0-1.1,0-1.78-.1a4.33,4.33,0,0,0-.38-1.5,10,10,0,0,0,1.82.19c.5,0,.63,0,.79-.29a3.6,3.6,0,0,0,.34-1h-1.57c-.37,0-.69,0-1,0a8,8,0,0,0,.51-1.39h-1.84a5.25,5.25,0,0,1-1.26,2.64,6.16,6.16,0,0,1-2.66,1.65,7.16,7.16,0,0,0-.82-1.3.92.92,0,0,1-.74.91,4.23,4.23,0,0,1-1.44.19l-.8,0a5.53,5.53,0,0,0-.34-1.6,8.77,8.77,0,0,0,1.23.1c.38,0,.48-.1.48-.45v-3.39l-.83.26a5.3,5.3,0,0,0-.74.27l-.3-1.73a10,10,0,0,0,1.87-.4v-2.88h-.59a8.06,8.06,0,0,0-1.1.06v-1.63a6,6,0,0,0,1.12.08h.58v-1.17a10.44,10.44,0,0,0-.1-1.57h1.83a8.94,8.94,0,0,0-.1,1.55v1.18h.21a6.35,6.35,0,0,0,.85,0V327a8.45,8.45,0,0,0,1.94-3.46l1.63.35a7.44,7.44,0,0,1-.64,1.3h1.89a5.61,5.61,0,0,0,.72-1.49l1.62.3a13.62,13.62,0,0,1-.71,1.18h1.5a10.1,10.1,0,0,0,1.39-.06v1.36c-.38,0-.7,0-1.2,0h-2V327h1.26a13.68,13.68,0,0,0,1.42,0v1.2c-.35,0-.69,0-1.42,0h-1.26v.61h1.26a13.76,13.76,0,0,0,1.42,0v1.2a13.47,13.47,0,0,0-1.42,0h-1.26Zm-1.47-4h-2.27V327h2.27Zm0,1.71h-2.27v.61h2.27Zm-2.27,1.71v.61h2.27v-.61Z"/><path class="cls-5" d="M836.46,214.36a6.8,6.8,0,0,0,.35-1.39c1.39.5,2.24,1,2.24,1.28,0,.08,0,.13-.14.26a4.42,4.42,0,0,0-.8,1.23,29.67,29.67,0,0,1-2,3.6,20.76,20.76,0,0,1,2,1.89.6.6,0,0,1,.21.4c0,.16-.19.45-.64.93s-.53.53-.67.53-.16,0-.29-.19c-1-1.09-1.06-1.2-1.76-1.9a19.77,19.77,0,0,1-4.42,4.16,2,2,0,0,1-.94.46c-.16,0-.18,0-.58-.38a7,7,0,0,0-1.15-.8,15.33,15.33,0,0,0,5.63-4.75,21.22,21.22,0,0,0-2.5-1.78c-.32-.19-.35-.22-.35-.34s.19-.45.7-1c.18-.21.3-.29.43-.29a14.58,14.58,0,0,1,2.8,1.86A20.88,20.88,0,0,0,836.46,214.36Z"/><path class="cls-5" d="M846,214.09a.27.27,0,0,1,.19.27.71.71,0,0,1,0,.22,4.24,4.24,0,0,0-.11,1.25c0,3.91-.74,6.4-2.42,8.53-.37.45-.51.59-.67.59a.68.68,0,0,1-.27-.1,4.45,4.45,0,0,0-1.55-.58,8.19,8.19,0,0,0,2-2.8,12.19,12.19,0,0,0,.94-5.31,12.55,12.55,0,0,0-.16-2.34A7.65,7.65,0,0,1,846,214.09Zm1.71,1.55a13.92,13.92,0,0,0-.14-2.08c1.73.06,2.35.19,2.35.51a.81.81,0,0,1-.08.32,2,2,0,0,0-.11.59c0,.43,0,.43-.08,7.48a14.8,14.8,0,0,0,4.71-4,8,8,0,0,0,.24,1.92.67.67,0,0,1,0,.27c0,.26-.16.46-.9,1.15a14.24,14.24,0,0,1-3.47,2.43,3.05,3.05,0,0,0-.75.5.62.62,0,0,1-.37.16,3.09,3.09,0,0,1-1.19-.78c-.32-.32-.46-.56-.46-.77a.81.81,0,0,1,.06-.27,4,4,0,0,0,.14-1.47Z"/><path class="cls-5" d="M866.42,216.26c-5.57.08-5.57.08-7.43.16a8.8,8.8,0,0,0-1.83.14l-.19,0c-.19,0-.3-.1-.38-.3a6.29,6.29,0,0,1-.29-1.84,45.94,45.94,0,0,0,4.82.19c2.27,0,4.35,0,5.25-.08a2.73,2.73,0,0,0,.83-.16,1,1,0,0,1,.34-.06c.32,0,.64.27,1.18,1a2,2,0,0,1,.45.9c0,.18,0,.21-.3.4a4.24,4.24,0,0,0-.9.94,23.92,23.92,0,0,1-4.18,4.18,8.05,8.05,0,0,1,1.67,2c0,.18-.21.42-.71.82a1.87,1.87,0,0,1-.74.45c-.1,0-.18,0-.29-.19a18.54,18.54,0,0,0-2.16-2.56,20.69,20.69,0,0,0-2.87-2.48.23.23,0,0,1-.11-.21c0-.13.27-.45.7-.86.26-.21.38-.3.48-.3a.38.38,0,0,1,.22.08,15.3,15.3,0,0,1,2.5,2A21.5,21.5,0,0,0,866.42,216.26Z"/><path class="cls-5" d="M878.26,217.42c-.51,3.38-1.86,5.87-4,7.46a3.83,3.83,0,0,1-1.25.72c-.11,0-.18,0-.3-.19a5.41,5.41,0,0,0-1.31-1.09,7.75,7.75,0,0,0,3.87-3.47,9.6,9.6,0,0,0,1.06-3.41h-.75a13.85,13.85,0,0,0-2.77.18l-.26,0a.31.31,0,0,1-.34-.26,16.27,16.27,0,0,1-.21-1.81,29.34,29.34,0,0,0,3.94.18h.56c0-.64,0-1,0-1.54a7.78,7.78,0,0,0-.08-1.34c1.86.08,2.34.19,2.34.48,0,.06,0,.06-.1.29a4.75,4.75,0,0,0-.22,1.41c0,.29,0,.43,0,.72h2.38a3.92,3.92,0,0,0,.85-.06,4,4,0,0,0,.53-.21l.21,0c.26,0,.48.14.91.59s.61.69.61.9,0,.18-.21.61a3.12,3.12,0,0,0-.13.82,21.08,21.08,0,0,1-.86,5.83,2,2,0,0,1-1.25,1.14,4.23,4.23,0,0,1-1.62.21c-1.06,0-1.2,0-1.26-.42a5.29,5.29,0,0,0-.51-1.55,7.71,7.71,0,0,0,1.6.18c.93,0,1.2-.13,1.41-.67a21.44,21.44,0,0,0,.69-5.67Zm4.95-2.21a7,7,0,0,0-1.22-1.58c-.1-.1-.1-.11-.1-.16s.1-.19.37-.4.35-.24.43-.24.29.13.69.54a4,4,0,0,1,.91,1.2,1.79,1.79,0,0,1-.93.77C883.3,215.33,883.27,215.3,883.21,215.21Zm2.22-1.23a1.05,1.05,0,0,1-.42.22c-.06,0-.1,0-.16-.14a8,8,0,0,0-1.25-1.54.24.24,0,0,1-.08-.13,1.72,1.72,0,0,1,.83-.59c.11,0,.35.19.67.51a4,4,0,0,1,.88,1.18C885.91,213.59,885.78,213.72,885.43,214Z"/><path class="cls-1" d="M708.73,273.23h-.4a.39.39,0,0,0-.16,0H708a.32.32,0,0,1-.34-.29,9.5,9.5,0,0,1-.14-1.85c1.08.11,3.57.18,7,.18,3.06,0,6.59-.05,7.15-.11h.16c.25,0,.25,0,.25,1.21,0,.79,0,.88-.29.88h-.13c-.83,0-1.17,0-5.4-.09a11.05,11.05,0,0,1-.38,2.77,7.33,7.33,0,0,1-3.42,4.57,2.93,2.93,0,0,1-1.06.5c-.09,0-.16,0-.31-.18a4.45,4.45,0,0,0-1.51-1.15c3.19-1.49,4.36-3.21,4.46-6.54C711.11,273.18,710.12,273.18,708.73,273.23Zm1.85-6.18,1,0c.92.05,1.19.05,2.38.05a49.06,49.06,0,0,0,5-.14H719c.25,0,.31.13.31.68v.38c0,.11,0,.29,0,.5,0,.49,0,.54-.38.54l-2.77-.05c-.27,0-.72,0-1.37,0-2.3,0-3.92,0-4.5.11a.46.46,0,0,1-.14,0,.27.27,0,0,1-.31-.23,13.05,13.05,0,0,1-.14-1.95A6.57,6.57,0,0,0,710.59,267.06Zm10.26,1.4a7.87,7.87,0,0,0-1.33-1.82c-.11-.11-.11-.11-.11-.16s.11-.22.41-.45.4-.27.5-.27.32.14.77.63a4.74,4.74,0,0,1,1,1.35c0,.11-.05.18-.27.36-.4.34-.65.5-.79.5S720.92,268.57,720.85,268.46Zm2.54-1.35a1.12,1.12,0,0,1-.49.25c-.05,0-.11,0-.18-.16a8.5,8.5,0,0,0-1.35-1.76.27.27,0,0,1-.09-.14,2,2,0,0,1,.92-.65c.14,0,.2,0,.4.22a6.11,6.11,0,0,1,1.33,1.73C723.93,266.7,723.79,266.82,723.39,267.11Z"/><path class="cls-1" d="M731.74,273.92c-.25.4-.32.47-.47.47s-.13,0-.9-.52a11.91,11.91,0,0,0-2.72-1.24c-.29-.11-.38-.18-.38-.31a3.34,3.34,0,0,1,.43-.88c.07-.14.14-.25.18-.34.2-.36.29-.47.43-.47a12.08,12.08,0,0,1,2.63,1,14.81,14.81,0,0,1,1.37.77.33.33,0,0,1,.09.22A4.39,4.39,0,0,1,731.74,273.92Zm9.27-2.05a1,1,0,0,1,.09.4c0,.23-.09.38-.43.76a26,26,0,0,1-4.86,4.25A30.42,30.42,0,0,1,730.7,280a2.59,2.59,0,0,0-.88.49c-.16.13-.22.16-.31.16-.34,0-1-1-1.49-2.41a18,18,0,0,0,5.89-2.41,25.44,25.44,0,0,0,4-3,17.34,17.34,0,0,0,2.59-3.06A6.86,6.86,0,0,0,741,271.86Zm-7.54-1.48c-.23.29-.32.36-.45.36a.4.4,0,0,1-.27-.14,11.32,11.32,0,0,0-3.33-2.11c-.18-.07-.25-.14-.25-.25a.48.48,0,0,1,.11-.27c.87-1.31.9-1.37,1.1-1.37a10.21,10.21,0,0,1,2.88,1.4c.86.58,1.06.74,1.06.92A4.49,4.49,0,0,1,733.47,270.39Zm6-1.19a8,8,0,0,0-1.33-1.82c-.09-.09-.11-.13-.11-.16s.11-.23.41-.45.4-.27.5-.27.32.14.78.63a4.87,4.87,0,0,1,1,1.37c0,.2-.81.85-1.06.85C739.54,269.34,739.5,269.31,739.43,269.2Zm2.52-1.35a1.2,1.2,0,0,1-.49.25c-.05,0-.09,0-.18-.16a8.91,8.91,0,0,0-1.35-1.76.2.2,0,0,1-.09-.13c0-.16.72-.67.94-.67s.4.2.76.59a4.76,4.76,0,0,1,1,1.33C742.49,267.43,742.35,267.56,742,267.85Z"/><path class="cls-1" d="M749,273.16c-.54.43-.83.61-1,.61s-.16,0-.5-.36a5.55,5.55,0,0,0-1.28-.92,12.83,12.83,0,0,0,4.2-3.78,10.6,10.6,0,0,0,1.6-3.1c1.91.7,2.36.94,2.36,1.19,0,.09-.05.16-.23.29a5.26,5.26,0,0,0-.9,1.19h.32l1.19,0a7.19,7.19,0,0,0,2.76-.25.74.74,0,0,1,.31-.07c.25,0,.5.2,1.06.86.45.5.58.72.58.92s-.05.25-.25.45a4.76,4.76,0,0,0-.63,1,22.46,22.46,0,0,1-5,6.61c-1.6,1.46-4.14,3.17-4.7,3.17a.63.63,0,0,1-.45-.22,4.75,4.75,0,0,0-1.51-1.06,21.82,21.82,0,0,0,6.12-4.27l-.52-.54a12.79,12.79,0,0,0-1.71-1.42c-.11-.09-.14-.14-.14-.22s.23-.36.86-1c.31-.31.38-.36.49-.36a8.3,8.3,0,0,1,2.43,2,15.71,15.71,0,0,0,2.29-3.89c-2.05,0-2.05,0-4.68.05A19.3,19.3,0,0,1,749,273.16Z"/><path class="cls-1" d="M768.2,267.69a.31.31,0,0,1,.22.31.81.81,0,0,1,0,.25,4.74,4.74,0,0,0-.13,1.4c0,4.39-.83,7.2-2.72,9.6-.41.5-.58.67-.76.67a.77.77,0,0,1-.31-.11,5,5,0,0,0-1.75-.65A9.19,9.19,0,0,0,765,276a13.72,13.72,0,0,0,1.06-6,14.06,14.06,0,0,0-.18-2.63A8.69,8.69,0,0,1,768.2,267.69Zm1.93,1.75a15.83,15.83,0,0,0-.16-2.34c1.94.07,2.65.22,2.65.58a.92.92,0,0,1-.09.36,2.24,2.24,0,0,0-.13.67c-.05.49-.05.49-.09,8.41a16.64,16.64,0,0,0,5.29-4.45,9,9,0,0,0,.27,2.16.77.77,0,0,1,.05.31c0,.29-.18.52-1,1.3a16,16,0,0,1-3.91,2.74,3.42,3.42,0,0,0-.85.56.7.7,0,0,1-.41.18,3.49,3.49,0,0,1-1.33-.88c-.36-.36-.52-.63-.52-.86a.87.87,0,0,1,.07-.31,4.54,4.54,0,0,0,.16-1.66Z"/><path class="cls-1" d="M719.45,292a7.6,7.6,0,0,0,.4-1.57c1.57.56,2.52,1.1,2.52,1.44,0,.09,0,.14-.16.29a5,5,0,0,0-.9,1.39,33.2,33.2,0,0,1-2.23,4.05,23.17,23.17,0,0,1,2.23,2.13.68.68,0,0,1,.23.45c0,.18-.22.5-.72,1s-.59.59-.76.59-.18-.05-.32-.22c-1.08-1.22-1.19-1.35-2-2.14a22.22,22.22,0,0,1-5,4.68,2.29,2.29,0,0,1-1.06.52c-.18,0-.2,0-.65-.43a8,8,0,0,0-1.3-.9,17.23,17.23,0,0,0,6.34-5.35,24,24,0,0,0-2.81-2c-.36-.22-.4-.25-.4-.38s.22-.5.79-1.17c.2-.23.34-.32.49-.32a16.29,16.29,0,0,1,3.15,2.09A23.37,23.37,0,0,0,719.45,292Z"/><path class="cls-1" d="M728.36,297.23H728a.39.39,0,0,0-.16,0h-.16a.32.32,0,0,1-.34-.29,9.5,9.5,0,0,1-.14-1.85c1.08.11,3.57.18,7,.18,3.06,0,6.59-.05,7.15-.11h.16c.25,0,.25,0,.25,1.21,0,.79,0,.88-.29.88h-.13c-.83,0-1.17,0-5.4-.09a11.05,11.05,0,0,1-.38,2.77,7.33,7.33,0,0,1-3.42,4.57,2.93,2.93,0,0,1-1.06.5c-.09,0-.16,0-.31-.18a4.45,4.45,0,0,0-1.51-1.15c3.19-1.49,4.36-3.21,4.46-6.54C730.73,297.18,729.74,297.18,728.36,297.23Zm1.85-6.18,1,0c.92.05,1.19.05,2.38.05a49.06,49.06,0,0,0,5-.14h.09c.25,0,.31.13.31.68v.38c0,.11,0,.29,0,.5,0,.49,0,.54-.38.54l-2.77-.05c-.27,0-.72,0-1.37,0-2.3,0-3.92,0-4.5.11a.46.46,0,0,1-.14,0,.27.27,0,0,1-.31-.23,13.05,13.05,0,0,1-.14-1.95A6.57,6.57,0,0,0,730.21,291.06Zm10.26,1.4a7.87,7.87,0,0,0-1.33-1.82c-.11-.11-.11-.11-.11-.16s.11-.22.41-.45.4-.27.5-.27.32.14.77.63a4.74,4.74,0,0,1,1,1.35c0,.11-.05.18-.27.36-.4.34-.65.5-.79.5S740.55,292.57,740.47,292.46Zm2.54-1.35a1.12,1.12,0,0,1-.49.25c-.05,0-.11,0-.18-.16a8.5,8.5,0,0,0-1.35-1.76.27.27,0,0,1-.09-.14,2,2,0,0,1,.92-.65c.14,0,.2,0,.4.22a6.11,6.11,0,0,1,1.33,1.73C743.55,290.7,743.41,290.82,743,291.11Z"/><path class="cls-1" d="M751.5,299.11a18,18,0,0,1-3.62,1.89c-.18,0-.18,0-.52-.38a6.85,6.85,0,0,0-1.12-1,19.82,19.82,0,0,0,6.86-4,8.52,8.52,0,0,0,1.75-2c1,.63,1.67,1.31,1.67,1.58,0,.11-.05.16-.21.23a3.91,3.91,0,0,0-1,.72c-.38.34-1.1.94-1.91,1.55v2.88c0,1.57,0,3.17.09,3.92v.2c0,.29-.18.32-1.31.32-.72,0-.79,0-.79-.22v-.13a3.34,3.34,0,0,1,0-.36c0-.45.05-2,.05-3.75Z"/><path class="cls-1" d="M767.44,291.29c1.5,0,2.63,0,4.84-.07a6,6,0,0,0,1.31-.13.88.88,0,0,1,.31-.05c.34,0,.67.27,1.19,1a2.38,2.38,0,0,1,.63,1.22.5.5,0,0,1-.29.45,2,2,0,0,0-.7.72,18.67,18.67,0,0,1-2.59,2.81c-.47.43-.63.54-.81.54a.36.36,0,0,1-.31-.14,4.55,4.55,0,0,0-1.48-1.15,10.64,10.64,0,0,0,3.42-3.31c-9.27.07-9.27.07-10.33.25a.86.86,0,0,1-.23,0c-.27,0-.43-.16-.52-.52a8.88,8.88,0,0,1-.23-1.84A39.79,39.79,0,0,0,767.44,291.29Zm1.46,3.44c.36.09.5.2.5.38s0,.07-.11.31a6.4,6.4,0,0,0-.27,1.24,11.85,11.85,0,0,1-1.85,5.38,8.81,8.81,0,0,1-3,2.58.82.82,0,0,1-.34.11.45.45,0,0,1-.4-.22,5.07,5.07,0,0,0-1.41-1.12,9,9,0,0,0,2.23-1.39q2.59-2.24,2.59-6.59a8.51,8.51,0,0,0,0-1A9.91,9.91,0,0,1,768.9,294.73Z"/><rect class="cls-6" x="169.93" y="214.54" width="160" height="159.87"/><path class="cls-3" d="M200.34,238.13a1.06,1.06,0,0,1,1.08-1.18c.59,0,.91.32,1.22,1l1.94,4.39h.05l1.9-4.39c.29-.7.62-1,1.21-1a1.05,1.05,0,0,1,1.07,1.18v7.13a.9.9,0,1,1-1.79,0v-4.39h-.07l-1.41,3.26c-.28.64-.51.83-1,.83s-.68-.19-1-.83l-1.42-3.26h-.07v4.39a.9.9,0,1,1-1.79,0Z"/><path class="cls-3" d="M224.47,242.77V238a1,1,0,1,1,2,0v4.84a1.51,1.51,0,0,0,1.53,1.7,1.49,1.49,0,0,0,1.51-1.7V238a1,1,0,1,1,2,0v4.78a3.49,3.49,0,1,1-7,0Z"/><path class="cls-3" d="M247.13,245.5a1,1,0,0,1-.47-.83.86.86,0,0,1,.88-.87,1.15,1.15,0,0,1,.58.16,3.76,3.76,0,0,0,2,.59c1,0,1.49-.44,1.49-1.07s-.32-.87-1.41-1l-.48-.07c-1.86-.25-2.88-1.12-2.88-2.73s1.26-2.78,3.22-2.78a5.27,5.27,0,0,1,2.54.6.89.89,0,0,1,.47.79.84.84,0,0,1-.86.86,1.32,1.32,0,0,1-.58-.15,3.69,3.69,0,0,0-1.57-.37c-.8,0-1.23.4-1.23,1s.36.86,1.42,1l.48.07c1.89.27,2.86,1.11,2.86,2.76s-1.2,2.86-3.57,2.86A5.43,5.43,0,0,1,247.13,245.5Z"/><path class="cls-3" d="M268.82,237.9a.8.8,0,0,1,.86-.87h4.42a.85.85,0,1,1,0,1.7h-3.23a.07.07,0,0,0-.08.08v1.81a.07.07,0,0,0,.08.08h2.58a.84.84,0,1,1,0,1.69h-2.58a.07.07,0,0,0-.08.08v1.89a.07.07,0,0,0,.08.08h3.23a.85.85,0,1,1,0,1.7h-4.42a.8.8,0,0,1-.86-.87Z"/><path class="cls-3" d="M290.27,237.9a.8.8,0,0,1,.86-.87h4.42a.85.85,0,1,1,0,1.7h-3.23a.07.07,0,0,0-.08.08v1.81a.07.07,0,0,0,.08.08h2.58a.84.84,0,1,1,0,1.69h-2.58a.07.07,0,0,0-.08.08v1.89a.07.07,0,0,0,.08.08h3.23a.85.85,0,1,1,0,1.7h-4.42a.8.8,0,0,1-.86-.87Z"/><path class="cls-3" d="M200.34,262.2v-7.27a.8.8,0,0,1,.86-.87H204a2.93,2.93,0,1,1,0,5.85h-1.62a.07.07,0,0,0-.08.08v2.21a1,1,0,1,1-2,0Zm4.87-5.21a1.19,1.19,0,0,0-1.33-1.23h-1.5a.07.07,0,0,0-.08.08v2.29a.07.07,0,0,0,.08.08h1.5A1.18,1.18,0,0,0,205.21,257Z"/><path class="cls-3" d="M213.44,255a1,1,0,1,1,2,0v6.3a.07.07,0,0,0,.08.08h3.24a.88.88,0,1,1,0,1.75h-4.29a.93.93,0,0,1-1-1Z"/><path class="cls-3" d="M225.74,261.95l2.46-6.81c.25-.72.66-1.15,1.35-1.15s1.11.43,1.37,1.15l2.42,6.81a1.1,1.1,0,0,1,.07.38.92.92,0,0,1-1,.92,1,1,0,0,1-.92-.7l-.37-1.11h-3.25l-.36,1.11a1,1,0,0,1-.92.7.92.92,0,0,1-1-.92A1.1,1.1,0,0,1,225.74,261.95Zm4.87-2.18-1-3.18h0l-1.06,3.18Z"/><path class="cls-3" d="M240.74,262.2v-6.3a.07.07,0,0,0-.08-.08h-1.54a.88.88,0,1,1,0-1.75h5.21a.88.88,0,1,1,0,1.75h-1.54a.07.07,0,0,0-.08.08v6.3a1,1,0,1,1-2,0Z"/><path class="cls-3" d="M251.46,255a1,1,0,1,1,2,0v7.17a1,1,0,1,1-2,0Z"/><path class="cls-3" d="M260.18,255.16a1.06,1.06,0,0,1,1.1-1.18c.56,0,.94.33,1.3,1l2.78,5h.05v-5a.9.9,0,1,1,1.79,0v7.13a1.06,1.06,0,0,1-1.1,1.18c-.56,0-.94-.33-1.3-1l-2.78-5H262v5a.9.9,0,1,1-1.79,0Z"/><path class="cls-3" d="M273.92,259.8V255a1,1,0,1,1,2,0v4.84a1.51,1.51,0,0,0,1.53,1.7,1.49,1.49,0,0,0,1.51-1.7V255a1,1,0,1,1,2,0v4.78a3.49,3.49,0,1,1-7,0Z"/><path class="cls-3" d="M287.62,255.16A1.06,1.06,0,0,1,288.7,254c.59,0,.91.32,1.22,1l1.94,4.39h.05l1.9-4.39c.29-.7.62-1,1.21-1a1.05,1.05,0,0,1,1.07,1.18v7.13a.9.9,0,1,1-1.79,0V257.9h-.07l-1.41,3.26c-.28.64-.51.83-1,.83s-.68-.19-1-.83l-1.42-3.26h-.07v4.39a.9.9,0,1,1-1.79,0Z"/><rect class="cls-3" x="180.12" y="282.36" width="47.36" height="81.09"/><line class="cls-7" x1="194.94" y1="332.21" x2="194.94" y2="316.26"/><rect class="cls-8" x="238.3" y="282.36" width="79.21" height="81.09" transform="translate(555.81 645.82) rotate(-180)"/><line class="cls-8" x1="308.16" y1="321.59" x2="276.69" y2="354.77"/><line class="cls-8" x1="309.07" y1="336.02" x2="290.22" y2="356.57"/><rect class="cls-6" x="593.13" y="129.92" width="96.88" height="180" rx="6" ry="6"/><rect class="cls-4" x="598.58" y="158.61" width="85.98" height="122.62"/><circle class="cls-8" cx="641.57" cy="294.82" r="6.97"/><circle class="cls-9" cx="625.18" cy="145.6" r="2.77"/><line class="cls-8" x1="633.31" y1="145.6" x2="655.37" y2="145.6"/><path class="cls-5" d="M641.57,218.56c.89-5.09,3.14-10.27,6.57-13.65s8.56-5.68,13.65-6.56c-5.09-.89-10.27-3.14-13.65-6.56s-5.68-8.56-6.57-13.65c-.89,5.09-3.14,10.27-6.56,13.65s-8.56,5.68-13.66,6.56c5.1.89,10.27,3.14,13.66,6.56s5.68,8.56,6.56,13.65"/><path class="cls-5" d="M608.14,232.34a1,1,0,0,1,1-1.07c.53,0,.82.29,1.1.92l1.76,4h0l1.72-4c.27-.63.56-.92,1.09-.92a1,1,0,0,1,1,1.07v6.46a.81.81,0,1,1-1.62,0v-4h-.06l-1.27,3c-.25.58-.46.75-.87.75s-.62-.17-.87-.75l-1.28-3h-.06v4a.81.81,0,1,1-1.62,0Z"/><path class="cls-5" d="M625,236.54v-4.33a.89.89,0,1,1,1.78,0v4.39a1.37,1.37,0,0,0,1.38,1.54,1.35,1.35,0,0,0,1.37-1.54v-4.39a.89.89,0,1,1,1.78,0v4.33a3.16,3.16,0,1,1-6.31,0Z"/><path class="cls-5" d="M640.59,239a.89.89,0,0,1-.42-.75.78.78,0,0,1,.8-.79,1,1,0,0,1,.52.15,3.4,3.4,0,0,0,1.77.53c.87,0,1.34-.4,1.34-1s-.29-.79-1.27-.92l-.44-.06c-1.68-.23-2.6-1-2.6-2.47s1.14-2.52,2.92-2.52a4.76,4.76,0,0,1,2.3.55.81.81,0,0,1,.42.71.76.76,0,0,1-.78.78,1.19,1.19,0,0,1-.52-.13,3.36,3.36,0,0,0-1.42-.34c-.73,0-1.11.36-1.11.88s.33.78,1.28.91l.44.06c1.71.24,2.59,1,2.59,2.5s-1.09,2.59-3.24,2.59A4.92,4.92,0,0,1,640.59,239Z"/><path class="cls-5" d="M655.27,232.13a.73.73,0,0,1,.78-.79h4a.77.77,0,1,1,0,1.54h-2.92a.06.06,0,0,0-.07.07v1.64a.06.06,0,0,0,.07.07h2.34a.76.76,0,1,1,0,1.53h-2.34a.06.06,0,0,0-.07.07V238a.06.06,0,0,0,.07.07H660a.77.77,0,1,1,0,1.54h-4a.73.73,0,0,1-.78-.79Z"/><path class="cls-5" d="M669.73,232.13a.73.73,0,0,1,.78-.79h4a.77.77,0,1,1,0,1.54h-2.92a.06.06,0,0,0-.07.07v1.64a.06.06,0,0,0,.07.07h2.34a.76.76,0,1,1,0,1.53h-2.34a.06.06,0,0,0-.07.07V238a.06.06,0,0,0,.07.07h2.92a.77.77,0,1,1,0,1.54h-4a.73.73,0,0,1-.78-.79Z"/><path class="cls-5" d="M608.14,254.13v-6.58a.73.73,0,0,1,.78-.79h2.54a2.66,2.66,0,1,1,0,5.29H610a.06.06,0,0,0-.07.07v2a.89.89,0,1,1-1.78,0Zm4.41-4.71a1.08,1.08,0,0,0-1.2-1.12H610a.06.06,0,0,0-.07.07v2.07a.06.06,0,0,0,.07.07h1.36A1.07,1.07,0,0,0,612.55,249.42Z"/><path class="cls-5" d="M616,253.9l2.23-6.17c.23-.65.59-1,1.22-1s1,.39,1.24,1l2.19,6.17a1,1,0,0,1,.06.34.84.84,0,0,1-.86.84.86.86,0,0,1-.84-.63l-.34-1H618l-.33,1a.86.86,0,0,1-.84.63.84.84,0,0,1-.86-.84A1,1,0,0,1,616,253.9Zm4.41-2-.94-2.88h0l-1,2.88Z"/><path class="cls-5" d="M625.83,254.43a.89.89,0,0,1-.42-.75.78.78,0,0,1,.8-.79,1,1,0,0,1,.52.15,3.4,3.4,0,0,0,1.77.53c.87,0,1.34-.4,1.34-1s-.29-.79-1.27-.92l-.44-.06c-1.68-.23-2.6-1-2.6-2.47s1.14-2.52,2.92-2.52a4.76,4.76,0,0,1,2.3.55.81.81,0,0,1,.42.71.76.76,0,0,1-.78.78,1.19,1.19,0,0,1-.52-.13,3.36,3.36,0,0,0-1.42-.34c-.73,0-1.11.36-1.11.88s.33.78,1.28.91l.44.06c1.71.24,2.59,1,2.59,2.5s-1.09,2.59-3.24,2.59A4.92,4.92,0,0,1,625.83,254.43Z"/><path class="cls-5" d="M634.49,254.43a.89.89,0,0,1-.42-.75.78.78,0,0,1,.8-.79,1,1,0,0,1,.52.15,3.4,3.4,0,0,0,1.77.53c.87,0,1.34-.4,1.34-1s-.29-.79-1.27-.92l-.44-.06c-1.68-.23-2.6-1-2.6-2.47s1.14-2.52,2.92-2.52a4.76,4.76,0,0,1,2.3.55.81.81,0,0,1,.42.71.76.76,0,0,1-.78.78,1.19,1.19,0,0,1-.52-.13,3.36,3.36,0,0,0-1.42-.34c-.73,0-1.11.36-1.11.88s.33.78,1.28.91l.44.06c1.71.24,2.59,1,2.59,2.5s-1.09,2.59-3.24,2.59A4.92,4.92,0,0,1,634.49,254.43Z"/><path class="cls-5" d="M642.91,254.13v-6.58a.73.73,0,0,1,.78-.79h2.54a2.66,2.66,0,1,1,0,5.29h-1.47a.06.06,0,0,0-.07.07v2a.89.89,0,1,1-1.78,0Zm4.41-4.71a1.08,1.08,0,0,0-1.2-1.12h-1.36a.06.06,0,0,0-.07.07v2.07a.06.06,0,0,0,.07.07h1.36A1.07,1.07,0,0,0,647.32,249.42Z"/><path class="cls-5" d="M651.76,253.14a11.13,11.13,0,0,1,0-4.51,3.26,3.26,0,0,1,6,0,11.13,11.13,0,0,1,0,4.51,3.26,3.26,0,0,1-6,0Zm4.3-.47a12,12,0,0,0,0-3.56,1.39,1.39,0,0,0-2.59,0,12,12,0,0,0,0,3.56,1.39,1.39,0,0,0,2.59,0Z"/><path class="cls-5" d="M665.23,254.52l-1.38-2.65h-1.21a.06.06,0,0,0-.07.07v2.19a.87.87,0,0,1-.88.94.88.88,0,0,1-.9-.94v-6.58a.73.73,0,0,1,.78-.79h2.62a2.55,2.55,0,0,1,2.81,2.56,2.4,2.4,0,0,1-1.36,2.23l1.2,2.18a1,1,0,0,1,.12.5.81.81,0,0,1-.85.85A.94.94,0,0,1,665.23,254.52Zm0-5.19a1,1,0,0,0-1.12-1h-1.45a.06.06,0,0,0-.07.07v1.9a.06.06,0,0,0,.07.07h1.45A1,1,0,0,0,665.21,249.33Z"/><path class="cls-5" d="M671.51,254.13v-5.71a.06.06,0,0,0-.07-.07H670a.8.8,0,1,1,0-1.59h4.71a.8.8,0,1,1,0,1.59h-1.39a.06.06,0,0,0-.07.07v5.71a.89.89,0,1,1-1.78,0Z"/><circle class="cls-4" cx="513.95" cy="301.95" r="20"/><circle class="cls-3" cx="488.95" cy="262.95" r="20"/></g></svg>