<svg xmlns="http://www.w3.org/2000/svg" viewBox="0 0 300.1 146.79"><defs><style>.cls-1{fill:#4faae3;}.cls-2{fill:#fff;}</style></defs><title>feature3_1</title><g id="feature3_1"><path class="cls-1" d="M51.55,66.24H9.72V143H51.55ZM24.13,113h-3V98.6h3Z"/><path class="cls-1" d="M0,0V146.79H144.71V0ZM52.55,144H8.72V65.24H52.55Zm80.92-.5H61.84V65.74h71.64Z"/><rect class="cls-1" x="91.21" y="120.12" width="41.36" height="1" transform="translate(-52.63 118.78) rotate(-46.51)"/><rect class="cls-1" x="75.8" y="127.46" width="25.22" height="1" transform="translate(-65.65 106.58) rotate(-47.46)"/><path class="cls-2" d="M27.5,24.64a1,1,0,0,1,1-1.06c.53,0,.82.29,1.1.92l1.75,4h0l1.72-4c.27-.63.56-.92,1.09-.92a1,1,0,0,1,1,1.06v6.45a.81.81,0,1,1-1.62,0v-4h-.06l-1.27,3c-.25.58-.46.75-.87.75s-.62-.17-.87-.75l-1.28-3h-.06v4a.81.81,0,1,1-1.62,0Z"/><path class="cls-2" d="M49.33,28.84V24.52a.89.89,0,1,1,1.78,0V28.9a1.37,1.37,0,0,0,1.38,1.54,1.35,1.35,0,0,0,1.37-1.54V24.52a.89.89,0,1,1,1.78,0v4.32a3.15,3.15,0,1,1-6.3,0Z"/><path class="cls-2" d="M69.82,31.3a.89.89,0,0,1-.42-.75.78.78,0,0,1,.8-.79,1,1,0,0,1,.52.15,3.4,3.4,0,0,0,1.77.53c.87,0,1.34-.4,1.34-1s-.29-.79-1.27-.92l-.44-.06c-1.68-.23-2.6-1-2.6-2.47s1.14-2.52,2.92-2.52a4.77,4.77,0,0,1,2.3.54.81.81,0,0,1,.42.71.76.76,0,0,1-.77.77,1.18,1.18,0,0,1-.52-.13,3.35,3.35,0,0,0-1.42-.34c-.73,0-1.11.36-1.11.88s.33.77,1.28.91l.44.06c1.71.24,2.59,1,2.59,2.49S74.56,32,72.41,32A4.91,4.91,0,0,1,69.82,31.3Z"/><path class="cls-2" d="M89.44,24.43a.73.73,0,0,1,.77-.79h4a.77.77,0,1,1,0,1.54H91.29a.06.06,0,0,0-.07.07v1.63a.06.06,0,0,0,.07.07h2.34a.76.76,0,1,1,0,1.53H91.29a.06.06,0,0,0-.07.07v1.71a.06.06,0,0,0,.07.07h2.92a.77.77,0,1,1,0,1.54h-4a.73.73,0,0,1-.77-.79Z"/><path class="cls-2" d="M108.84,24.43a.73.73,0,0,1,.77-.79h4a.77.77,0,1,1,0,1.54h-2.92a.06.06,0,0,0-.07.07v1.63a.06.06,0,0,0,.07.07H113a.76.76,0,1,1,0,1.53h-2.34a.06.06,0,0,0-.07.07v1.71a.06.06,0,0,0,.07.07h2.92a.77.77,0,1,1,0,1.54h-4a.73.73,0,0,1-.77-.79Z"/><path class="cls-2" d="M27.5,46.4V39.83a.73.73,0,0,1,.77-.79h2.54a2.65,2.65,0,1,1,0,5.29H29.36a.06.06,0,0,0-.07.07v2a.89.89,0,1,1-1.78,0Zm4.41-4.71a1.08,1.08,0,0,0-1.2-1.11H29.36a.06.06,0,0,0-.07.07v2.07a.06.06,0,0,0,.07.07h1.36A1.07,1.07,0,0,0,31.91,41.7Z"/><path class="cls-2" d="M39.36,39.92a.89.89,0,1,1,1.78,0v5.7a.06.06,0,0,0,.07.07h2.93a.8.8,0,1,1,0,1.58H40.25a.85.85,0,0,1-.9-.9Z"/><path class="cls-2" d="M50.48,46.17,52.71,40c.23-.65.59-1,1.22-1s1,.39,1.23,1l2.19,6.16a1,1,0,0,1,.06.34.83.83,0,0,1-.86.83.86.86,0,0,1-.83-.63l-.34-1H52.44l-.33,1a.86.86,0,0,1-.83.63.83.83,0,0,1-.86-.83A1,1,0,0,1,50.48,46.17Zm4.4-2-.94-2.88h0L53,44.2Z"/><path class="cls-2" d="M64,46.4v-5.7a.06.06,0,0,0-.07-.07H62.58a.8.8,0,1,1,0-1.59h4.71a.8.8,0,1,1,0,1.59H65.9a.06.06,0,0,0-.07.07v5.7a.89.89,0,1,1-1.78,0Z"/><path class="cls-2" d="M73.74,39.92a.89.89,0,1,1,1.78,0V46.4a.89.89,0,1,1-1.78,0Z"/><path class="cls-2" d="M81.62,40a1,1,0,0,1,1-1.06c.51,0,.85.3,1.17.87l2.52,4.49h0v-4.5a.81.81,0,1,1,1.62,0v6.45a1,1,0,0,1-1,1.06c-.51,0-.85-.3-1.17-.87L83.29,42h0v4.49a.81.81,0,1,1-1.62,0Z"/><path class="cls-2" d="M94.05,44.24V39.92a.89.89,0,1,1,1.78,0V44.3a1.37,1.37,0,0,0,1.38,1.54,1.35,1.35,0,0,0,1.37-1.54V39.92a.89.89,0,1,1,1.78,0v4.32a3.15,3.15,0,1,1-6.3,0Z"/><path class="cls-2" d="M106.44,40a1,1,0,0,1,1-1.06c.53,0,.82.29,1.1.92l1.75,4h0l1.72-4c.27-.63.56-.92,1.09-.92a1,1,0,0,1,1,1.06v6.45a.81.81,0,1,1-1.62,0v-4h-.06l-1.27,3c-.25.58-.46.75-.87.75s-.62-.17-.87-.75l-1.28-3h-.06v4a.81.81,0,1,1-1.62,0Z"/><path class="cls-1" d="M250.08,125.18a4.24,4.24,0,0,0-.76-.07,4.21,4.21,0,1,0,.76.07Z"/><path class="cls-1" d="M295.17,24.65l-52.47-9.5a6,6,0,0,0-7,4.83L216.23,127.61a6,6,0,0,0,4.83,7l52.47,9.5a6,6,0,0,0,7-4.83L300,31.62A6,6,0,0,0,295.17,24.65Zm-33.52,4.17,14.64,2.65-.18,1L261.47,29.8ZM254.33,28a1.87,1.87,0,1,1,1.5,2.17A1.87,1.87,0,0,1,254.33,28Zm.12,102.24a5.2,5.2,0,0,1-5.1,4.27,5.25,5.25,0,0,1-.94-.08,5.2,5.2,0,1,1,6-4.19Zm24.83-4.78-57-10.33L237,33.77,294,44.1Z"/><polygon class="cls-1" points="200.41 80.98 201.96 88.56 186.67 73.28 201.96 57.99 200.41 65.58 202.38 65.98 204.88 53.66 192.56 56.16 192.96 58.12 200.54 56.58 185.26 71.86 169.97 56.58 177.56 58.12 177.96 56.16 165.64 53.66 168.14 65.98 170.1 65.58 168.56 57.99 183.84 73.28 168.56 88.56 170.1 80.98 168.14 80.58 165.64 92.9 177.96 90.4 177.56 88.44 169.97 89.98 185.26 74.69 200.54 89.98 192.96 88.44 192.56 90.39 204.88 92.9 202.38 80.58 200.41 80.98"/></g></svg>