<svg xmlns="http://www.w3.org/2000/svg" viewBox="0 0 186.73 170"><defs><style>.cls-1{fill:#4faae3;}</style></defs><title>feature3_2</title><g id="feature3_2"><path class="cls-1" d="M90.83,99.51a2.5,2.5,0,0,1,2.65-2.6,3.08,3.08,0,0,1,2.71,1.87,5.14,5.14,0,0,0,5,2.7,5,5,0,0,0,5.3-5.36,5.35,5.35,0,0,0-5.62-5.62h-.52a2.6,2.6,0,1,1,0-5.2h.52c2.86,0,4.84-2,4.84-5.15a4.43,4.43,0,0,0-4.78-4.78c-2.5,0-3.8,1-4.52,2.65a2.91,2.91,0,0,1-2.6,1.82,2.53,2.53,0,0,1-2.65-2.6,3.44,3.44,0,0,1,.31-1.4c1.3-3.12,4.58-5.67,9.67-5.67,6.55,0,10.45,4.06,10.45,9.62a8.65,8.65,0,0,1-4,7.49v.1c2.24,1,4.68,4,4.68,8.68,0,6.29-4.68,10.61-11.08,10.61-5.25,0-8.79-2.39-10.14-5.77A4.45,4.45,0,0,1,90.83,99.51Z"/><path class="cls-1" d="M121.51,93c-1.78,0-2.4,0-2.52,0s-.24,0-.24-.22V91.23c0-.2,0-.22.24-.22s.74,0,2.52,0h12c1.8,0,2.42,0,2.54,0s.2,0,.2.22v1.64c0,.2,0,.22-.2.22s-.74,0-2.54,0h-6.94c0,1.18-.08,2.24-.18,3.22h5.2c1.7,0,2.28,0,2.4,0s.22,0,.22.22c0,.58,0,1.44,0,2a35.75,35.75,0,0,1-.68,6.4c-.42,2-1.38,2.76-3.36,2.76a17.25,17.25,0,0,1-1.88-.08c-.62-.06-.62-.08-.76-.74a6.12,6.12,0,0,0-.52-1.58,17,17,0,0,0,2.9.26c.74,0,1.28-.28,1.5-1.34a31.81,31.81,0,0,0,.58-5.82h-5.84a17.06,17.06,0,0,1-1,3.4,12.63,12.63,0,0,1-4.64,5.8c-.22.16-.34.24-.44.24s-.22-.14-.44-.42a4.58,4.58,0,0,0-1.3-1.06,10.67,10.67,0,0,0,4.78-5.42A21.61,21.61,0,0,0,124.39,93Z"/><path class="cls-1" d="M154.52,107.17c-.16.34-.22.48-.36.48s-.22-.08-.46-.24a15.94,15.94,0,0,1-7.06-9.56,14.92,14.92,0,0,1-7.24,9.58,1.28,1.28,0,0,1-.46.2c-.14,0-.22-.14-.4-.48a5.48,5.48,0,0,0-1.16-1.34c5.26-2.44,7.82-7.44,7.78-13,0-.88,0-1.72-.14-2.6.78,0,1.74.14,2.46.24.26,0,.38.16.38.32a.85.85,0,0,1-.2.5,3.27,3.27,0,0,0-.16,1.32c0,.24,0,.48,0,.72.86,5.86,3.38,9.74,8.16,12.34A5.42,5.42,0,0,0,154.52,107.17Z"/><path class="cls-1" d="M161.94,101.61c.64-.28,1.28-.58,2-.92a8.13,8.13,0,0,0,0,1.22c0,.66,0,.66-.52.94a36.41,36.41,0,0,1-3.8,1.64,2.84,2.84,0,0,0-.84.4.48.48,0,0,1-.34.16c-.12,0-.2-.08-.28-.26a11.34,11.34,0,0,1-.56-1.8,13.93,13.93,0,0,0,2-.5,3.53,3.53,0,0,0,.42-.14V96.67h-.16c-1.3,0-1.68,0-1.8,0s-.22,0-.22-.22V95c0-.2,0-.22.22-.22s.5,0,1.8,0H160V93a21.74,21.74,0,0,0-.16-3c.76,0,1.4.06,2.06.14.2,0,.32.12.32.22a1.13,1.13,0,0,1-.12.42,8.19,8.19,0,0,0-.12,2.22v1.82c1.06,0,1.42,0,1.54,0s.22,0,.22.22v1.52c0,.2,0,.22-.22.22l-1.54,0ZM167,89.73c.22-.08.3-.1.44.06a12.07,12.07,0,0,1,1.4,1.94c.12.18.06.2-.18.3l-1.22.52h2.78a16.11,16.11,0,0,0,1.06-1.92,4.7,4.7,0,0,0,.34-1,12.77,12.77,0,0,1,1.92.5c.18.06.28.14.28.24s-.06.24-.22.34a1.48,1.48,0,0,0-.32.4c-.22.36-.56.92-.92,1.42h.14c1.88,0,2.56,0,2.7,0s.2,0,.2.24,0,.64,0,1.84v2.92c0,1.2,0,1.72,0,1.84s0,.24-.2.24-.82,0-2.7,0h-5.4c-1.9,0-2.56,0-2.7,0s-.22,0-.22-.24,0-.64,0-1.84V94.59c0-1.2,0-1.72,0-1.84s0-.24.22-.24.78,0,2.62,0l0-.08a10,10,0,0,0-1.34-2c-.16-.18-.1-.22.16-.32Zm-1.56,18.34c-.22,0-.24,0-.24-.22s0-.62,0-3.36v-1.6c0-1.54,0-2.08,0-2.22s0-.22.24-.22.7,0,2.42,0h3.9c1.72,0,2.32,0,2.46,0s.22,0,.22.22,0,.68,0,1.94v1.84c0,2.72,0,3.24,0,3.34s0,.22-.22.22h-1.6c-.2,0-.22,0-.22-.22v-.62h-5.2v.68c0,.2,0,.22-.22.22Zm3.32-12.72V94h-2.64v1.34Zm0,2.72V96.73h-2.64v1.34Zm-1.56,5h5.2V102h-5.2Zm5.2,2.56v-1.14h-5.2v1.14ZM170.64,94v1.34h2.84V94Zm2.84,2.72h-2.84v1.34h2.84Z"/><path class="cls-1" d="M120.84,78.28c-1.32,0-1.77,0-1.86,0s-.15,0-.15-.17V77.07c0-.15,0-.17.15-.17s.54,0,1.86,0h.5c.12-.71.21-1.38.3-2,0-.35.06-.66.08-1,0-.15,0-.18.18-.18s.57,0,2,0h4.21c1.42,0,1.93,0,2,0s.18,0,.18.18c0,.42,0,.88-.06,1.26l-.09,1.77h.17c1.32,0,1.77,0,1.86,0s.15,0,.15.17v1.08c0,.15,0,.17-.15.17s-.54,0-1.86,0H130c0,.67-.11,1.35-.18,2,1.17,0,1.63,0,1.73,0s.17,0,.17.15v1c0,.15,0,.17-.17.17s-.58,0-1.87,0v.08a1.92,1.92,0,0,1-2.22,1.93c-.19,0-.43,0-.63,0s-.3,0-.4-.5a2.58,2.58,0,0,0-.36-.94c.46,0,.88.06,1.25.06a.7.7,0,0,0,.83-.63h-6.24l-.18.74c0,.18-.09.25-.32.22l-1.12-.12c-.29,0-.27-.1-.21-.29a9.12,9.12,0,0,0,.36-1.18c.22-.84.43-1.75.62-2.67Zm1.38-5.43A12.82,12.82,0,0,1,120.45,75c-.15.17-.24.25-.32.25s-.15-.1-.3-.31a3.56,3.56,0,0,0-.84-.81,8.91,8.91,0,0,0,2.8-3.66,3.94,3.94,0,0,0,.22-.81c.51.09,1.11.23,1.42.3.15,0,.26.12.26.21a.38.38,0,0,1-.17.29,1.18,1.18,0,0,0-.32.51l-.22.47h6.54c1.47,0,2,0,2.07,0s.17,0,.17.17v1.11c0,.15,0,.17-.17.17s-.6,0-2.07,0Zm2.23,7.42c.12-.67.23-1.33.33-2h-2.14c-.12.66-.24,1.32-.39,2Zm-1.33-5.22c-.08.62-.17,1.25-.26,1.88H125c.08-.62.13-1.25.19-1.87Zm3.12,3.22c-.09.67-.19,1.33-.31,2h2.44c.06-.62.14-1.29.2-2Zm.35-3.22c-.06.64-.11,1.26-.18,1.88h2.25c0-.65.08-1.28.11-1.87Z"/><path class="cls-1" d="M150.25,78.67c0,1,0,2.18,0,3a1.7,1.7,0,0,1-.48,1.4c-.39.36-.9.43-2.49.43-.46,0-.5,0-.55-.46a4.16,4.16,0,0,0-.39-1.26c.64.06,1.12.08,1.71.08a.47.47,0,0,0,.52-.53V78.7h-5.35a7.84,7.84,0,0,1-2.16,4.65c-.15.17-.22.25-.31.25s-.18-.08-.35-.24a3.42,3.42,0,0,0-1.08-.71c2-1.84,2.48-3.12,2.48-7.68V72.78c0-1.27,0-2,0-2s0-.18.17-.18.6,0,2,0h4.17c1.39,0,1.88,0,2,0s.17,0,.17.18,0,.77,0,2Zm-1.63-1.42v-1.9h-5.14c0,.71,0,1.33-.06,1.9Zm-5.14-5.17v1.82h5.14V72.07Z"/><path class="cls-1" d="M77.09,101.44S55.51,66.32,54.77,65c-2.47-4.47-6.16-8.23-11.13-9.67a21.18,21.18,0,0,0,10.74-6.71h0a11.25,11.25,0,0,0,3.14,3.48c6.12,3.4,11.85,3.12,14.65,1.58a.63.63,0,0,0,0-1.12c-5.56-2.94-6.63-14.46-6-29.16C66.88,9.68,57.21-.3,45,0a11.62,11.62,0,0,0-8.88,3.88c-12.81.78-23,12.12-23,26A27.68,27.68,0,0,0,14.8,39.3c.57,1.57,2,2.88,4.13,3.94h0a21.26,21.26,0,0,0,14.6,12.19A17.58,17.58,0,0,0,23.25,64L.33,101.44a3.5,3.5,0,0,0,1.87,4.72A3.82,3.82,0,0,0,7,104.69L23.89,78.84l-.07,13L11.38,121.08H23.16l5,44.34c.2,2.6,2,4.59,4.22,4.59,2.34,0,2.54-2.27,2.54-5.06V121.08h6.81v43.86c0,2.79.2,5.06,2.54,5.06,2.19,0,4-2,4.22-4.59l3.33-44.34H66.17L53.72,91.83l0-12.8,16.78,25.66a3.82,3.82,0,0,0,4.77,1.47A3.5,3.5,0,0,0,77.09,101.44Zm-39-67.71a2.45,2.45,0,0,1-2-.27,1.64,1.64,0,0,1-.75-1.17v0a30.74,30.74,0,0,1-6.22,2.48,2.88,2.88,0,0,1-2.35-.31,2,2,0,0,1-.72-.84,26.94,26.94,0,0,1-5.91,2.11l-.28-1.22a26,26,0,0,0,6.34-2.37l.8-.42.15,1.26a.66.66,0,0,0,.31.45,1.65,1.65,0,0,0,1.32.14,28.89,28.89,0,0,0,6.76-2.82l.82-.48.23,1.9a.41.41,0,0,0,.2.28,1.2,1.2,0,0,0,1,.1c6.1-1.72,9.9-5.28,12-11.19l1.18.41C48.72,28.08,44.65,31.89,38.12,33.73Z"/><path class="cls-1" d="M171.73,85.69a19.13,19.13,0,0,1,4.87-10.13,19.14,19.14,0,0,1,10.13-4.87,19.14,19.14,0,0,1-10.13-4.87,19.13,19.13,0,0,1-4.87-10.13,19.16,19.16,0,0,1-4.87,10.13,19.18,19.18,0,0,1-10.13,4.87,19.16,19.16,0,0,1,10.13,4.87,19.12,19.12,0,0,1,4.87,10.13"/></g></svg>