<svg xmlns="http://www.w3.org/2000/svg" viewBox="0 0 257.33 203.45"><defs><style>.cls-1{fill:#4faae3;}.cls-2{fill:#e6e6e6;}.cls-3{fill:#303030;opacity:0.7;}.cls-4,.cls-5{fill:none;stroke-miterlimit:10;stroke-width:81px;}.cls-4{stroke:#4faae3;}.cls-5{stroke:#e6e6e6;}.cls-6{fill:#fff;}</style></defs><title>feature2_2</title><g id="feature2_2"><path class="cls-1" d="M257.16,52.42S246,34.27,245.63,33.58a9.91,9.91,0,0,0-5.75-5,11,11,0,0,0,5.55-3.47h0a5.81,5.81,0,0,0,1.62,1.8c3.17,1.76,6.13,1.61,7.57.82a.32.32,0,0,0,0-.58c-2.87-1.52-3.43-7.47-3.08-15.07C251.88,5,246.89-.16,240.6,0A6,6,0,0,0,236,2c-6.62.4-11.88,6.26-11.88,13.45a14.3,14.3,0,0,0,.84,4.85,4,4,0,0,0,2.13,2,11,11,0,0,0,7.54,6.3,9.08,9.08,0,0,0-5.31,4.44L217.5,52.42a1.81,1.81,0,0,0,1,2.44,2,2,0,0,0,2.47-.76l8.74-13.36,0,6.71L223.2,62.57h6.09l2.6,22.91a2.38,2.38,0,0,0,2.18,2.37c1.21,0,1.31-1.17,1.31-2.61V62.57h3.52V85.23c0,1.44.1,2.61,1.31,2.61a2.38,2.38,0,0,0,2.18-2.37l1.72-22.91h7.4l-6.43-15.11,0-6.61,8.67,13.26a2,2,0,0,0,2.47.76A1.81,1.81,0,0,0,257.16,52.42ZM237,17.48a1.32,1.32,0,0,1-1.08-.14.91.91,0,0,1-.4-.58A16,16,0,0,1,232.39,18a1.54,1.54,0,0,1-1.26-.17,1.08,1.08,0,0,1-.37-.41,14,14,0,0,1-3,1.07l-.17-.73a13.4,13.4,0,0,0,3.26-1.22l.48-.25.08.73a.29.29,0,0,0,.14.19.8.8,0,0,0,.64.07,14.85,14.85,0,0,0,3.48-1.45l.5-.29.12,1.06a.16.16,0,0,0,.08.11.56.56,0,0,0,.46,0A8.45,8.45,0,0,0,243,11l.71.25A9.15,9.15,0,0,1,237,17.48Z"/><path class="cls-2" d="M257.16,167.57s-11.29-18.37-11.68-19.08a10,10,0,0,0-5.82-5.06,11,11,0,0,0,3.82-1.84h.34a12.72,12.72,0,0,0,9.57-1,.31.31,0,0,0,0-.53c-2.63-1.26-2.85-6.28-2.8-8.68,0-.4.06-1.28.06-1.28v0a13.77,13.77,0,1,0-27.53,0v0s0,.86.06,1.28c0,2.39-.17,7.42-2.8,8.68a.31.31,0,0,0,0,.53,12.13,12.13,0,0,0,9.41,1h.58a11,11,0,0,0,4.07,1.89A9.2,9.2,0,0,0,229,148l-12,19.58a1.83,1.83,0,0,0,1,2.47,2,2,0,0,0,2.5-.77l8.85-13.53-6.55,27.89h6.16L231.57,201a2.41,2.41,0,0,0,2.21,2.4c1.23,0,1.33-1.19,1.33-2.65V183.64h3.57V200.8c0,1.46.1,2.65,1.33,2.65a2.41,2.41,0,0,0,2.21-2.4L244,183.64h7.49l-6.54-27.79,8.78,13.43a2,2,0,0,0,2.5.77A1.83,1.83,0,0,0,257.16,167.57ZM236.72,124c-1.58,4.18-4.63,7.37-8,8.24l-.19-.72c3.37-.88,6.43-4.33,7.8-8.78l.36-1.16.36,1.16c1.39,4.52,4.64,8.07,8.09,8.85l-.16.73C241.52,131.54,238.35,128.33,236.72,124Z"/><path class="cls-3" d="M116.8,118.85l-.27-.7,3.74-1.43.27.7Zm5.6-2.15-.27-.7,3.74-1.43.27.7Zm5.6-2.15-.27-.7,3.74-1.43.27.7Zm5.6-2.15-.27-.7,3.74-1.43.27.7Zm5.6-2.15-.27-.7,3.74-1.43.27.7Zm5.6-2.15-.27-.7,3.74-1.43.27.7Zm5.6-2.15-.27-.7,3.74-1.43.27.7Zm5.6-2.15-.27-.7,3.74-1.43.27.7Zm5.6-2.15-.27-.7,3.74-1.43.27.7Zm5.6-2.15-.27-.7,3.74-1.43.27.7Zm5.6-2.15-.27-.7,3.74-1.43.27.7Zm5.6-2.15-.27-.7,3.74-1.43.27.7ZM184,93.1l-.27-.7L187.51,91l.27.7Zm5.6-2.15-.27-.7,3.74-1.43.27.7Zm5.6-2.15-.27-.7,3.74-1.43.27.7Z"/><line class="cls-4" y1="45.5" x2="200" y2="45.5"/><line class="cls-5" y1="158.51" x2="116.67" y2="158.51"/><path class="cls-6" d="M70.26,36.75h-.08L67,39a2.48,2.48,0,0,1-1.43.42,2,2,0,0,1-2-2.06,2.66,2.66,0,0,1,1.26-2.06L69.46,32A4.91,4.91,0,0,1,72.4,31,2.51,2.51,0,0,1,75,33.73V57.46a2.36,2.36,0,1,1-4.71,0Z"/><path class="cls-6" d="M86.18,54.18a3,3,0,1,1-3,3A3,3,0,0,1,86.18,54.18Z"/><path class="cls-6" d="M95.74,44.82l6.93-12.56a2.28,2.28,0,0,1,2.1-1.3,2.07,2.07,0,0,1,2.18,2.1,2.77,2.77,0,0,1-.34,1.34L101.7,43l.08.08a5.44,5.44,0,0,1,2.14-.38,8,8,0,0,1,8.15,8.44c0,5.84-4,9-9.12,9S93.85,57,93.85,51.37A14.05,14.05,0,0,1,95.74,44.82ZM103,56a4.19,4.19,0,0,0,4.37-4.54,4.37,4.37,0,1,0-8.74,0A4.19,4.19,0,0,0,103,56Z"/><path class="cls-6" d="M121.11,50.34q-.54.78-1.14,1.5c-.16.18-.26.26-.34.26s-.16-.1-.22-.34a7,7,0,0,0-.7-1.72,17.55,17.55,0,0,0,3.64-6.42,6.06,6.06,0,0,0,.32-1.42c.64.18,1.34.38,1.92.6.22.1.32.16.32.3s-.06.22-.22.36-.22.28-.4.8a28.68,28.68,0,0,1-1.14,2.66V57.34c0,2,0,2.94,0,3s0,.22-.22.22h-1.7c-.18,0-.2,0-.2-.22s0-1.08,0-3Zm6.2,1.36c-2,0-2.62,0-2.74,0s-.24,0-.24-.22V50.06c0-.2,0-.22.24-.22s.78,0,2.74,0h4.28a16.41,16.41,0,0,0,.86-2.28,4.08,4.08,0,0,0,.24-1.1c.64.12,1.34.3,1.94.46.2.08.34.18.34.3a.36.36,0,0,1-.14.3,1.39,1.39,0,0,0-.36.54c-.26.6-.5,1.14-.82,1.78h.76c2,0,2.62,0,2.74,0s.22,0,.22.22v1.46c0,.2,0,.22-.22.22s-.78,0-2.74,0Zm.62-5.4c-1.92,0-2.58,0-2.7,0s-.2,0-.2-.22V44.63c0-.18,0-.2.2-.2s.78,0,2.7,0h1.54v-.38a8.56,8.56,0,0,0-.12-1.74c.76,0,1.48.06,2.12.12.2,0,.34.08.34.2a.87.87,0,0,1-.14.4,2.67,2.67,0,0,0-.1,1v.36h2.16c1.9,0,2.56,0,2.68,0s.24,0,.24.2v1.48c0,.2,0,.22-.24.22s-.78,0-2.68,0Zm-2,14.26c-.22,0-.24,0-.24-.24s0-.62,0-3.38V55.58c0-1.56,0-2.12,0-2.24s0-.24.24-.24.76,0,2.56,0h4.42c1.8,0,2.4,0,2.54,0s.22,0,.22.24,0,.66,0,2V56.9c0,2.74,0,3.26,0,3.38s0,.2-.22.2h-1.66c-.22,0-.24,0-.24-.2v-.8h-5.78v.84c0,.22,0,.24-.22.24Zm2.24-14c.22-.08.28-.06.38.12a15.36,15.36,0,0,1,1,2.14c.08.18,0,.26-.18.34l-1.36.5c-.3.1-.32.12-.42-.14a15,15,0,0,0-.9-2.1c-.1-.18-.1-.26.18-.36Zm-.4,11.08h5.78V54.94h-5.78Z"/></g></svg>