<svg xmlns="http://www.w3.org/2000/svg" viewBox="0 0 227 227"><defs><style>.cls-1,.cls-2{fill:none;stroke-miterlimit:10;stroke-width:32px;}.cls-1{stroke:#e6e6e6;}.cls-2{stroke:#4faae3;}.cls-3{fill:#4faae3;}</style></defs><title>feature1_2</title><g id="feature1_2"><circle class="cls-1" cx="113.5" cy="113.5" r="97.5"/><path class="cls-2" d="M113.5,16A97.47,97.47,0,1,1,32.61,59"/><path class="cls-3" d="M84.33,123.94v-.1a8.84,8.84,0,0,1-3.64-7.23c0-5.3,3.8-10.09,10.61-10.09S102,111.3,102,116.61a8.84,8.84,0,0,1-3.64,7.23v.1a9.85,9.85,0,0,1,4.42,8.48c0,6.29-4.73,10.61-11.44,10.61s-11.39-4.32-11.39-10.61A9.85,9.85,0,0,1,84.33,123.94Zm7,13.88a5.67,5.67,0,1,0-5.51-5.67A5.32,5.32,0,0,0,91.29,137.82Zm4.79-21.32a4.76,4.76,0,1,0-4.79,4.78A4.65,4.65,0,0,0,96.08,116.5Z"/><path class="cls-3" d="M108,124.77c0-8.22.26-9.88.73-11.34,1.4-4.42,4.78-6.92,10-6.92s8.63,2.5,10.09,6.92c.47,1.46.73,3.12.73,11.34s-.26,9.88-.73,11.34C127.4,140.53,124,143,118.77,143s-8.63-2.5-10-6.92C108.26,134.65,108,133,108,124.77Zm10.76,13.05a4.2,4.2,0,0,0,4.37-2.81c.36-1.09.47-2.29.47-10.24s-.1-9.15-.47-10.24a4.2,4.2,0,0,0-4.37-2.81,4.14,4.14,0,0,0-4.32,2.81c-.36,1.09-.47,2.29-.47,10.24s.1,9.15.47,10.24A4.14,4.14,0,0,0,118.77,137.82Z"/><path class="cls-3" d="M135.78,129a8.1,8.1,0,0,1-.25-2.8,8.1,8.1,0,0,1,.25-2.8,3.7,3.7,0,0,1,6.78,0,8.1,8.1,0,0,1,.25,2.8,8.1,8.1,0,0,1-.25,2.8,3.7,3.7,0,0,1-6.78,0Zm4.62-.62a17.15,17.15,0,0,0,0-4.37,1.34,1.34,0,0,0-2.46,0,17.15,17.15,0,0,0,0,4.37,1.34,1.34,0,0,0,2.46,0Zm-1.68,10.86,10.19-17.64a1.1,1.1,0,0,1,1-.62,1,1,0,0,1,1,1,1.33,1.33,0,0,1-.2.64l-10.19,17.61a1.08,1.08,0,0,1-1,.64,1,1,0,0,1-1-1A1.31,1.31,0,0,1,138.72,139.25Zm7.92-3.56a8.13,8.13,0,0,1,.25-2.8,3.7,3.7,0,0,1,6.78,0,8.1,8.1,0,0,1,.25,2.8,8.1,8.1,0,0,1-.25,2.8,3.7,3.7,0,0,1-6.78,0A8.12,8.12,0,0,1,146.65,135.69Zm3.64,3a1.2,1.2,0,0,0,1.23-.81,17,17,0,0,0,0-4.37,1.34,1.34,0,0,0-2.46,0,17.15,17.15,0,0,0,0,4.37A1.2,1.2,0,0,0,150.29,138.69Z"/><path class="cls-3" d="M90.75,84c1.32,0,1.72,0,1.84,0s.24,0,.24.24c0,.68,0,1.26,0,1.9a74.28,74.28,0,0,1-.44,9.1c-.24,1.48-.64,2.2-2.18,2.2a7.54,7.54,0,0,1-1,0c-.38,0-.38,0-.44-.68a4.7,4.7,0,0,0-.38-1.34,7.61,7.61,0,0,0,1.36.14c.66,0,.74-.22.9-1.26A61.07,61.07,0,0,0,91,85.77H90a40.06,40.06,0,0,1-.62,5.64,14.39,14.39,0,0,1-2.46,5.74c-.14.18-.22.26-.3.26s-.2-.1-.38-.28a4.16,4.16,0,0,0-1.1-.88l.44-.56a2.73,2.73,0,0,1-.46.1c-1.26.22-3.26.52-5,.72a2.07,2.07,0,0,0-.76.18.52.52,0,0,1-.28.1c-.08,0-.16-.12-.2-.34-.1-.42-.18-.92-.28-1.62.58,0,1.1,0,1.78,0,.48,0,1-.06,1.58-.12V93.61h-.62c-1.46,0-1.92,0-2,0s-.22,0-.22-.22V92.27c0-.2,0-.22.22-.22s.58,0,2,0H82v-1h-.48c-1.5,0-2,0-2.12,0s-.24,0-.24-.22,0-.58,0-1.62v-2c0-1.08,0-1.52,0-1.66s0-.2.24-.2.62,0,2.12,0H82v-1h-.74c-1.56,0-2.08,0-2.2,0s-.22,0-.22-.22V83.11c0-.2,0-.22.22-.22s.64,0,2.2,0H82V82c-.48.06-1,.12-1.46.16s-.52,0-.68-.38a4.9,4.9,0,0,0-.56-1,5,5,0,0,0-.18.52,30.25,30.25,0,0,1-1.16,3v10c0,1.94,0,2.92,0,3s0,.22-.22.22h-1.5c-.2,0-.22,0-.22-.22s0-1.08,0-3v-4.5c0-.68,0-1.5,0-2.3l-.8,1.1c-.14.18-.26.3-.36.3s-.14-.12-.2-.36a7.45,7.45,0,0,0-.52-1.82,17.61,17.61,0,0,0,3.06-6.12,7.75,7.75,0,0,0,.3-1.42,15.85,15.85,0,0,1,1.8.58c.2.08.32.16.32.3s-.08.24-.24.38a.57.57,0,0,0-.14.16,31.83,31.83,0,0,0,5.2-.7,3.22,3.22,0,0,0,.86-.34,9.93,9.93,0,0,1,1,1.14.59.59,0,0,1,.12.34c0,.16-.1.22-.26.22a3.38,3.38,0,0,0-.6.06c-.68.14-1.36.26-2.08.36v1.12h.56c1.56,0,2.08,0,2.2,0s.2,0,.2.22v1.18c0,.2,0,.22-.2.22s-.64,0-2.2,0h-.56v1h.5c1.5,0,2,0,2.12,0s.24,0,.24.2,0,.58,0,1.66v2c0,1,0,1.5,0,1.62s0,.22-.24.22-.62,0-2.12,0h-.5v1h.26c1.46,0,1.92,0,2,0s.24,0,.24.22v1.16c0,.2,0,.22-.24.22s-.58,0-2,0h-.26v.88c.72-.1,1.52-.22,2.34-.36a8.12,8.12,0,0,0-.16.9l-.06.4a12.42,12.42,0,0,0,1.92-4.58,31.72,31.72,0,0,0,.54-5.08l-1.18,0c-.2,0-.22,0-.22-.22V84.17c0-.2,0-.22.22-.22s.4,0,1.22,0c0-.5,0-1,0-1.54a21.79,21.79,0,0,0-.14-2.84c.6,0,1.38.08,1.86.14.2,0,.32.12.32.22a3.4,3.4,0,0,1-.14.52,11,11,0,0,0-.1,2c0,.5,0,1,0,1.46ZM82,87.65v-1H80.73v1Zm0,2.2v-1H80.73v1Zm1.62-3.2v1h1.3v-1Zm1.3,2.16h-1.3v1h1.3Z"/><path class="cls-3" d="M107.39,81.37a.49.49,0,0,1,.16.32.4.4,0,0,1-.28.38,3.78,3.78,0,0,0-1,.7c-1.72,1.54-3.92,3.6-5.46,5.2-.18.22-.26.34-.26.44s.08.22.26.36a55.54,55.54,0,0,1,7.44,6.3.48.48,0,0,1,.14.26c0,.08,0,.14-.14.24-.46.5-1,1.08-1.38,1.38-.12.1-.2.16-.28.16s-.14-.06-.24-.18a50.54,50.54,0,0,0-7.28-6.76c-.76-.58-1.06-1-1.06-1.68s.36-1.1,1-1.76c1.7-1.84,3.36-3.5,5.08-5.38a5.75,5.75,0,0,0,1.08-1.5A16,16,0,0,1,107.39,81.37Z"/><path class="cls-3" d="M129.78,97c-.18.24-.24.26-.42.12a53.57,53.57,0,0,0-5.1-3.38A14.76,14.76,0,0,1,116,97.33a4.08,4.08,0,0,1-.44,0c-.2,0-.28-.14-.44-.54a5,5,0,0,0-.88-1.42c3.5-.3,6.12-1.22,8-2.8-1.16-.6-2.32-1.12-3.5-1.6-.2.32-.44.7-.66,1s-.18.2-.42.08l-1.44-.64c-.26-.1-.3-.18-.16-.38a15.84,15.84,0,0,0,1.14-1.74c.54-1,1.1-2.14,1.62-3.32h-2.16c-1.78,0-2.38,0-2.5,0s-.22,0-.22-.22V84.27c0-.22,0-.24.22-.24s.72,0,2.5,0h3c.34-.88.62-1.74.86-2.54a12.78,12.78,0,0,0,.42-2,14.57,14.57,0,0,1,2.16.38c.26.06.34.18.34.34s-.08.24-.22.4a3.11,3.11,0,0,0-.42.92c-.26.84-.54,1.66-.82,2.46h7c1.78,0,2.38,0,2.5,0s.24,0,.24.24v1.56c0,.2,0,.22-.24.22s-.72,0-2.5,0h-.76a16.21,16.21,0,0,1-2.54,6.08c1.7.94,3.42,2,5.18,3.24.18.12.16.16,0,.38Zm-8.58-11c-.48,1.16-1,2.24-1.52,3.28a39.64,39.64,0,0,1,4.06,1.78A12.91,12.91,0,0,0,126,86Z"/><path class="cls-3" d="M136.92,83.73c.26.06.3.1.28.32a17.44,17.44,0,0,1-.64,4.38c-.06.2-.1.16-.32.08l-1-.4c-.26-.1-.28-.2-.22-.4a16.58,16.58,0,0,0,.64-4.06c0-.2,0-.18.32-.12Zm.8-1.38a18.31,18.31,0,0,0-.16-3c.76,0,1.44.06,2.1.14.2,0,.32.12.32.22a.9.9,0,0,1-.1.38,7.9,7.9,0,0,0-.14,2.22V93.91c0,2.26,0,3.4,0,3.5s0,.24-.22.24H137.9c-.2,0-.22,0-.22-.24s0-1.24,0-3.48Zm3.12.36c.22-.08.28-.06.36.12a19.82,19.82,0,0,1,.78,2.46,17.76,17.76,0,0,0,.94-3.24,10.9,10.9,0,0,0,.14-1.44,15.43,15.43,0,0,1,1.92.5c.26.1.34.18.34.28a.37.37,0,0,1-.12.28,1.44,1.44,0,0,0-.24.62q-.15.72-.36,1.5h1.84V82.35a21.08,21.08,0,0,0-.16-3c.76,0,1.5.06,2.18.14.2,0,.32.1.32.2a1.47,1.47,0,0,1-.1.4,8.11,8.11,0,0,0-.14,2.22v1.5h1.68c1.78,0,2.38,0,2.5,0s.22,0,.22.22v1.54c0,.2,0,.22-.22.22s-.72,0-2.5,0h-1.68v3.48h1.08c1.8,0,2.42,0,2.54,0s.22,0,.22.22v1.56c0,.2,0,.22-.22.22s-.74,0-2.54,0h-1.08V95h2c2,0,2.62,0,2.74,0s.22,0,.22.22v1.54c0,.22,0,.24-.22.24s-.78,0-2.74,0h-6.64c-2,0-2.64,0-2.74,0s-.22,0-.22-.24V95.21c0-.2,0-.22.22-.22s.78,0,2.74,0h2.52V91.09h-1.2c-1.8,0-2.4,0-2.54,0s-.22,0-.22-.22V89.35c0-.2,0-.22.22-.22s.74,0,2.54,0h1.2V85.69H144a22.16,22.16,0,0,1-1,2.3c-.16.3-.24.42-.36.42a1,1,0,0,1-.38-.2,5.72,5.72,0,0,0-1.44-.66,13,13,0,0,0,.94-1.82l-.84.3c-.26.1-.32.1-.36-.12a13.71,13.71,0,0,0-.72-2.6c-.08-.22-.06-.26.2-.34Z"/></g></svg>