<svg xmlns="http://www.w3.org/2000/svg" viewBox="0 0 300.1 146.79"><defs><style>.cls-1{fill:#4faae3;}.cls-2{fill:#fff;}.cls-3,.cls-4,.cls-5,.cls-6{fill:none;stroke-miterlimit:10;}.cls-3,.cls-4{stroke:#fff;}.cls-4{stroke-width:3px;}.cls-5,.cls-6{stroke:#4faae3;}.cls-6{stroke-width:2px;}</style></defs><title>feature3_1</title><g id="feature3_1"><rect class="cls-1" x="225.45" y="18.93" width="65.33" height="121.38" rx="6" ry="6" transform="translate(18.32 -44.73) rotate(10.27)"/><rect class="cls-1" width="144.71" height="146.79"/><path class="cls-2" d="M27.5,24.64a1,1,0,0,1,1-1.06c.53,0,.82.29,1.1.92l1.75,4h0l1.72-4c.27-.63.56-.92,1.09-.92a1,1,0,0,1,1,1.06v6.45a.81.81,0,1,1-1.62,0v-4h-.06l-1.27,3c-.25.58-.46.75-.87.75s-.62-.17-.87-.75l-1.28-3h-.06v4a.81.81,0,1,1-1.62,0Z"/><path class="cls-2" d="M49.33,28.84V24.52a.89.89,0,1,1,1.78,0V28.9a1.37,1.37,0,0,0,1.38,1.54,1.35,1.35,0,0,0,1.37-1.54V24.52a.89.89,0,1,1,1.78,0v4.32a3.15,3.15,0,1,1-6.3,0Z"/><path class="cls-2" d="M69.82,31.3a.89.89,0,0,1-.42-.75.78.78,0,0,1,.8-.79,1,1,0,0,1,.52.15,3.4,3.4,0,0,0,1.77.53c.87,0,1.34-.4,1.34-1s-.29-.79-1.27-.92l-.44-.06c-1.68-.23-2.6-1-2.6-2.47s1.14-2.52,2.92-2.52a4.77,4.77,0,0,1,2.3.54.81.81,0,0,1,.42.71.76.76,0,0,1-.77.77,1.18,1.18,0,0,1-.52-.13,3.35,3.35,0,0,0-1.42-.34c-.73,0-1.11.36-1.11.88s.33.77,1.28.91l.44.06c1.71.24,2.59,1,2.59,2.49S74.56,32,72.41,32A4.91,4.91,0,0,1,69.82,31.3Z"/><path class="cls-2" d="M89.44,24.43a.73.73,0,0,1,.77-.79h4a.77.77,0,1,1,0,1.54H91.29a.06.06,0,0,0-.07.07v1.63a.06.06,0,0,0,.07.07h2.34a.76.76,0,1,1,0,1.53H91.29a.06.06,0,0,0-.07.07v1.71a.06.06,0,0,0,.07.07h2.92a.77.77,0,1,1,0,1.54h-4a.73.73,0,0,1-.77-.79Z"/><path class="cls-2" d="M108.84,24.43a.73.73,0,0,1,.77-.79h4a.77.77,0,1,1,0,1.54h-2.92a.06.06,0,0,0-.07.07v1.63a.06.06,0,0,0,.07.07H113a.76.76,0,1,1,0,1.53h-2.34a.06.06,0,0,0-.07.07v1.71a.06.06,0,0,0,.07.07h2.92a.77.77,0,1,1,0,1.54h-4a.73.73,0,0,1-.77-.79Z"/><path class="cls-2" d="M27.5,46.4V39.83a.73.73,0,0,1,.77-.79h2.54a2.65,2.65,0,1,1,0,5.29H29.36a.06.06,0,0,0-.07.07v2a.89.89,0,1,1-1.78,0Zm4.41-4.71a1.08,1.08,0,0,0-1.2-1.11H29.36a.06.06,0,0,0-.07.07v2.07a.06.06,0,0,0,.07.07h1.36A1.07,1.07,0,0,0,31.91,41.7Z"/><path class="cls-2" d="M39.36,39.92a.89.89,0,1,1,1.78,0v5.7a.06.06,0,0,0,.07.07h2.93a.8.8,0,1,1,0,1.58H40.25a.85.85,0,0,1-.9-.9Z"/><path class="cls-2" d="M50.48,46.17,52.71,40c.23-.65.59-1,1.22-1s1,.39,1.23,1l2.19,6.16a1,1,0,0,1,.06.34.83.83,0,0,1-.86.83.86.86,0,0,1-.83-.63l-.34-1H52.44l-.33,1a.86.86,0,0,1-.83.63.83.83,0,0,1-.86-.83A1,1,0,0,1,50.48,46.17Zm4.4-2-.94-2.88h0L53,44.2Z"/><path class="cls-2" d="M64,46.4v-5.7a.06.06,0,0,0-.07-.07H62.58a.8.8,0,1,1,0-1.59h4.71a.8.8,0,1,1,0,1.59H65.9a.06.06,0,0,0-.07.07v5.7a.89.89,0,1,1-1.78,0Z"/><path class="cls-2" d="M73.74,39.92a.89.89,0,1,1,1.78,0V46.4a.89.89,0,1,1-1.78,0Z"/><path class="cls-2" d="M81.62,40a1,1,0,0,1,1-1.06c.51,0,.85.3,1.17.87l2.52,4.49h0v-4.5a.81.81,0,1,1,1.62,0v6.45a1,1,0,0,1-1,1.06c-.51,0-.85-.3-1.17-.87L83.29,42h0v4.49a.81.81,0,1,1-1.62,0Z"/><path class="cls-2" d="M94.05,44.24V39.92a.89.89,0,1,1,1.78,0V44.3a1.37,1.37,0,0,0,1.38,1.54,1.35,1.35,0,0,0,1.37-1.54V39.92a.89.89,0,1,1,1.78,0v4.32a3.15,3.15,0,1,1-6.3,0Z"/><path class="cls-2" d="M106.44,40a1,1,0,0,1,1-1.06c.53,0,.82.29,1.1.92l1.75,4h0l1.72-4c.27-.63.56-.92,1.09-.92a1,1,0,0,1,1,1.06v6.45a.81.81,0,1,1-1.62,0v-4h-.06l-1.27,3c-.25.58-.46.75-.87.75s-.62-.17-.87-.75l-1.28-3h-.06v4a.81.81,0,1,1-1.62,0Z"/><rect class="cls-2" x="229.13" y="38.27" width="57.98" height="82.68" transform="translate(18.32 -44.73) rotate(10.27)"/><circle class="cls-3" cx="249.33" cy="129.31" r="4.7" transform="translate(77.65 351.61) rotate(-79.73)"/><circle class="cls-2" cx="256.17" cy="28.33" r="1.87" transform="translate(182.64 275.35) rotate(-79.73)"/><line class="cls-3" x1="261.56" y1="29.31" x2="276.2" y2="31.96"/><rect class="cls-3" x="9.22" y="65.74" width="42.84" height="77.74"/><line class="cls-4" x1="22.63" y1="113.03" x2="22.63" y2="98.6"/><rect class="cls-2" x="61.84" y="65.74" width="71.64" height="77.74" transform="translate(195.31 209.23) rotate(-180)"/><line class="cls-5" x1="126.12" y1="105.62" x2="97.66" y2="135.63"/><line class="cls-5" x1="96.94" y1="118.67" x2="79.89" y2="137.26"/><line class="cls-6" x1="166.92" y1="54.94" x2="203.6" y2="91.62"/><polyline class="cls-6" points="201.4 80.78 203.6 91.62 192.76 89.42"/><line class="cls-6" x1="203.6" y1="54.94" x2="166.92" y2="91.62"/><polyline class="cls-6" points="177.75 89.42 166.92 91.62 169.12 80.78"/><polyline class="cls-6" points="201.4 65.78 203.6 54.94 192.76 57.14"/><polyline class="cls-6" points="177.75 57.14 166.92 54.94 169.12 65.78"/></g></svg>