<svg xmlns="http://www.w3.org/2000/svg" viewBox="0 0 679.5 740"><defs><style>.cls-1{fill:#f5f5f5;}.cls-1,.cls-4{stroke:#666;stroke-width:2px;}.cls-1,.cls-3,.cls-4{stroke-miterlimit:10;}.cls-2{fill:#4faae3;}.cls-3,.cls-4{fill:none;}.cls-3{stroke:#fff;stroke-width:6px;}.cls-5{fill:#e2d436;}.cls-6{fill:#fff;}.cls-7{fill:#202020;}.cls-8{fill:#666;}</style></defs><title>menu_sp</title><g id="menu_sp"><rect class="cls-1" x="338.09" y="190.45" width="130" height="129.89"/><path class="cls-2" d="M362.92,210.1a1,1,0,0,1,1-1.13c.57,0,.87.31,1.17,1l1.86,4.21H367l1.82-4.21c.28-.67.59-1,1.16-1a1,1,0,0,1,1,1.13v6.85a.86.86,0,1,1-1.72,0v-4.21h-.06l-1.35,3.13c-.27.62-.49.8-.92.8s-.66-.18-.93-.8l-1.36-3.13h-.06v4.21a.86.86,0,1,1-1.72,0Z"/><path class="cls-2" d="M382.5,214.56V210a.95.95,0,1,1,1.89,0v4.65a1.45,1.45,0,0,0,1.46,1.63,1.43,1.43,0,0,0,1.45-1.63V210a.95.95,0,1,1,1.89,0v4.59a3.35,3.35,0,1,1-6.69,0Z"/><path class="cls-2" d="M400.66,217.18a1,1,0,0,1-.45-.8.83.83,0,0,1,.85-.83,1.11,1.11,0,0,1,.55.15,3.61,3.61,0,0,0,1.88.57c.93,0,1.43-.42,1.43-1s-.31-.83-1.35-1l-.46-.06c-1.79-.24-2.76-1.08-2.76-2.62s1.21-2.67,3.1-2.67a5.06,5.06,0,0,1,2.44.58.86.86,0,0,1,.45.76.8.8,0,0,1-.82.82,1.26,1.26,0,0,1-.55-.14,3.54,3.54,0,0,0-1.5-.36c-.77,0-1.18.39-1.18.94s.35.82,1.36,1l.46.06c1.81.26,2.75,1.07,2.75,2.65s-1.16,2.75-3.43,2.75A5.21,5.21,0,0,1,400.66,217.18Z"/><path class="cls-2" d="M417.89,209.88a.77.77,0,0,1,.82-.83h4.24a.82.82,0,1,1,0,1.63h-3.1a.07.07,0,0,0-.08.08v1.73a.07.07,0,0,0,.08.08h2.48a.81.81,0,1,1,0,1.62h-2.48a.07.07,0,0,0-.08.08v1.81a.07.07,0,0,0,.08.08h3.1a.82.82,0,1,1,0,1.63h-4.24a.77.77,0,0,1-.82-.83Z"/><path class="cls-2" d="M434.88,209.88a.77.77,0,0,1,.82-.83h4.24a.82.82,0,1,1,0,1.63h-3.1a.07.07,0,0,0-.08.08v1.73a.07.07,0,0,0,.08.08h2.48a.81.81,0,1,1,0,1.62h-2.48a.07.07,0,0,0-.08.08v1.81a.07.07,0,0,0,.08.08h3.1a.82.82,0,1,1,0,1.63H435.7a.77.77,0,0,1-.82-.83Z"/><path class="cls-2" d="M362.92,230.7v-7a.77.77,0,0,1,.82-.83h2.7a2.82,2.82,0,1,1,0,5.61h-1.55a.07.07,0,0,0-.08.08v2.12a.95.95,0,1,1-1.89,0Zm4.68-5a1.15,1.15,0,0,0-1.27-1.18h-1.44a.07.07,0,0,0-.08.08v2.2a.07.07,0,0,0,.08.08h1.44A1.14,1.14,0,0,0,367.6,225.7Z"/><path class="cls-2" d="M373.45,223.81a.95.95,0,1,1,1.89,0v6.05a.07.07,0,0,0,.08.08h3.11a.85.85,0,1,1,0,1.68H374.4a.9.9,0,0,1-1-1Z"/><path class="cls-2" d="M383.21,230.45l2.36-6.54c.24-.69.63-1.1,1.3-1.1s1.07.41,1.31,1.1l2.33,6.54a1.07,1.07,0,0,1,.06.36.89.89,0,0,1-.91.89.91.91,0,0,1-.89-.67l-.36-1.07h-3.12l-.35,1.07a.91.91,0,0,1-.89.67.89.89,0,0,1-.91-.89A1,1,0,0,1,383.21,230.45Zm4.68-2.09-1-3.06h0l-1,3.06Z"/><path class="cls-2" d="M395.55,230.7v-6.05a.07.07,0,0,0-.08-.08H394a.85.85,0,1,1,0-1.68h5a.85.85,0,1,1,0,1.68h-1.48a.07.07,0,0,0-.08.08v6.05a.95.95,0,1,1-1.89,0Z"/><path class="cls-2" d="M403.78,223.81a.95.95,0,1,1,1.89,0v6.89a.95.95,0,1,1-1.89,0Z"/><path class="cls-2" d="M410.1,223.94a1,1,0,0,1,1.05-1.13c.54,0,.9.32,1.25.92l2.67,4.77h.05v-4.78a.86.86,0,1,1,1.72,0v6.85a1,1,0,0,1-1.05,1.13c-.54,0-.9-.32-1.25-.92L411.87,226h-.05v4.77a.86.86,0,1,1-1.72,0Z"/><path class="cls-2" d="M421.24,228.4v-4.59a.95.95,0,1,1,1.89,0v4.65a1.45,1.45,0,0,0,1.46,1.63,1.43,1.43,0,0,0,1.45-1.63v-4.65a.95.95,0,1,1,1.89,0v4.59a3.35,3.35,0,1,1-6.69,0Z"/><path class="cls-2" d="M432.33,223.94a1,1,0,0,1,1-1.13c.57,0,.87.31,1.17,1l1.86,4.21h.05l1.83-4.21c.28-.67.59-1,1.16-1a1,1,0,0,1,1,1.13v6.85a.86.86,0,1,1-1.72,0v-4.21h-.06l-1.35,3.13c-.27.62-.49.8-.92.8s-.66-.18-.93-.8l-1.36-3.13h-.06v4.21a.86.86,0,1,1-1.72,0Z"/><rect class="cls-2" x="346.37" y="245.56" width="38.48" height="65.89"/><line class="cls-3" x1="358.41" y1="286.06" x2="358.41" y2="273.1"/><rect class="cls-4" x="393.64" y="245.56" width="64.35" height="65.89" transform="translate(851.64 557.01) rotate(-180)"/><line class="cls-4" x1="450.41" y1="277.43" x2="424.83" y2="304.39"/><line class="cls-4" x1="451.14" y1="289.15" x2="435.82" y2="305.85"/><circle class="cls-2" cx="75" cy="271" r="75"/><circle class="cls-5" cx="118" cy="470" r="75"/><circle class="cls-5" cx="176.5" cy="615" r="75"/><circle class="cls-5" cx="323.5" cy="665" r="75"/><circle class="cls-5" cx="474.5" cy="626" r="75"/><circle class="cls-5" cx="604.5" cy="540" r="75"/><circle class="cls-2" cx="145.38" cy="132" r="75"/><circle class="cls-2" cx="291.88" cy="75" r="75"/><circle class="cls-2" cx="446.88" cy="97" r="75"/><circle class="cls-2" cx="572.38" cy="191" r="75"/><circle class="cls-2" cx="603.5" cy="346" r="75"/><circle class="cls-2" cx="533.14" cy="381" r="43"/><circle class="cls-5" cx="182.14" cy="425" r="43"/><circle class="cls-2" cx="450.14" cy="379" r="30"/><circle class="cls-5" cx="255.14" cy="384" r="30"/><circle class="cls-2" cx="386.14" cy="367" r="20"/><circle class="cls-5" cx="317.14" cy="364" r="20"/><path class="cls-6" d="M57.51,251.44a14.2,14.2,0,0,0,2.64-.17v3.19c-.53,0-1.37-.07-2.64-.07H55.74v.79c0,6-1.44,9.58-7.22,12.12l-2.57-2.42c4.63-1.61,6.67-3.7,6.67-9.58v-.91H46.93v3.26c0,1.06.07,2,.1,2.52H43.66a19.35,19.35,0,0,0,.14-2.52v-3.26h-2c-1.2,0-2.06,0-2.59.1v-3.26a15.83,15.83,0,0,0,2.59.22h2v-2.38a19.27,19.27,0,0,0-.14-2.16h3.41a14.94,14.94,0,0,0-.14,2.18v2.35h5.69v-2.52a16,16,0,0,0-.14-2.23h3.41a20.72,20.72,0,0,0-.14,2.23v2.52Z"/><path class="cls-6" d="M73.75,260.39a22.76,22.76,0,0,0,8.74-9.34l1.87,3.38a25.53,25.53,0,0,1-8.88,8.88,26,26,0,0,1-8.91,3.38l-2-3.17A24.73,24.73,0,0,0,73.75,260.39Zm0-7.78-2.45,2.52a49.83,49.83,0,0,0-6-5.18l2.26-2.4A50.36,50.36,0,0,1,73.75,252.61Z"/><path class="cls-6" d="M102.76,248.75a10.58,10.58,0,0,0,1.37-.1,2.71,2.71,0,0,1,0-.46,2.87,2.87,0,1,1,2.88,2.86,1.4,1.4,0,0,1-.31,0l-.19.72c-.55,2.35-1.58,6.07-3.6,8.74a19,19,0,0,1-9.65,6.63l-2.62-2.86c4.78-1.13,7.46-3.19,9.41-5.64a15.41,15.41,0,0,0,2.83-6.77H91.65c-1.1,0-2.23,0-2.86.1v-3.38a26.81,26.81,0,0,0,2.86.19Zm5.57-.55a1.38,1.38,0,1,0-1.37,1.37A1.39,1.39,0,0,0,108.33,248.2Z"/><path class="cls-6" d="M46.14,279.38c0,.53-.07,1.06-.07,1.82v8.11c0,.6,0,1.54.07,2.09H42.59c0-.46.12-1.39.12-2.11V281.2a16.26,16.26,0,0,0-.1-1.82Zm11.07-.22c0,.67-.1,1.44-.1,2.4v4.75c0,5.16-1,7.37-2.79,9.34a14,14,0,0,1-5.83,3.48L46,296.49a11.23,11.23,0,0,0,5.88-3c1.63-1.8,1.94-3.6,1.94-7.34v-4.56a17,17,0,0,0-.14-2.4Z"/><path class="cls-6" d="M72.77,292.39a22.76,22.76,0,0,0,8.74-9.34l1.87,3.38a25.52,25.52,0,0,1-8.88,8.88,26,26,0,0,1-8.91,3.38l-2-3.17A24.74,24.74,0,0,0,72.77,292.39Zm0-7.78-2.45,2.52a49.81,49.81,0,0,0-6-5.18l2.26-2.4A50.37,50.37,0,0,1,72.77,284.61Z"/><path class="cls-6" d="M105,282.16l2,1.25a10.07,10.07,0,0,0-.79,1.7,24.23,24.23,0,0,1-4.2,8,22.35,22.35,0,0,1-9.67,6.79l-2.83-2.54a19.19,19.19,0,0,0,9.67-6,17,17,0,0,0,3.41-6.53H95.82a26.37,26.37,0,0,1-6,5.81l-2.69-2a20.54,20.54,0,0,0,7.49-7.7,10.58,10.58,0,0,0,1.08-2.52l3.53,1.15c-.58.84-1.2,1.92-1.49,2.45l-.07.12h4.82a7.58,7.58,0,0,0,2.09-.29l.17.1a27.85,27.85,0,0,0-1.75-3.1l1.9-.77a34.87,34.87,0,0,1,1.9,3.29Zm2.71-5.11a34.17,34.17,0,0,1,1.94,3.26l-1.92.82a22.92,22.92,0,0,0-1.92-3.31Z"/><path class="cls-7" d="M220.28,222.78c-.06.66-.09,1.32-.09,2.28V235.2c0,.75,0,1.92.09,2.61h-4.44c0-.57.15-1.74.15-2.64V225.06a20.21,20.21,0,0,0-.12-2.28Zm13.83-.27c-.06.84-.12,1.8-.12,3v5.94c0,6.45-1.26,9.21-3.48,11.67a17.43,17.43,0,0,1-7.29,4.35l-3.15-3.3a14,14,0,0,0,7.35-3.78c2-2.25,2.43-4.5,2.43-9.18v-5.7a21.29,21.29,0,0,0-.18-3Z"/><path class="cls-7" d="M268.34,225.48a15.1,15.1,0,0,0-1.17,1.56,30.19,30.19,0,0,1-7.23,8.22l-3.09-2.49a17.86,17.86,0,0,0,5.52-5.58H246.75c-1.26,0-2.25.09-3.66.21v-4.17a23.81,23.81,0,0,0,3.66.3h16.17a14.9,14.9,0,0,0,3-.27Zm-12.24,4c0,7.44-.15,13.56-8.34,17.94l-3.48-2.85a11.87,11.87,0,0,0,3.15-1.65c3.81-2.64,4.53-5.82,4.53-10.74a16.69,16.69,0,0,0-.21-2.7Z"/><path class="cls-7" d="M271,244.68a14.15,14.15,0,0,0,5.1-7.17c.84-2.58.87-8.25.87-11.88a11,11,0,0,0-.27-2.73h4.41a19.09,19.09,0,0,0-.21,2.7c0,3.54-.09,9.87-.9,12.9a17.39,17.39,0,0,1-5.34,8.61Zm13.89.45a11.32,11.32,0,0,0,.24-2.22V225.42a13.28,13.28,0,0,0-.24-2.58h4.47a15.17,15.17,0,0,0-.21,2.61v15.69a19,19,0,0,0,7.41-6.33l2.31,3.3a33,33,0,0,1-10.17,8.19,7.66,7.66,0,0,0-1.32.9Z"/><path class="cls-7" d="M220.72,263.77a23.68,23.68,0,0,0-1.23,2.67,42.81,42.81,0,0,1-4,8.16,77.82,77.82,0,0,1,7.14,6.6l-3.09,3.45a59.81,59.81,0,0,0-6.63-6.6,37.51,37.51,0,0,1-11.16,9.27l-3.45-3.09a32.74,32.74,0,0,0,11.4-8.85,77.66,77.66,0,0,0-8-5.67l2.58-3.09c2.4,1.5,5.49,3.6,7.92,5.4a32.69,32.69,0,0,0,3.3-7.11,21.92,21.92,0,0,0,.72-2.76Z"/><path class="cls-7" d="M249.69,271a22.86,22.86,0,0,0,2.73-.18v3.9c-.75-.06-1.89-.09-2.73-.09h-7.23a19.06,19.06,0,0,1-1.92,7.71,14.41,14.41,0,0,1-6,5.76L231,285.55a12.26,12.26,0,0,0,5.43-4.29,12.91,12.91,0,0,0,1.86-6.63H230c-.87,0-2,.06-2.88.12v-3.93A23,23,0,0,0,230,271Zm-15.84-4.08c-1,0-2.31,0-3.21.09v-3.87a22.53,22.53,0,0,0,3.21.24h9.81a23.65,23.65,0,0,0,3.24-.24V267c-1-.06-2.19-.09-3.24-.09Zm14.82-.69a41.41,41.41,0,0,0-2.37-4.17l2.4-1c.75,1.11,1.8,3,2.37,4.11Zm3.6-1.38a35.43,35.43,0,0,0-2.4-4.14l2.37-1a40,40,0,0,1,2.4,4.08Z"/><path class="cls-7" d="M279.87,269.77a37.41,37.41,0,0,1-6.75,5.43v10a16.74,16.74,0,0,0,.21,3.24h-4.44a31.44,31.44,0,0,0,.15-3.24v-7.71a56.24,56.24,0,0,1-8.46,3.27l-2-3.48a40.05,40.05,0,0,0,10.59-4,29.84,29.84,0,0,0,7.71-6.24Z"/><path class="cls-7" d="M313.09,265.48a15,15,0,0,0-1.17,1.56,30.18,30.18,0,0,1-7.23,8.22l-3.09-2.49a17.84,17.84,0,0,0,5.52-5.58H291.49c-1.26,0-2.25.09-3.66.21v-4.17a23.83,23.83,0,0,0,3.66.3h16.17a14.88,14.88,0,0,0,3-.27Zm-12.24,4c0,7.44-.15,13.56-8.34,17.94L289,284.62a11.88,11.88,0,0,0,3.15-1.65c3.81-2.64,4.53-5.82,4.53-10.74a16.58,16.58,0,0,0-.21-2.7Z"/><path class="cls-7" d="M385.83,469a22.87,22.87,0,0,0,2.73-.18v3.9c-.75-.06-1.89-.09-2.73-.09H378.6a19,19,0,0,1-1.92,7.71,14.4,14.4,0,0,1-6,5.76l-3.51-2.55a12.26,12.26,0,0,0,5.43-4.29,12.88,12.88,0,0,0,1.86-6.63h-8.25c-.87,0-2,.06-2.88.12v-3.93a23,23,0,0,0,2.88.18ZM370,464.92c-1,0-2.31,0-3.21.09v-3.87a22.54,22.54,0,0,0,3.21.24h9.81a23.62,23.62,0,0,0,3.24-.24V465c-1-.06-2.19-.09-3.24-.09Zm14.82-.69a41,41,0,0,0-2.37-4.17l2.4-1c.75,1.11,1.8,3,2.37,4.11Zm3.6-1.38a35.58,35.58,0,0,0-2.4-4.14l2.37-1a39.62,39.62,0,0,1,2.4,4.08Z"/><path class="cls-7" d="M404.34,471.25l-2.19,3.36c-1.71-1.2-4.83-3.21-6.84-4.29l2.16-3.3C399.51,468.1,402.81,470.17,404.34,471.25Zm2.4,6.84a30.37,30.37,0,0,0,11.67-11.25l2.31,4.08a36.19,36.19,0,0,1-11.91,10.8,37.69,37.69,0,0,1-10,3.69l-2.25-3.93A32.18,32.18,0,0,0,406.74,478.09Zm2.19-13.62-2.22,3.3c-1.68-1.17-4.8-3.18-6.78-4.29l2.16-3.3C404.07,461.26,407.37,463.39,408.93,464.47Zm8.94.93-2.61,1.11a27.12,27.12,0,0,0-2.64-4.71l2.49-1A45.38,45.38,0,0,1,417.87,465.4Zm4.2-1.62-2.55,1.14a28.88,28.88,0,0,0-2.82-4.56l2.55-1A38.44,38.44,0,0,1,422.07,463.78Z"/><path class="cls-7" d="M452.37,464.65a14,14,0,0,0-1,2.13,34.53,34.53,0,0,1-4.14,8.22c1.11.69,2.13,1.38,2.88,1.92l-2.73,3.51a34.67,34.67,0,0,0-2.79-2.13,28.65,28.65,0,0,1-11.07,7.47l-3.48-3A25.36,25.36,0,0,0,441.24,476c-2-1.32-4.08-2.55-5.61-3.42l2.55-2.85c1.59.81,3.63,2,5.64,3.15a21.84,21.84,0,0,0,3.12-6.39h-8.61a35.32,35.32,0,0,1-7.92,7.74l-3.24-2.49a27.45,27.45,0,0,0,9.57-10,13.24,13.24,0,0,0,1.35-3.15l4.35,1.35c-.72,1-1.5,2.43-1.86,3.06l0,0h6.15a9.52,9.52,0,0,0,2.61-.33Z"/><path class="cls-7" d="M455.86,482.68a14.16,14.16,0,0,0,5.1-7.17c.84-2.58.87-8.25.87-11.88a11,11,0,0,0-.27-2.73H466a19,19,0,0,0-.21,2.7c0,3.54-.09,9.87-.9,12.9a17.37,17.37,0,0,1-5.34,8.61Zm13.89.45a11.39,11.39,0,0,0,.24-2.22V463.42a13.28,13.28,0,0,0-.24-2.58h4.47a15.23,15.23,0,0,0-.21,2.61v15.69a19,19,0,0,0,7.41-6.33l2.31,3.3a33,33,0,0,1-10.17,8.19,7.62,7.62,0,0,0-1.32.9Z"/><path class="cls-7" d="M388.72,501.77a23.68,23.68,0,0,0-1.23,2.67,42.81,42.81,0,0,1-4,8.16,77.82,77.82,0,0,1,7.14,6.6l-3.09,3.45a59.81,59.81,0,0,0-6.63-6.6,37.51,37.51,0,0,1-11.16,9.27l-3.45-3.09a32.74,32.74,0,0,0,11.4-8.85,77.66,77.66,0,0,0-8-5.67l2.58-3.09c2.4,1.5,5.49,3.6,7.92,5.4a32.69,32.69,0,0,0,3.3-7.11,21.92,21.92,0,0,0,.72-2.76Z"/><path class="cls-7" d="M417.69,509a22.86,22.86,0,0,0,2.73-.18v3.9c-.75-.06-1.89-.09-2.73-.09h-7.23a19.06,19.06,0,0,1-1.92,7.71,14.41,14.41,0,0,1-6,5.76L399,523.55a12.26,12.26,0,0,0,5.43-4.29,12.91,12.91,0,0,0,1.86-6.63H398c-.87,0-2,.06-2.88.12v-3.93A23,23,0,0,0,398,509Zm-15.84-4.08c-1,0-2.31,0-3.21.09v-3.87a22.53,22.53,0,0,0,3.21.24h9.81a23.65,23.65,0,0,0,3.24-.24V505c-1-.06-2.19-.09-3.24-.09Zm14.82-.69a41.41,41.41,0,0,0-2.37-4.17l2.4-1c.75,1.11,1.8,3,2.37,4.11Zm3.6-1.38a35.43,35.43,0,0,0-2.4-4.14l2.37-1a40,40,0,0,1,2.4,4.08Z"/><path class="cls-7" d="M447.87,507.77a37.41,37.41,0,0,1-6.75,5.43v10a16.74,16.74,0,0,0,.21,3.24h-4.44a31.44,31.44,0,0,0,.15-3.24v-7.71a56.24,56.24,0,0,1-8.46,3.27l-2-3.48a40.05,40.05,0,0,0,10.59-4,29.84,29.84,0,0,0,7.71-6.24Z"/><path class="cls-7" d="M481.09,503.48a15,15,0,0,0-1.17,1.56,30.18,30.18,0,0,1-7.23,8.22l-3.09-2.49a17.84,17.84,0,0,0,5.52-5.58H459.49c-1.26,0-2.25.09-3.66.21v-4.17a23.83,23.83,0,0,0,3.66.3h16.17a14.88,14.88,0,0,0,3-.27Zm-12.24,4c0,7.44-.15,13.56-8.34,17.94L457,522.62a11.88,11.88,0,0,0,3.15-1.65c3.81-2.64,4.53-5.82,4.53-10.74a16.58,16.58,0,0,0-.21-2.7Z"/><rect class="cls-1" x="266.09" y="423.45" width="75.35" height="140" rx="6" ry="6"/><rect class="cls-5" x="270.33" y="445.77" width="66.87" height="95.37"/><circle class="cls-4" cx="303.76" cy="551.71" r="5.42"/><circle class="cls-8" cx="291.01" cy="435.64" r="2.56"/><line class="cls-4" x1="297.33" y1="435.64" x2="314.49" y2="435.64"/><path class="cls-6" d="M303.76,492.4a17.81,17.81,0,0,1,15.73-15.72A17.81,17.81,0,0,1,303.76,461,17.79,17.79,0,0,1,288,476.67a17.79,17.79,0,0,1,15.72,15.72"/><path class="cls-6" d="M277.86,503.44a.83.83,0,0,1,.85-.92c.46,0,.71.25,1,.8l1.52,3.44h0l1.49-3.44c.23-.55.48-.8.94-.8a.82.82,0,0,1,.84.92V509a.7.7,0,1,1-1.41,0v-3.44H283l-1.1,2.56c-.22.5-.4.65-.76.65s-.54-.15-.76-.65l-1.11-2.56h-.05V509a.7.7,0,1,1-1.41,0Z"/><path class="cls-6" d="M291,507.08v-3.75a.77.77,0,1,1,1.54,0v3.8a1.19,1.19,0,0,0,1.2,1.33,1.17,1.17,0,0,0,1.19-1.33v-3.8a.77.77,0,1,1,1.54,0v3.75a2.74,2.74,0,1,1-5.47,0Z"/><path class="cls-6" d="M302.94,509.22a.77.77,0,0,1-.37-.65.68.68,0,0,1,.69-.68.9.9,0,0,1,.45.13,3,3,0,0,0,1.53.46c.76,0,1.16-.35,1.16-.84s-.25-.68-1.1-.8l-.38-.05c-1.46-.2-2.26-.88-2.26-2.14a2.23,2.23,0,0,1,2.53-2.18,4.14,4.14,0,0,1,2,.47.7.7,0,0,1,.37.62.66.66,0,0,1-.67.67,1,1,0,0,1-.45-.12,2.9,2.9,0,0,0-1.23-.29c-.63,0-1,.31-1,.77s.28.67,1.11.79l.38.05c1.48.21,2.25.87,2.25,2.16s-.94,2.25-2.8,2.25A4.26,4.26,0,0,1,302.94,509.22Z"/><path class="cls-6" d="M314.15,503.26a.63.63,0,0,1,.67-.68h3.46a.67.67,0,1,1,0,1.33h-2.53a.06.06,0,0,0-.06.06v1.42a.05.05,0,0,0,.06.06h2a.66.66,0,1,1,0,1.32h-2s-.06,0-.06.06v1.48a.06.06,0,0,0,.06.06h2.53a.67.67,0,1,1,0,1.33h-3.46a.63.63,0,0,1-.67-.68Z"/><path class="cls-6" d="M325.15,503.26a.63.63,0,0,1,.67-.68h3.46a.67.67,0,1,1,0,1.33h-2.53a.06.06,0,0,0-.06.06v1.42a.05.05,0,0,0,.06.06h2a.66.66,0,1,1,0,1.32h-2s-.06,0-.06.06v1.48a.06.06,0,0,0,.06.06h2.53a.67.67,0,1,1,0,1.33h-3.46a.63.63,0,0,1-.67-.68Z"/><path class="cls-6" d="M277.86,521v-5.7a.63.63,0,0,1,.67-.68h2.21a2.3,2.3,0,1,1,0,4.59h-1.27a.06.06,0,0,0-.06.06V521a.77.77,0,1,1-1.54,0Zm3.82-4.08a.94.94,0,0,0-1-1h-1.18a.06.06,0,0,0-.06.06v1.79a.06.06,0,0,0,.06.06h1.18A.93.93,0,0,0,281.68,516.87Z"/><path class="cls-6" d="M283.85,520.76l1.93-5.34c.2-.57.51-.9,1.06-.9s.87.34,1.07.9l1.9,5.34a.87.87,0,0,1,.05.29.72.72,0,0,1-.75.72.75.75,0,0,1-.72-.54l-.29-.87h-2.55l-.28.87a.75.75,0,0,1-.72.54.72.72,0,0,1-.75-.72A.87.87,0,0,1,283.85,520.76Zm3.82-1.71-.82-2.5h0L286,519Z"/><path class="cls-6" d="M291.46,521.22a.77.77,0,0,1-.37-.65.68.68,0,0,1,.69-.68.91.91,0,0,1,.45.13,3,3,0,0,0,1.53.46c.76,0,1.16-.35,1.16-.84s-.25-.68-1.1-.8l-.38-.05c-1.46-.2-2.26-.88-2.26-2.14a2.23,2.23,0,0,1,2.53-2.18,4.13,4.13,0,0,1,2,.47.7.7,0,0,1,.37.62.66.66,0,0,1-.67.67,1,1,0,0,1-.45-.12,2.9,2.9,0,0,0-1.23-.29c-.63,0-1,.32-1,.77s.28.67,1.11.79l.38.05c1.48.21,2.25.87,2.25,2.16s-.94,2.25-2.8,2.25A4.26,4.26,0,0,1,291.46,521.22Z"/><path class="cls-6" d="M298.09,521.22a.77.77,0,0,1-.37-.65.68.68,0,0,1,.69-.68.9.9,0,0,1,.45.13,3,3,0,0,0,1.53.46c.76,0,1.17-.35,1.17-.84s-.25-.68-1.1-.8l-.38-.05c-1.46-.2-2.26-.88-2.26-2.14a2.23,2.23,0,0,1,2.53-2.18,4.13,4.13,0,0,1,2,.47.7.7,0,0,1,.37.62.66.66,0,0,1-.67.67,1,1,0,0,1-.45-.12,2.9,2.9,0,0,0-1.23-.29c-.63,0-1,.32-1,.77s.29.67,1.11.79l.38.05c1.48.21,2.25.87,2.25,2.16s-.95,2.25-2.8,2.25A4.25,4.25,0,0,1,298.09,521.22Z"/><path class="cls-6" d="M304.52,521v-5.7a.63.63,0,0,1,.67-.68h2.2a2.3,2.3,0,1,1,0,4.59h-1.27a.05.05,0,0,0-.06.06V521a.77.77,0,1,1-1.54,0Zm3.82-4.08a.94.94,0,0,0-1-1h-1.18a.06.06,0,0,0-.06.06v1.79a.05.05,0,0,0,.06.06h1.18A.93.93,0,0,0,308.34,516.87Z"/><path class="cls-6" d="M311.32,520.09a9.66,9.66,0,0,1,0-3.9,2.82,2.82,0,0,1,5.21,0,9.66,9.66,0,0,1,0,3.9,2.82,2.82,0,0,1-5.21,0Zm3.73-.41a10.39,10.39,0,0,0,0-3.09,1.2,1.2,0,0,0-2.25,0,10.39,10.39,0,0,0,0,3.09,1.2,1.2,0,0,0,2.25,0Z"/><path class="cls-6" d="M322.12,521.29l-1.2-2.3h-1.05a.06.06,0,0,0-.06.06V521a.75.75,0,0,1-.77.82.76.76,0,0,1-.78-.82v-5.7a.63.63,0,0,1,.67-.68h2.27a2.21,2.21,0,0,1,2.44,2.21,2.08,2.08,0,0,1-1.18,1.93l1,1.89a.89.89,0,0,1,.11.43.71.71,0,0,1-.73.73A.81.81,0,0,1,322.12,521.29Zm0-4.49a.87.87,0,0,0-1-.89h-1.26a.06.06,0,0,0-.06.06v1.65a.06.06,0,0,0,.06.06h1.26A.87.87,0,0,0,322.1,516.8Z"/><path class="cls-6" d="M326.69,521V516a.06.06,0,0,0-.06-.06h-1.21a.69.69,0,1,1,0-1.37h4.08a.69.69,0,1,1,0,1.38H328.3a.06.06,0,0,0-.06.06V521a.77.77,0,1,1-1.54,0Z"/><path class="cls-6" d="M573.51,329a18,18,0,0,0,2.18-.14v3.12c-.6,0-1.51-.07-2.18-.07h-5.78a15.21,15.21,0,0,1-1.54,6.17,11.51,11.51,0,0,1-4.82,4.61l-2.81-2a9.8,9.8,0,0,0,4.35-3.43,10.32,10.32,0,0,0,1.49-5.3h-6.6c-.7,0-1.63,0-2.3.1v-3.14a18.16,18.16,0,0,0,2.3.14Zm-12.67-3.26c-.82,0-1.85,0-2.57.07v-3.1a17.8,17.8,0,0,0,2.57.19h7.85a18.67,18.67,0,0,0,2.59-.19v3.1c-.82,0-1.75-.07-2.59-.07Zm11.86-.55a33,33,0,0,0-1.9-3.34l1.92-.79c.6.89,1.44,2.4,1.9,3.29Zm2.88-1.1a28.19,28.19,0,0,0-1.92-3.31l1.9-.79a32,32,0,0,1,1.92,3.26Z"/><path class="cls-6" d="M587.89,330.76l-1.75,2.69c-1.37-1-3.86-2.57-5.47-3.43l1.73-2.64A64.16,64.16,0,0,1,587.89,330.76Zm1.92,5.47a24.3,24.3,0,0,0,9.34-9l1.85,3.26a28.94,28.94,0,0,1-9.53,8.64,30.17,30.17,0,0,1-8,3l-1.8-3.14A25.7,25.7,0,0,0,589.81,336.23Zm1.75-10.9L589.79,328c-1.34-.94-3.84-2.54-5.42-3.43l1.73-2.64C587.68,322.76,590.32,324.47,591.57,325.33Zm7.15.74-2.09.89a21.68,21.68,0,0,0-2.11-3.77l2-.84A36.34,36.34,0,0,1,598.72,326.08Zm3.36-1.29-2,.91a23,23,0,0,0-2.26-3.65l2-.84A30.73,30.73,0,0,1,602.08,324.78Z"/><path class="cls-6" d="M625.89,325.48a11.28,11.28,0,0,0-.79,1.7,27.67,27.67,0,0,1-3.31,6.58c.89.55,1.7,1.1,2.3,1.54l-2.18,2.81a27.92,27.92,0,0,0-2.23-1.7,22.88,22.88,0,0,1-8.86,6L608,339.95a20.3,20.3,0,0,0,9-5.38c-1.63-1.06-3.26-2-4.49-2.74l2-2.28c1.27.65,2.9,1.56,4.51,2.52a17.48,17.48,0,0,0,2.5-5.11h-6.89a28.22,28.22,0,0,1-6.34,6.19l-2.59-2a22,22,0,0,0,7.66-8,10.65,10.65,0,0,0,1.08-2.52l3.48,1.08c-.58.84-1.2,1.95-1.49,2.45l0,0h4.92a7.62,7.62,0,0,0,2.09-.26Z"/><path class="cls-6" d="M628.28,339.9a11.33,11.33,0,0,0,4.08-5.74c.67-2.06.7-6.6.7-9.51a8.73,8.73,0,0,0-.22-2.18h3.53a15.23,15.23,0,0,0-.17,2.16c0,2.83-.07,7.9-.72,10.32a13.9,13.9,0,0,1-4.27,6.89Zm11.11.36a9.14,9.14,0,0,0,.19-1.78v-14a10.6,10.6,0,0,0-.19-2.06H643a12.27,12.27,0,0,0-.17,2.09v12.55a15.21,15.21,0,0,0,5.93-5.06l1.85,2.64a26.43,26.43,0,0,1-8.14,6.55,6.12,6.12,0,0,0-1.06.72Z"/><path class="cls-6" d="M560.9,358.44a14.2,14.2,0,0,0,2.64-.17v3.19c-.53,0-1.37-.07-2.64-.07h-1.78v.79c0,6-1.44,9.58-7.22,12.12l-2.57-2.42c4.63-1.61,6.67-3.7,6.67-9.58v-.91h-5.69v3.26c0,1.06.07,2,.1,2.52H547a19.35,19.35,0,0,0,.14-2.52v-3.26h-2c-1.2,0-2.06,0-2.59.1v-3.26a15.83,15.83,0,0,0,2.59.22h2v-2.38a19.27,19.27,0,0,0-.14-2.16h3.41a14.94,14.94,0,0,0-.14,2.18v2.35H556v-2.52a16,16,0,0,0-.14-2.23h3.41a20.7,20.7,0,0,0-.14,2.23v2.52Z"/><path class="cls-6" d="M580.95,370.7a16.5,16.5,0,0,0,.22,3.14h-3.79a27,27,0,0,0,.17-3.14v-7.87a47,47,0,0,1-8.26,3.26l-1.73-2.93a36.88,36.88,0,0,0,10.92-4.34,25.33,25.33,0,0,0,6.26-5.42l2.57,2.33a39.17,39.17,0,0,1-6.36,5.16Z"/><path class="cls-6" d="M610.47,358.34c-.6.6-1.34,1.42-1.85,2a36.26,36.26,0,0,1-5,4.7c0,1.92,0,4.54,0,6,0,1,.1,2.33.17,3.07h-3.46a27.46,27.46,0,0,0,.19-3.07V367a42.13,42.13,0,0,1-7.37,3l-1.85-2.83a29.59,29.59,0,0,0,9.79-4,15.42,15.42,0,0,0,4-3.6h-8.69c-.86,0-2.38,0-3.12.12v-3.14a22.5,22.5,0,0,0,3.07.17h4.15v-1.25a15.56,15.56,0,0,0-.14-2.21h3.43a19.87,19.87,0,0,0-.14,2.21v1.25h2.88a7.2,7.2,0,0,0,2-.24Zm-3.38,5.71a54.38,54.38,0,0,1,5.76,3.48l-2,2.64a37.76,37.76,0,0,0-5.74-3.82Z"/><path class="cls-6" d="M616.83,361.68c.87.07,2.62.14,3.87.14h12.89c1.1,0,2.18-.1,2.81-.14v3.77c-.58,0-1.8-.12-2.81-.12H620.7c-1.37,0-3,0-3.87.12Z"/><path class="cls-6" d="M648.79,362.76,647,365.45c-1.37-1-3.86-2.57-5.47-3.43l1.73-2.64A64.19,64.19,0,0,1,648.79,362.76Zm1.92,5.47a24.29,24.29,0,0,0,9.34-9l1.85,3.26a28.93,28.93,0,0,1-9.53,8.64,30.17,30.17,0,0,1-8,3l-1.8-3.14A25.7,25.7,0,0,0,650.71,368.23Zm1.75-10.9L650.69,360c-1.34-.94-3.84-2.54-5.42-3.43L647,353.9C648.58,354.76,651.22,356.47,652.47,357.33Zm7.15.74-2.09.89a21.69,21.69,0,0,0-2.11-3.77l2-.84A36.35,36.35,0,0,1,659.62,358.08Zm3.36-1.29-2,.91a23.06,23.06,0,0,0-2.26-3.65l2-.84A30.73,30.73,0,0,1,663,356.78Z"/><path class="cls-6" d="M575.07,534.18a19.08,19.08,0,0,0-1,2.14,34.2,34.2,0,0,1-3.24,6.53,62.08,62.08,0,0,1,5.71,5.28l-2.47,2.76a47.84,47.84,0,0,0-5.3-5.28,30,30,0,0,1-8.93,7.42l-2.76-2.47a26.18,26.18,0,0,0,9.12-7.08,62.23,62.23,0,0,0-6.43-4.54l2.06-2.47c1.92,1.2,4.39,2.88,6.34,4.32a26.16,26.16,0,0,0,2.64-5.69,17.81,17.81,0,0,0,.58-2.21Z"/><path class="cls-6" d="M580.2,550.91a11.33,11.33,0,0,0,4.08-5.74c.67-2.06.7-6.6.7-9.5a8.8,8.8,0,0,0-.21-2.18h3.53a15.39,15.39,0,0,0-.17,2.16c0,2.83-.07,7.9-.72,10.32a13.9,13.9,0,0,1-4.27,6.89Zm11.11.36a9.17,9.17,0,0,0,.19-1.78v-14a10.73,10.73,0,0,0-.19-2.06h3.58a12.14,12.14,0,0,0-.17,2.09v12.55a15.21,15.21,0,0,0,5.93-5.06l1.85,2.64a26.41,26.41,0,0,1-8.14,6.55,6.11,6.11,0,0,0-1.05.72Z"/><path class="cls-6" d="M625.75,536.67a6.54,6.54,0,0,0-.82,1,40,40,0,0,1-8.18,9.38c1.37,1.37,2.78,2.93,3.72,4.06l-2.81,2.23a66.5,66.5,0,0,0-4.58-5.18,51.1,51.1,0,0,0-5.28-4.61l2.54-2c1,.72,2.54,2,4.06,3.34a26.67,26.67,0,0,0,6.1-6.91H607.8c-1,0-2.26.12-2.76.17v-3.36a23.08,23.08,0,0,0,2.76.22h13.32a7.75,7.75,0,0,0,2.23-.26Z"/><path class="cls-6" d="M644.85,537.08a9.37,9.37,0,0,0,1.82-.17l2.06,1a9.44,9.44,0,0,0-.17,1.25c-.1,2.59-.38,9.31-1.42,11.76a3,3,0,0,1-3.1,1.82c-1.37,0-2.81-.1-4-.19l-.36-3.19a22.65,22.65,0,0,0,3.36.34,1.27,1.27,0,0,0,1.37-.86c.7-1.51,1-6.31,1-8.91H640c-.89,6.36-3.17,10.11-7.46,13.15l-2.78-2.26a13.66,13.66,0,0,0,3.14-2.33,14.18,14.18,0,0,0,4-8.57h-3.17c-.82,0-2.14,0-3.17.12v-3.17a29.21,29.21,0,0,0,3.17.17h3.43c0-.67,0-1.37,0-2.09a17.83,17.83,0,0,0-.17-2.21h3.53c-.07.58-.12,1.58-.14,2.16,0,.74,0,1.44-.1,2.14Zm1.87-.38a28.61,28.61,0,0,0-1.87-3.34l1.9-.77a35.54,35.54,0,0,1,1.9,3.29Zm2.86-5.21a37.48,37.48,0,0,1,1.94,3.26l-1.92.84a25.2,25.2,0,0,0-1.92-3.31Z"/><path class="cls-6" d="M434.58,611.18a37.69,37.69,0,0,1-4.63,6.7l-2.59-1.78a25,25,0,0,0,4.51-6.19Zm5.42-3.41v11.16c0,1.39-.79,2.26-2.5,2.26a34.77,34.77,0,0,1-3.91-.22l-.29-3a16.57,16.57,0,0,0,2.66.29c.62,0,.86-.24.89-.86,0-.89,0-8.5,0-9.62v0h-6.1c-.72,0-1.66,0-2.33.1v-3.19a18.71,18.71,0,0,0,2.33.19h6.1v-1.92a12.47,12.47,0,0,0-.22-2.09h3.55a19.23,19.23,0,0,0-.22,2.09v1.92h5.59a18.78,18.78,0,0,0,2.35-.17v3.14c-.74,0-1.68-.07-2.33-.07Zm4.9,2.06a55.72,55.72,0,0,1,4.1,6.31l-2.83,1.54a45.64,45.64,0,0,0-3.89-6.43Zm-1.37-8a2.77,2.77,0,1,1,2.78,2.78A2.77,2.77,0,0,1,443.53,601.79Zm1.46,0a1.31,1.31,0,1,0,2.62,0,1.31,1.31,0,0,0-2.62,0Z"/><path class="cls-6" d="M465.43,617.71a16.52,16.52,0,0,0,.22,3.14h-3.79a27,27,0,0,0,.17-3.14v-7.87a47,47,0,0,1-8.26,3.26L452,610.17A36.87,36.87,0,0,0,463,605.83a25.35,25.35,0,0,0,6.27-5.42l2.57,2.33a39.23,39.23,0,0,1-6.36,5.16Z"/><path class="cls-6" d="M486.1,614.39a22.76,22.76,0,0,0,8.74-9.34l1.87,3.38a25.52,25.52,0,0,1-8.88,8.88,26,26,0,0,1-8.91,3.38l-2-3.17A24.74,24.74,0,0,0,486.1,614.39Zm0-7.78-2.45,2.52a49.81,49.81,0,0,0-6-5.18l2.26-2.4A50.37,50.37,0,0,1,486.1,606.62Z"/><path class="cls-6" d="M516.17,614.27a69.46,69.46,0,0,0-8.67-3.58v6.79c0,.7.12,2.38.22,3.34H504a25.75,25.75,0,0,0,.24-3.34V603.71a16.74,16.74,0,0,0-.24-2.9h3.74a26.17,26.17,0,0,0-.22,2.9v3.53a78.13,78.13,0,0,1,10,3.72Z"/><path class="cls-6" d="M454.84,648.43c.94,1.61,2.62,2.28,5.06,2.38,2.88.12,8.54,0,11.86-.22a13.06,13.06,0,0,0-.89,2.78c-3,.14-8.06.19-11,.07s-4.78-.82-6.22-2.66c-1,.94-1.94,1.85-3.17,2.88l-1.34-2.83a28.69,28.69,0,0,0,3-2.21v-5.23h-2.69v-2.62h5.4Zm-1.7-10.75a18.7,18.7,0,0,0-3.6-4l2.18-1.63a20.82,20.82,0,0,1,3.77,3.82ZM461.87,648h-6.26V645.7h6.26v-1.06h-5v-8.16h5v-1h-6v-2.3h6v-1.7h2.78v1.7h6.29v2.3h-6.29v1h5.23v8.16h-5.23v1.06h6.58V648h-6.58v2.23h-2.78Zm-2.42-8.4h2.42v-1.15h-2.42Zm2.42,3v-1.2h-2.42v1.2Zm2.78-4.2v1.15h2.5v-1.15Zm2.5,3h-2.5v1.2h2.5Z"/><path class="cls-6" d="M483.2,644c-.82.26-1.66.53-2.5.77v6.1c0,1.32-.22,2-.94,2.5a6.23,6.23,0,0,1-3.34.53,11.69,11.69,0,0,0-.7-2.64,19.16,19.16,0,0,0,2,0c.29,0,.41-.1.41-.41v-5.3c-.79.24-1.56.46-2.28.65l-.62-2.74c.82-.19,1.82-.43,2.9-.72v-4.13h-2.52V636h2.52v-4.51h2.59V636h2.18v.19a12.06,12.06,0,0,0,2.9-4.75l2.45.6a16.81,16.81,0,0,1-.74,1.82h2.69a21.44,21.44,0,0,0,.91-2.38l2.76.62-1,1.75h4.25v2h-4.78v.94h4.08v1.66h-4.08v1h4.08V641h-4.08v1.06h5v2H484.61v-6c-.29.29-.58.58-.86.82-.19-.26-.53-.65-.86-1v.74H480.7V642l2.14-.6Zm14.38,3a8.57,8.57,0,0,1-.1,1c-.24,3-.58,4.46-1.2,5.09a2.67,2.67,0,0,1-1.85.74,23.58,23.58,0,0,1-3,0,5.28,5.28,0,0,0-.79-2.35,26.61,26.61,0,0,0,2.66.14,1.21,1.21,0,0,0,.84-.22c.29-.26.5-1,.67-2.42h-1.92c-.07.34-.17.65-.24.94l-2.42-.36c.19-.65.41-1.44.6-2.26H489a8.07,8.07,0,0,1-5.23,6.65,11,11,0,0,0-1.8-2.06,5.6,5.6,0,0,0,4.2-4.58h-2.86V645h8.67v0h1.82c-.12.62-.26,1.27-.41,1.92Zm-7.78-11.14h-2.74v.94h2.74Zm0,2.59h-2.74v1h2.74Zm0,2.62h-2.74v1.06h2.74Z"/><path class="cls-6" d="M284.64,658.55a12,12,0,0,0-.94,1.25,24.13,24.13,0,0,1-5.78,6.58l-2.47-2a14.27,14.27,0,0,0,4.42-4.46h-12.5c-1,0-1.8.07-2.93.17v-3.34a19,19,0,0,0,2.93.24H280.3a12,12,0,0,0,2.42-.22Zm-9.79,3.24c0,6-.12,10.85-6.67,14.35l-2.78-2.28a9.46,9.46,0,0,0,2.52-1.32c3-2.11,3.63-4.66,3.63-8.59a13.4,13.4,0,0,0-.17-2.16Z"/><path class="cls-6" d="M298.48,669.4a22.76,22.76,0,0,0,8.74-9.34l1.87,3.38a25.53,25.53,0,0,1-8.88,8.88,26,26,0,0,1-8.91,3.38l-2-3.17A24.74,24.74,0,0,0,298.48,669.4Zm0-7.78L296,664.14a49.91,49.91,0,0,0-6-5.18l2.26-2.4A50.36,50.36,0,0,1,298.48,661.62Z"/><path class="cls-6" d="M331.38,659.7a15.79,15.79,0,0,0,2.5-.17v3.29a24.89,24.89,0,0,0-2.5-.1H328c-.43,6.38-2.93,10.66-7.27,13.39L317.51,674a8.94,8.94,0,0,0,2.28-1.34c2.52-1.92,4.51-4.87,4.9-9.89h-5.06a19.68,19.68,0,0,1-3.87,5l-3-1.82a18.38,18.38,0,0,0,4.15-4.95,15.13,15.13,0,0,0,1.39-3.26,9.48,9.48,0,0,0,.5-2.47l3.7.74c-.26.6-.58,1.44-.77,1.94s-.41,1.13-.67,1.75Z"/><path class="cls-6" d="M338.69,663.69c.86.07,2.62.14,3.87.14h12.89c1.1,0,2.18-.1,2.81-.14v3.77c-.58,0-1.8-.12-2.81-.12H342.55c-1.37,0-3,0-3.87.12Z"/><path class="cls-6" d="M378.85,669.28a69.46,69.46,0,0,0-8.67-3.58v6.79c0,.7.12,2.38.22,3.34h-3.74a25.77,25.77,0,0,0,.24-3.34V658.72a16.74,16.74,0,0,0-.24-2.9h3.74a26.17,26.17,0,0,0-.22,2.9v3.53a78.42,78.42,0,0,1,10,3.72Z"/><path class="cls-6" d="M145.48,592.21l3.5.72c-.22.7-.48,1.87-.58,2.4a60,60,0,0,1-2,7.22,33,33,0,0,1-3.55,6.86L139.45,608a28.94,28.94,0,0,0,3.74-6.67A34.58,34.58,0,0,0,145.48,592.21Zm6.1.72,3.19-1c1,1.85,2.64,5.54,3.53,7.87.86,2.16,2.14,6,2.81,8.38l-3.55,1.15a74.23,74.23,0,0,0-2.5-8.47A67.34,67.34,0,0,0,151.57,592.93Zm7.63,0-1.92.84a30.34,30.34,0,0,0-1.87-3.34l1.9-.79C157.91,590.53,158.75,592,159.21,592.93Zm2.88-1.1-1.92.84a25.14,25.14,0,0,0-1.92-3.31l1.9-.79A37.6,37.6,0,0,1,162.09,591.83Z"/><path class="cls-6" d="M182.75,595.26c1.1,0,2.11-.1,2.62-.14v3.26c-.5,0-1.68-.1-2.64-.1h-5.4c-.14,4.82-1.66,8.76-6.84,11.86l-3-2.21a10.25,10.25,0,0,0,6.5-9.65H167.9c-1.06,0-2,.07-2.76.12v-3.31c.72.07,1.7.17,2.66.17H174v-2.64a12,12,0,0,0-.31-2.81h3.82a18.78,18.78,0,0,0-.19,2.83v2.62Z"/><path class="cls-6" d="M190.7,597.68c.86.07,2.62.14,3.86.14h12.89c1.1,0,2.18-.1,2.81-.14v3.77c-.58,0-1.8-.12-2.81-.12H194.56c-1.37,0-3,0-3.86.12Z"/><path class="cls-6" d="M156.44,629.56c0,3.79-.38,9.65-2.64,13.27a11,11,0,0,0-2.45-1.58c2.06-3.38,2.23-8.3,2.23-11.69v-6H162v-3h3v3h8.67v2.74H156.44Zm14.81,13.37a14.62,14.62,0,0,0-.82-2.06c-5.06.41-10.44.79-14.16,1l-.26-3c.84,0,1.78-.07,2.81-.1A73.54,73.54,0,0,0,162,627.38l3.26.65a107.53,107.53,0,0,1-3.34,10.66c2.28-.1,4.8-.22,7.27-.36a44.88,44.88,0,0,0-2.81-4.44l2.67-1.15a38,38,0,0,1,5.18,8.88Z"/><path class="cls-6" d="M198.89,628.94v2.64H177.74v-2.64h9.65v-2.76h-5.23a16.85,16.85,0,0,1-2,2.71,16.59,16.59,0,0,0-2.62-1.51,17.16,17.16,0,0,0,4.08-6.86l2.86.72a21.26,21.26,0,0,1-.94,2.33h3.82v-3.12h3v3.12h7v2.62h-7v2.76Zm-18.39,4.34h16.08v9.63h-3.07v-1.1H183.43V643H180.5Zm2.93,2.64v3.24h10.08v-3.24Z"/><path class="cls-6" d="M78.11,453.35c-.6.6-1.34,1.42-1.85,2a36.26,36.26,0,0,1-5,4.7c0,1.92,0,4.54,0,6,0,1,.1,2.33.17,3.07H67.91a27.46,27.46,0,0,0,.19-3.07V462a42.21,42.21,0,0,1-7.37,3l-1.85-2.83a29.57,29.57,0,0,0,9.79-4,15.4,15.4,0,0,0,4-3.6H64c-.86,0-2.38,0-3.12.12v-3.14a22.66,22.66,0,0,0,3.07.17h4.15V450.4a15.56,15.56,0,0,0-.14-2.21h3.43a19.87,19.87,0,0,0-.14,2.21v1.25h2.88a7.2,7.2,0,0,0,2-.24Zm-3.38,5.71a54.22,54.22,0,0,1,5.76,3.48l-2,2.64a37.76,37.76,0,0,0-5.74-3.82Z"/><path class="cls-6" d="M96.91,465.71a16.51,16.51,0,0,0,.21,3.14H93.34a27,27,0,0,0,.17-3.14v-7.87a46.89,46.89,0,0,1-8.26,3.26l-1.73-2.93a36.88,36.88,0,0,0,10.92-4.34,25.36,25.36,0,0,0,6.26-5.42l2.57,2.33a39.26,39.26,0,0,1-6.36,5.16Z"/><path class="cls-6" d="M125.36,455.68a18.33,18.33,0,0,0,2.18-.14v3.12c-.6,0-1.51-.07-2.18-.07h-5.79a15.23,15.23,0,0,1-1.54,6.17,11.52,11.52,0,0,1-4.82,4.61l-2.81-2a10,10,0,0,0,4.34-3.43,10.31,10.31,0,0,0,1.49-5.3h-6.6c-.7,0-1.63,0-2.3.1v-3.14c.72.07,1.56.14,2.3.14Zm-12.65-3.29c-.84,0-1.85,0-2.57.1v-3.1a17.87,17.87,0,0,0,2.54.17h9.65a18.8,18.8,0,0,0,2.59-.17v3.1c-.84,0-1.75-.1-2.59-.1Z"/><path class="cls-6" d="M148.82,455a29.93,29.93,0,0,1-5.4,4.34v8a13.41,13.41,0,0,0,.17,2.59H140a25.35,25.35,0,0,0,.12-2.59v-6.17a45,45,0,0,1-6.77,2.62L131.78,461a32.07,32.07,0,0,0,8.47-3.24,23.9,23.9,0,0,0,6.17-5Z"/><path class="cls-6" d="M171.7,451.12l1.51,1a12.19,12.19,0,0,0-.53,1.66c-.55,2.35-1.58,6.07-3.6,8.74a19,19,0,0,1-9.65,6.63l-2.62-2.86c4.78-1.13,7.46-3.19,9.41-5.64a15.41,15.41,0,0,0,2.83-6.77H157.87c-1.1,0-2.23,0-2.86.1v-3.38a26.84,26.84,0,0,0,2.86.19H169a10.1,10.1,0,0,0,1.13,0c-.41-.79-.89-1.63-1.34-2.33l2-.82a31.76,31.76,0,0,1,1.85,3.17Zm2.4-4.15c.6.86,1.46,2.33,1.92,3.17l-2,.86a28.19,28.19,0,0,0-1.92-3.22Z"/><path class="cls-6" d="M116.4,483.55a12.09,12.09,0,0,0-.94,1.25,24.15,24.15,0,0,1-5.78,6.58l-2.47-2a14.25,14.25,0,0,0,4.42-4.46H99.11c-1,0-1.8.07-2.93.17v-3.34a19.08,19.08,0,0,0,2.93.24h12.94a12,12,0,0,0,2.42-.22Zm-9.79,3.24c0,6-.12,10.85-6.67,14.35l-2.78-2.28a9.45,9.45,0,0,0,2.52-1.32c3-2.11,3.63-4.66,3.63-8.59a13.31,13.31,0,0,0-.17-2.16Z"/><path class="cls-6" d="M126.69,487.56a83.6,83.6,0,0,1,10,3.74l-1.34,3.34a64.44,64.44,0,0,0-8.69-3.58v6.79c0,.67.12,2.35.24,3.34h-3.77a26.07,26.07,0,0,0,.24-3.34v-13.8a16.93,16.93,0,0,0-.24-2.9h3.74a25.93,25.93,0,0,0-.22,2.9Zm6.38-1.06a19.57,19.57,0,0,0-2.11-3.7l2-.86c.67,1,1.63,2.54,2.18,3.62Zm3.29-1.34a22.56,22.56,0,0,0-2.23-3.6l2-.94a31.84,31.84,0,0,1,2.26,3.55Z"/><path class="cls-6" d="M142,109.14a28.48,28.48,0,0,1-3.12,1.9,13.13,13.13,0,0,0,4.22,1.51,9.72,9.72,0,0,0-1.68,2.35,12,12,0,0,1-6.36-3.65l.1,1.94c-3.12.5-6.46,1-9,1.34l-.38-2.59c.72-.07,1.56-.17,2.45-.29V108h-2.47v-2.4h3.67V104h-3v-2.38h3V100H126v.58c0,4.2-.38,10.44-2.9,14.38a12,12,0,0,0-2.54-1.46c2.38-3.7,2.57-9.1,2.57-12.91V93.49H141.6V100h-3.26v1.58h3.46V104h-3.46v1.63h4.51V108h-2.52ZM126,97.57h12.7V95.89H126Zm4.92,13.75c1.22-.17,2.52-.34,3.79-.53A12.46,12.46,0,0,1,133,108h-2.11Zm1.2-9.74h3.58V100h-3.58Zm0,4h3.58V104h-3.58Zm3.6,2.4a9.55,9.55,0,0,0,1.32,1.63,28.56,28.56,0,0,0,2.45-1.63Z"/><path class="cls-6" d="M153.14,105.16a24.05,24.05,0,0,1-4.56,7.51,16.5,16.5,0,0,0-2.64-1.7,16.82,16.82,0,0,0,4.18-6.6Zm5.86-2.54v8.9c0,1.61-.34,2.4-1.46,2.86a13.63,13.63,0,0,1-4.78.5,12.31,12.31,0,0,0-1-3c1.37.07,3,.1,3.5.07s.62-.12.62-.46v-8.83h-9.17V99.76H168v2.86Zm6.82-5.79H148.89V94h16.92Zm-1.68,7.44a31.29,31.29,0,0,1,4,7.15l-3,1.32a29.66,29.66,0,0,0-3.7-7.34Z"/><path class="cls-6" d="M119.35,125.48a11.38,11.38,0,0,0-.79,1.7,27.63,27.63,0,0,1-3.31,6.58c.89.55,1.7,1.1,2.3,1.54l-2.18,2.81a27.92,27.92,0,0,0-2.23-1.7,22.92,22.92,0,0,1-8.86,6L101.49,140a20.3,20.3,0,0,0,9-5.38c-1.63-1.06-3.26-2-4.49-2.74l2-2.28c1.27.65,2.9,1.56,4.51,2.52A17.51,17.51,0,0,0,115,127h-6.89a28.24,28.24,0,0,1-6.34,6.19l-2.59-2a22,22,0,0,0,7.66-8,10.59,10.59,0,0,0,1.08-2.52l3.48,1.08c-.58.84-1.2,1.94-1.49,2.45l0,0h4.92a7.59,7.59,0,0,0,2.09-.26Z"/><path class="cls-6" d="M129.47,133.25l-2.93,1.1a48.55,48.55,0,0,0-2.18-5.54l2.88-1C127.84,129,129,131.91,129.47,133.25Zm12.19-5c-.29.77-.43,1.27-.58,1.75a19.36,19.36,0,0,1-3.26,7,18.75,18.75,0,0,1-8,6l-2.52-2.57a14.15,14.15,0,0,0,11-13.25Zm-6.89,3.5-2.88,1a39.89,39.89,0,0,0-1.94-5.33l2.86-.94C133.26,127.54,134.44,130.66,134.77,131.77Z"/><path class="cls-6" d="M164.78,129.44c.5,0,1.66-.1,2.18-.14v3.1c-.65,0-1.46-.1-2.11-.1h-6.22a12,12,0,0,1-6.14,9.87l-3-2.06c3.65-1.68,5.57-4.25,6-7.8h-6.6c-.74,0-1.63,0-2.26.1v-3.1a20.85,20.85,0,0,0,2.21.14h6.77V126c-2.3.19-4.83.26-6.43.31l-.74-2.78a56.57,56.57,0,0,0,8.18-.38,26,26,0,0,0,6-1.44l2,2.64-1.85.46a38.54,38.54,0,0,1-4,.79v3.82Z"/><path class="cls-6" d="M186.61,141.08a22.53,22.53,0,0,1-3.24-2.14,7.42,7.42,0,0,1-5.47,2.14c-4,0-6.14-2-6.14-4.94,0-2.35,1.68-3.75,3.53-4.92a7.14,7.14,0,0,1-1.49-4,4.35,4.35,0,0,1,4.61-4.54c2.71,0,4.44,1.49,4.44,4s-1.71,3.72-3.53,4.9a40,40,0,0,0,3.74,3.22,10.24,10.24,0,0,0,1.32-3.86h3.12a16.36,16.36,0,0,1-2.21,5.62,32.27,32.27,0,0,0,2.88,1.85Zm-8.4-2.69a4.49,4.49,0,0,0,2.93-1.3,49,49,0,0,1-4.3-4c-1.1.82-1.94,1.7-1.94,2.9C174.89,137.6,176.29,138.39,178.21,138.39Zm-.46-8.64c1.34-.84,2.4-1.73,2.4-3a1.58,1.58,0,0,0-1.66-1.75c-1.15,0-1.87.74-1.87,2.09A4.7,4.7,0,0,0,177.75,129.75Z"/><path class="cls-6" d="M128.31,163.27a69.36,69.36,0,0,0-8.67-3.58v6.79c0,.7.12,2.38.22,3.34h-3.74a25.78,25.78,0,0,0,.24-3.34V152.71a16.76,16.76,0,0,0-.24-2.9h3.74a26.2,26.2,0,0,0-.22,2.9v3.53a78.54,78.54,0,0,1,10,3.72Z"/><path class="cls-6" d="M153.76,157.34a8.83,8.83,0,0,0-.46,1,17.24,17.24,0,0,1-3.55,6.65,18,18,0,0,1-8.57,5.18l-2.4-2.71a16.18,16.18,0,0,0,8.33-4.2,10.41,10.41,0,0,0,2.47-4.15H138c-.58,0-1.78,0-2.78.12v-3.12c1,.1,2,.14,2.78.14h11.88a5,5,0,0,0,1.75-.24Zm-16.35-7a20.1,20.1,0,0,0,2.5.12h9.24a22.47,22.47,0,0,0,2.59-.12v3.1c-.65,0-1.78-.07-2.64-.07h-9.19c-.77,0-1.8,0-2.5.07Z"/><path class="cls-6" d="M171.38,166.7a16.5,16.5,0,0,0,.22,3.14H167.8a27,27,0,0,0,.17-3.14v-7.87a46.91,46.91,0,0,1-8.26,3.26L158,159.17a36.88,36.88,0,0,0,10.92-4.34,25.32,25.32,0,0,0,6.26-5.42l2.57,2.33a39.22,39.22,0,0,1-6.36,5.16Z"/><path class="cls-6" d="M251.52,77.17a37.64,37.64,0,0,1-4.63,6.7l-2.59-1.78a25,25,0,0,0,4.51-6.19Zm5.42-3.41V84.93c0,1.39-.79,2.26-2.5,2.26a34.78,34.78,0,0,1-3.91-.22l-.29-3a16.55,16.55,0,0,0,2.66.29c.62,0,.86-.24.89-.86,0-.89,0-8.5,0-9.62v0h-6.1c-.72,0-1.66,0-2.33.1V70.67a18.73,18.73,0,0,0,2.33.19h6.1V68.94a12.46,12.46,0,0,0-.22-2.09h3.55a19.51,19.51,0,0,0-.22,2.09v1.92h5.59a18.75,18.75,0,0,0,2.35-.17v3.14c-.74,0-1.68-.07-2.33-.07Zm4.9,2.06a55.87,55.87,0,0,1,4.11,6.31l-2.83,1.54a45.74,45.74,0,0,0-3.89-6.43Zm-1.37-8a2.77,2.77,0,1,1,2.78,2.78A2.77,2.77,0,0,1,260.47,67.79Zm1.46,0a1.31,1.31,0,1,0,2.62,0,1.31,1.31,0,0,0-2.62,0Z"/><path class="cls-6" d="M287.54,69.52A11.59,11.59,0,0,0,286.7,71a35.29,35.29,0,0,1-3.77,6.6,67.57,67.57,0,0,1,6.7,6.86l-2.74,2.38a54.74,54.74,0,0,0-6-6.79,31.64,31.64,0,0,1-9,6.75l-2.47-2.59a27.19,27.19,0,0,0,9.84-6.89,18.6,18.6,0,0,0,3.58-5.88h-8.14c-1,0-2.33.14-2.83.17V68.2a26.61,26.61,0,0,0,2.83.17h8.45a8.68,8.68,0,0,0,2.5-.31Z"/><path class="cls-6" d="M312.82,70.48a11.42,11.42,0,0,0-.79,1.7,27.64,27.64,0,0,1-3.31,6.58c.89.55,1.71,1.1,2.3,1.54l-2.18,2.81a27.68,27.68,0,0,0-2.23-1.71,22.89,22.89,0,0,1-8.86,6L295,84.95a20.28,20.28,0,0,0,9-5.38c-1.63-1.06-3.26-2-4.49-2.74l2-2.28c1.27.65,2.9,1.56,4.51,2.52a17.44,17.44,0,0,0,2.5-5.11h-6.89a28.22,28.22,0,0,1-6.34,6.19l-2.59-2a22,22,0,0,0,7.66-8,10.62,10.62,0,0,0,1.08-2.52l3.48,1.08c-.58.84-1.2,1.94-1.49,2.45l0,0h4.92a7.62,7.62,0,0,0,2.09-.26Z"/><path class="cls-6" d="M317.19,74.68c.86.07,2.62.14,3.86.14h12.89c1.11,0,2.19-.1,2.81-.14v3.77c-.58,0-1.8-.12-2.81-.12H321.06c-1.37,0-3,0-3.86.12Z"/><path class="cls-6" d="M420,90h5.88c3.65,0,6.43,1.06,6.43,4.37a4,4,0,0,1-2.42,3.84v.12a4,4,0,0,1,3.34,4.2c0,3.58-3,5.23-6.89,5.23H420Zm5.62,7.22c2.26,0,3.24-.91,3.24-2.33s-1.06-2.18-3.19-2.18h-2.11v4.51Zm.41,7.8c2.42,0,3.74-.86,3.74-2.71s-1.3-2.45-3.74-2.45h-2.47v5.16Z"/><path class="cls-6" d="M436.8,99c0-5.86,3.79-9.29,8.52-9.29a7.47,7.47,0,0,1,5.5,2.28l-1.9,2.26a4.67,4.67,0,0,0-3.48-1.49c-3,0-5,2.3-5,6.12s1.78,6.19,5.26,6.19a3.59,3.59,0,0,0,2.23-.67v-3.5h-3.14V98h6.31v8a8.36,8.36,0,0,1-5.76,2.14C440.47,108.13,436.8,104.91,436.8,99Z"/><path class="cls-6" d="M456.24,90h3.94l3,8.3c.38,1.1.72,2.28,1.08,3.43h.12c.38-1.15.7-2.33,1.08-3.43l3-8.3h3.94v17.76h-3.24v-7.42c0-1.68.26-4.15.43-5.83h-.1L468,98.72l-2.74,7.46h-2l-2.76-7.46-1.42-4.18H459c.17,1.68.46,4.15.46,5.83v7.42h-3.19Z"/><path class="cls-6" d="M549.35,200.85H557v2.45h-18v-2.45h7.54v-2.38h-6V196h6v-2.78l-1.37,1.63a17.76,17.76,0,0,0-1.82-2.09,9,9,0,0,1-2.16,2.57,16,16,0,0,0-2.06-1.68c-.22,3.41-.82,7.3-2.3,10a11.13,11.13,0,0,0-2.42-1.58c1.87-3.43,2-8.45,2-12v-6.5h8.76v-2.16h3v2.16h8.67v2.62H539.27v3.91c0,1,0,2.21-.1,3.48,2-1.32,2.88-3.5,3.17-6.29l2.59.19a16.48,16.48,0,0,1-.58,2.88,28.06,28.06,0,0,1,2.23,2.21v-5.59h2.76v5.86a8.69,8.69,0,0,0,2.59-5.54l2.54.29a15.55,15.55,0,0,1-.65,2.76,42,42,0,0,1,3.31,2.88l-1.66,2a29.66,29.66,0,0,0-2.71-2.57,8.92,8.92,0,0,1-2.16,2.47,10.75,10.75,0,0,0-1.27-1.18v2h6.38v2.47h-6.38Z"/><path class="cls-6" d="M569.59,187.68h-9.12v-2.26h9.12Zm-.77,14.93h-4.9v.94h-2.4v-8.18h7.3Zm0-11.67h-7.2v-2.18h7.2Zm-7.2,1.1h7.2v2.14h-7.2Zm7.13-7.68h-7.06V182.2h7.06Zm-4.8,13.25v2.76h2.47v-2.76Zm14.18-.34a8.2,8.2,0,0,0,4.92,4.2,22.71,22.71,0,0,0-1.63,2.42,8.88,8.88,0,0,1-5.18-5.28,9.57,9.57,0,0,1-5.71,5.28,11.89,11.89,0,0,0-1.56-2.33c4.58-1.61,5.81-4.75,5.81-6.36v-3.62h2.9v3.62a5.18,5.18,0,0,0,.46,2,25.93,25.93,0,0,0,1.9-4.15l2.81.86a46.39,46.39,0,0,1-2.52,4.13Zm-9,.19a7.68,7.68,0,0,0,2.09-4.22l2.5.5a9.17,9.17,0,0,1-2.23,4.9Zm11.86-4.87a36,36,0,0,0-4.8-3.48,9,9,0,0,1-5.14,3.67,7,7,0,0,0-1.58-2.26c5-1.56,5.38-4.3,5.57-9h2.76a25.36,25.36,0,0,1-.6,5.23,49.91,49.91,0,0,1,5.69,3.72Zm-7.15-9.24a8.56,8.56,0,0,1-1.9,4.44l-2.23-1a7.77,7.77,0,0,0,1.8-4Zm8.83.24c-.79,1.39-1.66,2.86-2.33,3.86l-2.11-.82a21.1,21.1,0,0,0,1.73-3.91Z"/><path class="cls-6" d="M591.76,189.52a27.74,27.74,0,0,1-4.06,2.4,11.13,11.13,0,0,0-1.68-2.4,23.67,23.67,0,0,0,9.7-8h3a22,22,0,0,0,10.15,7.61,14.81,14.81,0,0,0-1.85,2.62,28.94,28.94,0,0,1-4-2.33v1.9H591.76Zm-4.25,3.75h19.85v2.64H596.61c-.7,1.42-1.49,2.9-2.21,4.25,2.3-.07,4.78-.17,7.22-.26a28.55,28.55,0,0,0-2.35-2.45l2.52-1.32a32.3,32.3,0,0,1,5.5,6.17l-2.67,1.61a12.47,12.47,0,0,0-1-1.49c-5.64.31-11.57.55-15.65.74l-.38-2.78,3.62-.12a46,46,0,0,0,1.82-4.34h-5.57Zm14.43-4.61a23.37,23.37,0,0,1-4.61-4.44,21.84,21.84,0,0,1-4.39,4.44Z"/></g></svg>